<?xml version="1.0" encoding="UTF-8" standalone="no"?>
<!DOCTYPE svg PUBLIC "-//W3C//DTD SVG 1.1//EN"
 "http://www.w3.org/Graphics/SVG/1.1/DTD/svg11.dtd">
<!-- Generated by graphviz version 12.2.1 (20241206.2353)
 -->
<!-- Title: prt::Keyboard Pages: 1 -->
<svg width="295pt" height="295pt"
 viewBox="0.00 0.00 294.75 295.25" xmlns="http://www.w3.org/2000/svg" xmlns:xlink="http://www.w3.org/1999/xlink">
<g id="graph0" class="graph" transform="scale(1 1) rotate(0) translate(4 291.25)">
<title>prt::Keyboard</title>
<!-- Node1 -->
<g id="Node000001" class="node">
<title>Node1</title>
<g id="a_Node000001"><a xlink:title=" ">
<polygon fill="#999999" stroke="#666666" points="246.12,-152.25 171.62,-152.25 171.62,-133 246.12,-133 246.12,-152.25"/>
<text text-anchor="middle" x="208.88" y="-138.75" font-family="Helvetica,sans-Serif" font-size="10.00">prt::Keyboard</text>
</a>
</g>
</g>
<!-- Node4 -->
<g id="Node000004" class="node">
<title>Node4</title>
<g id="a_Node000004"><a xlink:href="classprt_1_1_window.html" target="_top" xlink:title=" ">
<polygon fill="white" stroke="#666666" points="172.12,-85.75 103.62,-85.75 103.62,-66.5 172.12,-66.5 172.12,-85.75"/>
<text text-anchor="middle" x="137.88" y="-72.25" font-family="Helvetica,sans-Serif" font-size="10.00">prt::Window</text>
</a>
</g>
</g>
<!-- Node1&#45;&gt;Node4 -->
<g id="edge6_Node000004_Node000001" class="edge">
<title>Node1&#45;&gt;Node4</title>
<g id="a_edge6_Node000004_Node000001"><a xlink:title=" ">
<path fill="none" stroke="#9a32cd" stroke-dasharray="5,2" d="M160.72,-133.76C150.6,-129.8 141.11,-123.87 134.88,-115 128.96,-106.58 131.37,-94.36 134.15,-86.09"/>
<polygon fill="#9a32cd" stroke="#9a32cd" points="159.36,-137 169.95,-136.75 161.51,-130.34 159.36,-137"/>
</a>
</g>
<text text-anchor="middle" x="158.88" y="-105.5" font-family="Helvetica,sans-Serif" font-size="10.00" fill="grey"> keyboard_</text>
</g>
<!-- Node2 -->
<g id="Node000002" class="node">
<title>Node2</title>
<g id="a_Node000002"><a xlink:href="classprt_1_1_event_source_template.html" target="_top" xlink:title=" ">
<polygon fill="white" stroke="#666666" points="281.5,-219.75 152.25,-219.75 152.25,-189.25 281.5,-189.25 281.5,-219.75"/>
<text text-anchor="start" x="160.25" y="-206.25" font-family="Helvetica,sans-Serif" font-size="10.00">prt::EventSourceTemplate</text>
<text text-anchor="middle" x="216.88" y="-195" font-family="Helvetica,sans-Serif" font-size="10.00">&lt; KeyboardEvent &gt;</text>
</a>
</g>
</g>
<!-- Node2&#45;&gt;Node1 -->
<g id="edge1_Node000001_Node000002" class="edge">
<title>Node2&#45;&gt;Node1</title>
<g id="a_edge1_Node000001_Node000002"><a xlink:title=" ">
<path fill="none" stroke="#63b8ff" d="M213.44,-177.77C212.24,-168.79 210.97,-159.29 210.07,-152.6"/>
<polygon fill="#63b8ff" stroke="#63b8ff" points="209.94,-178.06 214.74,-187.51 216.88,-177.13 209.94,-178.06"/>
</a>
</g>
</g>
<!-- Node3 -->
<g id="Node000003" class="node">
<title>Node3</title>
<g id="a_Node000003"><a xlink:href="classprt_1_1_event_source.html" target="_top" xlink:title=" ">
<polygon fill="white" stroke="#666666" points="286.75,-287.25 147,-287.25 147,-256.75 286.75,-256.75 286.75,-287.25"/>
<text text-anchor="start" x="155" y="-273.75" font-family="Helvetica,sans-Serif" font-size="10.00">prt::EventSource&lt; Keyboard</text>
<text text-anchor="middle" x="216.88" y="-262.5" font-family="Helvetica,sans-Serif" font-size="10.00">Event &gt;</text>
</a>
</g>
</g>
<!-- Node3&#45;&gt;Node2 -->
<g id="edge2_Node000002_Node000003" class="edge">
<title>Node3&#45;&gt;Node2</title>
<g id="a_edge2_Node000002_Node000003"><a xlink:title=" ">
<path fill="none" stroke="#63b8ff" d="M216.88,-245.09C216.88,-236.55 216.88,-227.37 216.88,-220"/>
<polygon fill="#63b8ff" stroke="#63b8ff" points="213.38,-244.95 216.88,-254.95 220.38,-244.95 213.38,-244.95"/>
</a>
</g>
</g>
<!-- Node4&#45;&gt;Node1 -->
<g id="edge3_Node000001_Node000004" class="edge">
<title>Node4&#45;&gt;Node1</title>
<g id="a_edge3_Node000001_Node000004"><a xlink:title=" ">
<path fill="none" stroke="#9a32cd" stroke-dasharray="5,2" d="M170.4,-91.51C176.29,-94.99 182.07,-99.08 186.88,-103.75 195.38,-112.02 201.69,-124.27 205.32,-132.59"/>
<polygon fill="#9a32cd" stroke="#9a32cd" points="172.35,-88.58 161.89,-86.94 169.04,-94.75 172.35,-88.58"/>
</a>
</g>
<text text-anchor="middle" x="213.12" y="-105.5" font-family="Helvetica,sans-Serif" font-size="10.00" fill="grey"> owner_</text>
</g>
<!-- Node7 -->
<g id="Node000007" class="node">
<title>Node7</title>
<g id="a_Node000007"><a xlink:href="classprt_1_1_mouse.html" target="_top" xlink:title=" ">
<polygon fill="white" stroke="#666666" points="169.12,-19.25 106.62,-19.25 106.62,0 169.12,0 169.12,-19.25"/>
<text text-anchor="middle" x="137.88" y="-5.75" font-family="Helvetica,sans-Serif" font-size="10.00">prt::Mouse</text>
</a>
</g>
</g>
<!-- Node4&#45;&gt;Node7 -->
<g id="edge8_Node000007_Node000004" class="edge">
<title>Node4&#45;&gt;Node7</title>
<g id="a_edge8_Node000007_Node000004"><a xlink:title=" ">
<path fill="none" stroke="#9a32cd" stroke-dasharray="5,2" d="M113.86,-58.98C110.83,-55.87 108.17,-52.36 106.38,-48.5 101.19,-37.33 111.81,-26.74 122.09,-19.62"/>
<polygon fill="#9a32cd" stroke="#9a32cd" points="111.35,-61.44 121.24,-65.25 115.89,-56.11 111.35,-61.44"/>
</a>
</g>
<text text-anchor="middle" x="123.62" y="-39" font-family="Helvetica,sans-Serif" font-size="10.00" fill="grey"> owner_</text>
</g>
<!-- Node5 -->
<g id="Node000005" class="node">
<title>Node5</title>
<g id="a_Node000005"><a xlink:href="classprt_1_1_window_event_source.html" target="_top" xlink:title=" ">
<polygon fill="white" stroke="#666666" points="145.25,-152.25 20.5,-152.25 20.5,-133 145.25,-133 145.25,-152.25"/>
<text text-anchor="middle" x="82.88" y="-138.75" font-family="Helvetica,sans-Serif" font-size="10.00">prt::WindowEventSource</text>
</a>
</g>
</g>
<!-- Node5&#45;&gt;Node4 -->
<g id="edge4_Node000004_Node000005" class="edge">
<title>Node5&#45;&gt;Node4</title>
<g id="a_edge4_Node000004_Node000005"><a xlink:title=" ">
<path fill="none" stroke="#63b8ff" d="M97.81,-124.11C108.32,-111.78 121.95,-95.81 130.29,-86.02"/>
<polygon fill="#63b8ff" stroke="#63b8ff" points="95.33,-121.62 91.5,-131.5 100.66,-126.17 95.33,-121.62"/>
</a>
</g>
</g>
<!-- Node6 -->
<g id="Node000006" class="node">
<title>Node6</title>
<g id="a_Node000006"><a xlink:href="classprt_1_1_event_source.html" target="_top" xlink:title=" ">
<polygon fill="white" stroke="#666666" points="133.75,-219.75 0,-219.75 0,-189.25 133.75,-189.25 133.75,-219.75"/>
<text text-anchor="start" x="8" y="-206.25" font-family="Helvetica,sans-Serif" font-size="10.00">prt::EventSource&lt; Window</text>
<text text-anchor="middle" x="66.88" y="-195" font-family="Helvetica,sans-Serif" font-size="10.00">Event &gt;</text>
</a>
</g>
</g>
<!-- Node6&#45;&gt;Node5 -->
<g id="edge5_Node000005_Node000006" class="edge">
<title>Node6&#45;&gt;Node5</title>
<g id="a_edge5_Node000005_Node000006"><a xlink:title=" ">
<path fill="none" stroke="#63b8ff" d="M73.67,-178.08C76.09,-169 78.67,-159.36 80.48,-152.6"/>
<polygon fill="#63b8ff" stroke="#63b8ff" points="70.34,-176.98 71.14,-187.54 77.1,-178.79 70.34,-176.98"/>
</a>
</g>
</g>
<!-- Node7&#45;&gt;Node4 -->
<g id="edge7_Node000004_Node000007" class="edge">
<title>Node7&#45;&gt;Node4</title>
<g id="a_edge7_Node000004_Node000007"><a xlink:title=" ">
<path fill="none" stroke="#9a32cd" stroke-dasharray="5,2" d="M143.9,-30.4C145.02,-36.21 145.64,-42.59 144.88,-48.5 144.09,-54.57 142.34,-61.22 140.79,-66.36"/>
<polygon fill="#9a32cd" stroke="#9a32cd" points="147.38,-29.9 141.52,-21.08 140.6,-31.63 147.38,-29.9"/>
</a>
</g>
<text text-anchor="middle" x="163.96" y="-39" font-family="Helvetica,sans-Serif" font-size="10.00" fill="grey"> mouse_</text>
</g>
</g>
</svg>
