<?xml version="1.0" encoding="UTF-8" standalone="no"?>
<!DOCTYPE svg PUBLIC "-//W3C//DTD SVG 1.1//EN"
 "http://www.w3.org/Graphics/SVG/1.1/DTD/svg11.dtd">
<!-- Generated by graphviz version 12.2.1 (20241206.2353)
 -->
<!-- Title: prt::uri::Parser Pages: 1 -->
<svg width="424pt" height="88pt"
 viewBox="0.00 0.00 424.25 87.50" xmlns="http://www.w3.org/2000/svg" xmlns:xlink="http://www.w3.org/1999/xlink">
<g id="graph0" class="graph" transform="scale(1 1) rotate(0) translate(4 83.5)">
<title>prt::uri::Parser</title>
<!-- Node1 -->
<g id="Node000001" class="node">
<title>Node1</title>
<g id="a_Node000001"><a xlink:title=" ">
<polygon fill="#999999" stroke="#666666" points="416.25,-32.25 338,-32.25 338,-13 416.25,-13 416.25,-32.25"/>
<text text-anchor="middle" x="377.12" y="-18.75" font-family="Helvetica,sans-Serif" font-size="10.00">prt::uri::Parser</text>
</a>
</g>
</g>
<!-- Node2 -->
<g id="Node000002" class="node">
<title>Node2</title>
<g id="a_Node000002"><a xlink:href="classprt_1_1_parser_template.html" target="_top" xlink:title=" ">
<polygon fill="white" stroke="#666666" points="267.5,-79.5 128.5,-79.5 128.5,-37.75 267.5,-37.75 267.5,-79.5"/>
<text text-anchor="start" x="136.5" y="-66" font-family="Helvetica,sans-Serif" font-size="10.00">prt::ParserTemplate</text>
<text text-anchor="start" x="136.5" y="-54.75" font-family="Helvetica,sans-Serif" font-size="10.00">&lt; kDefaultParserBufferSize,</text>
<text text-anchor="middle" x="198" y="-43.5" font-family="Helvetica,sans-Serif" font-size="10.00"> kDefaultTokenBufferSize &gt;</text>
</a>
</g>
</g>
<!-- Node2&#45;&gt;Node1 -->
<g id="edge1_Node000001_Node000002" class="edge">
<title>Node2&#45;&gt;Node1</title>
<g id="a_edge1_Node000001_Node000002"><a xlink:title=" ">
<path fill="none" stroke="#63b8ff" d="M279.21,-42.32C299.58,-38.18 320.54,-33.92 337.74,-30.43"/>
<polygon fill="#63b8ff" stroke="#63b8ff" points="278.57,-38.88 269.47,-44.3 279.97,-45.74 278.57,-38.88"/>
</a>
</g>
</g>
<!-- Node3 -->
<g id="Node000003" class="node">
<title>Node3</title>
<g id="a_Node000003"><a xlink:href="structprt_1_1_position.html" target="_top" xlink:title=" ">
<polygon fill="white" stroke="#666666" points="68.5,-68.25 0,-68.25 0,-49 68.5,-49 68.5,-68.25"/>
<text text-anchor="middle" x="34.25" y="-54.75" font-family="Helvetica,sans-Serif" font-size="10.00">prt::Position</text>
</a>
</g>
</g>
<!-- Node3&#45;&gt;Node2 -->
<g id="edge2_Node000002_Node000003" class="edge">
<title>Node3&#45;&gt;Node2</title>
<g id="a_edge2_Node000002_Node000003"><a xlink:title=" ">
<path fill="none" stroke="#9a32cd" stroke-dasharray="5,2" d="M80.19,-58.62C95.05,-58.62 111.94,-58.62 128.17,-58.62"/>
<polygon fill="#9a32cd" stroke="#9a32cd" points="80.28,-55.13 70.28,-58.63 80.28,-62.13 80.28,-55.13"/>
</a>
</g>
<text text-anchor="middle" x="98.5" y="-60.38" font-family="Helvetica,sans-Serif" font-size="10.00" fill="grey"> pos_</text>
</g>
<!-- Node4 -->
<g id="Node000004" class="node">
<title>Node4</title>
<g id="a_Node000004"><a xlink:href="structprt_1_1uri_1_1_parser_1_1_config.html" target="_top" xlink:title=" ">
<polygon fill="white" stroke="#666666" points="254.38,-19.25 141.62,-19.25 141.62,0 254.38,0 254.38,-19.25"/>
<text text-anchor="middle" x="198" y="-5.75" font-family="Helvetica,sans-Serif" font-size="10.00">prt::uri::Parser::Config</text>
</a>
</g>
</g>
<!-- Node4&#45;&gt;Node1 -->
<g id="edge3_Node000001_Node000004" class="edge">
<title>Node4&#45;&gt;Node1</title>
<g id="a_edge3_Node000001_Node000004"><a xlink:title=" ">
<path fill="none" stroke="#9a32cd" stroke-dasharray="5,2" d="M265.86,-14.53C290.09,-16.31 316.62,-18.26 337.59,-19.8"/>
<polygon fill="#9a32cd" stroke="#9a32cd" points="266.3,-11.05 256.07,-13.81 265.78,-18.04 266.3,-11.05"/>
</a>
</g>
<text text-anchor="middle" x="302.75" y="-20.17" font-family="Helvetica,sans-Serif" font-size="10.00" fill="grey"> config_</text>
</g>
</g>
</svg>
