<?xml version="1.0" encoding="UTF-8" standalone="no"?>
<!DOCTYPE svg PUBLIC "-//W3C//DTD SVG 1.1//EN"
 "http://www.w3.org/Graphics/SVG/1.1/DTD/svg11.dtd">
<!-- Generated by graphviz version 12.2.1 (20241206.2353)
 -->
<!-- Title: prt::BigNumber Pages: 1 -->
<svg width="349pt" height="137pt"
 viewBox="0.00 0.00 348.50 136.50" xmlns="http://www.w3.org/2000/svg" xmlns:xlink="http://www.w3.org/1999/xlink">
<g id="graph0" class="graph" transform="scale(1 1) rotate(0) translate(4 132.5)">
<title>prt::BigNumber</title>
<!-- Node1 -->
<g id="Node000001" class="node">
<title>Node1</title>
<g id="a_Node000001"><a xlink:title=" ">
<polygon fill="#999999" stroke="#666666" points="82,-73.88 0,-73.88 0,-54.62 82,-54.62 82,-73.88"/>
<text text-anchor="middle" x="41" y="-60.38" font-family="Helvetica,sans-Serif" font-size="10.00">prt::BigNumber</text>
</a>
</g>
</g>
<!-- Node2 -->
<g id="Node000002" class="node">
<title>Node2</title>
<g id="a_Node000002"><a xlink:href="classprt_1_1_big_number_template.html" target="_top" xlink:title=" ">
<polygon fill="white" stroke="#666666" points="239.75,-128.5 118,-128.5 118,-98 239.75,-98 239.75,-128.5"/>
<text text-anchor="start" x="126" y="-115" font-family="Helvetica,sans-Serif" font-size="10.00">prt::BigNumberTemplate</text>
<text text-anchor="middle" x="178.88" y="-103.75" font-family="Helvetica,sans-Serif" font-size="10.00">&lt; kUInt128Size &gt;</text>
</a>
</g>
</g>
<!-- Node1&#45;&gt;Node2 -->
<g id="edge1_Node000001_Node000002" class="edge">
<title>Node1&#45;&gt;Node2</title>
<g id="a_edge1_Node000001_Node000002"><a xlink:title=" ">
<path fill="none" stroke="#63b8ff" d="M80.37,-78.09C97.17,-84.14 116.96,-91.28 134.3,-97.54"/>
<polygon fill="#63b8ff" stroke="#63b8ff" points="81.84,-74.9 71.25,-74.8 79.47,-81.48 81.84,-74.9"/>
</a>
</g>
</g>
<!-- Node4 -->
<g id="Node000004" class="node">
<title>Node4</title>
<g id="a_Node000004"><a xlink:href="classprt_1_1_big_number_template.html" target="_top" xlink:title=" ">
<polygon fill="white" stroke="#666666" points="239.75,-79.5 118,-79.5 118,-49 239.75,-49 239.75,-79.5"/>
<text text-anchor="start" x="126" y="-66" font-family="Helvetica,sans-Serif" font-size="10.00">prt::BigNumberTemplate</text>
<text text-anchor="middle" x="178.88" y="-54.75" font-family="Helvetica,sans-Serif" font-size="10.00">&lt; 256 &gt;</text>
</a>
</g>
</g>
<!-- Node1&#45;&gt;Node4 -->
<g id="edge3_Node000001_Node000004" class="edge">
<title>Node1&#45;&gt;Node4</title>
<g id="a_edge3_Node000001_Node000004"><a xlink:title=" ">
<path fill="none" stroke="#63b8ff" d="M93.85,-64.25C101.59,-64.25 109.62,-64.25 117.51,-64.25"/>
<polygon fill="#63b8ff" stroke="#63b8ff" points="93.91,-60.75 83.91,-64.25 93.91,-67.75 93.91,-60.75"/>
</a>
</g>
</g>
<!-- Node6 -->
<g id="Node000006" class="node">
<title>Node6</title>
<g id="a_Node000006"><a xlink:href="classprt_1_1_big_number_template.html" target="_top" xlink:title=" ">
<polygon fill="white" stroke="#666666" points="239.75,-30.5 118,-30.5 118,0 239.75,0 239.75,-30.5"/>
<text text-anchor="start" x="126" y="-17" font-family="Helvetica,sans-Serif" font-size="10.00">prt::BigNumberTemplate</text>
<text text-anchor="middle" x="178.88" y="-5.75" font-family="Helvetica,sans-Serif" font-size="10.00">&lt; NumberOfBits &gt;</text>
</a>
</g>
</g>
<!-- Node1&#45;&gt;Node6 -->
<g id="edge5_Node000001_Node000006" class="edge">
<title>Node1&#45;&gt;Node6</title>
<g id="a_edge5_Node000001_Node000006"><a xlink:title=" ">
<path fill="none" stroke="#63b8ff" d="M80.37,-50.41C97.17,-44.36 116.96,-37.22 134.3,-30.96"/>
<polygon fill="#63b8ff" stroke="#63b8ff" points="79.47,-47.02 71.25,-53.7 81.84,-53.6 79.47,-47.02"/>
</a>
</g>
</g>
<!-- Node3 -->
<g id="Node000003" class="node">
<title>Node3</title>
<g id="a_Node000003"><a xlink:href="classprt_1_1uint128.html" target="_top" xlink:title=" ">
<polygon fill="white" stroke="#666666" points="340.5,-122.88 275.75,-122.88 275.75,-103.62 340.5,-103.62 340.5,-122.88"/>
<text text-anchor="middle" x="308.12" y="-109.38" font-family="Helvetica,sans-Serif" font-size="10.00">prt::uint128</text>
</a>
</g>
</g>
<!-- Node2&#45;&gt;Node3 -->
<g id="edge2_Node000002_Node000003" class="edge">
<title>Node2&#45;&gt;Node3</title>
<g id="a_edge2_Node000002_Node000003"><a xlink:title=" ">
<path fill="none" stroke="#63b8ff" d="M251.58,-113.25C259.92,-113.25 268.08,-113.25 275.45,-113.25"/>
<polygon fill="#63b8ff" stroke="#63b8ff" points="251.66,-109.75 241.66,-113.25 251.66,-116.75 251.66,-109.75"/>
</a>
</g>
</g>
<!-- Node5 -->
<g id="Node000005" class="node">
<title>Node5</title>
<g id="a_Node000005"><a xlink:href="classprt_1_1uint256.html" target="_top" xlink:title=" ">
<polygon fill="white" stroke="#666666" points="340.5,-73.88 275.75,-73.88 275.75,-54.62 340.5,-54.62 340.5,-73.88"/>
<text text-anchor="middle" x="308.12" y="-60.38" font-family="Helvetica,sans-Serif" font-size="10.00">prt::uint256</text>
</a>
</g>
</g>
<!-- Node4&#45;&gt;Node5 -->
<g id="edge4_Node000004_Node000005" class="edge">
<title>Node4&#45;&gt;Node5</title>
<g id="a_edge4_Node000004_Node000005"><a xlink:title=" ">
<path fill="none" stroke="#63b8ff" d="M251.58,-64.25C259.92,-64.25 268.08,-64.25 275.45,-64.25"/>
<polygon fill="#63b8ff" stroke="#63b8ff" points="251.66,-60.75 241.66,-64.25 251.66,-67.75 251.66,-60.75"/>
</a>
</g>
</g>
</g>
</svg>
