<?xml version="1.0" encoding="UTF-8" standalone="no"?>
<!DOCTYPE svg PUBLIC "-//W3C//DTD SVG 1.1//EN"
 "http://www.w3.org/Graphics/SVG/1.1/DTD/svg11.dtd">
<!-- Generated by graphviz version 12.2.1 (20241206.2353)
 -->
<!-- Title: Graphical Class Hierarchy Pages: 1 -->
<svg width="213pt" height="101pt"
 viewBox="0.00 0.00 213.25 101.25" xmlns="http://www.w3.org/2000/svg" xmlns:xlink="http://www.w3.org/1999/xlink">
<g id="graph0" class="graph" transform="scale(1 1) rotate(0) translate(4 97.25)">
<title>Graphical Class Hierarchy</title>
<!-- Node0 -->
<g id="Node000000" class="node">
<title>Node0</title>
<g id="a_Node000000"><a xlink:title=" ">
<polygon fill="#e0e0e0" stroke="#999999" points="71.5,-56.25 0,-56.25 0,-37 71.5,-37 71.5,-56.25"/>
<text text-anchor="middle" x="35.75" y="-42.75" font-family="Helvetica,sans-Serif" font-size="10.00">EngineEvent</text>
</a>
</g>
</g>
<!-- Node1 -->
<g id="Node000001" class="node">
<title>Node1</title>
<g id="a_Node000001"><a xlink:href="classprt_1_1_error_event.html" target="_top" xlink:title=" ">
<polygon fill="white" stroke="#666666" points="196.25,-93.25 116.5,-93.25 116.5,-74 196.25,-74 196.25,-93.25"/>
<text text-anchor="middle" x="156.38" y="-79.75" font-family="Helvetica,sans-Serif" font-size="10.00">prt::ErrorEvent</text>
</a>
</g>
</g>
<!-- Node0&#45;&gt;Node1 -->
<g id="edge2_Node000000_Node000001" class="edge">
<title>Node0&#45;&gt;Node1</title>
<g id="a_edge2_Node000000_Node000001"><a xlink:title=" ">
<path fill="none" stroke="#63b8ff" d="M79.75,-60.04C94.03,-64.49 109.67,-69.37 123,-73.53"/>
<polygon fill="#63b8ff" stroke="#63b8ff" points="81.2,-56.82 70.61,-57.19 79.11,-63.5 81.2,-56.82"/>
</a>
</g>
</g>
<!-- Node2 -->
<g id="Node000002" class="node">
<title>Node2</title>
<g id="a_Node000002"><a xlink:href="classprt_1_1_post_tick_event.html" target="_top" xlink:title=" ">
<polygon fill="white" stroke="#666666" points="205.25,-56.25 107.5,-56.25 107.5,-37 205.25,-37 205.25,-56.25"/>
<text text-anchor="middle" x="156.38" y="-42.75" font-family="Helvetica,sans-Serif" font-size="10.00">prt::PostTickEvent</text>
</a>
</g>
</g>
<!-- Node0&#45;&gt;Node2 -->
<g id="edge3_Node000000_Node000002" class="edge">
<title>Node0&#45;&gt;Node2</title>
<g id="a_edge3_Node000000_Node000002"><a xlink:title=" ">
<path fill="none" stroke="#63b8ff" d="M82.97,-46.62C90.87,-46.62 99.1,-46.62 107.05,-46.62"/>
<polygon fill="#63b8ff" stroke="#63b8ff" points="83.21,-43.13 73.21,-46.63 83.21,-50.13 83.21,-43.13"/>
</a>
</g>
</g>
<!-- Node3 -->
<g id="Node000003" class="node">
<title>Node3</title>
<g id="a_Node000003"><a xlink:href="classprt_1_1_tick_event.html" target="_top" xlink:title=" ">
<polygon fill="white" stroke="#666666" points="195.12,-19.25 117.62,-19.25 117.62,0 195.12,0 195.12,-19.25"/>
<text text-anchor="middle" x="156.38" y="-5.75" font-family="Helvetica,sans-Serif" font-size="10.00">prt::TickEvent</text>
</a>
</g>
</g>
<!-- Node0&#45;&gt;Node3 -->
<g id="edge4_Node000000_Node000003" class="edge">
<title>Node0&#45;&gt;Node3</title>
<g id="a_edge4_Node000000_Node000003"><a xlink:title=" ">
<path fill="none" stroke="#63b8ff" d="M79.75,-33.21C94.03,-28.76 109.67,-23.88 123,-19.72"/>
<polygon fill="#63b8ff" stroke="#63b8ff" points="79.11,-29.75 70.61,-36.06 81.2,-36.43 79.11,-29.75"/>
</a>
</g>
</g>
</g>
</svg>
