<?xml version="1.0" encoding="UTF-8" standalone="no"?>
<!DOCTYPE svg PUBLIC "-//W3C//DTD SVG 1.1//EN"
 "http://www.w3.org/Graphics/SVG/1.1/DTD/svg11.dtd">
<!-- Generated by graphviz version 12.2.1 (20241206.2353)
 -->
<!-- Title: Graphical Class Hierarchy Pages: 1 -->
<svg width="179pt" height="101pt"
 viewBox="0.00 0.00 178.75 101.25" xmlns="http://www.w3.org/2000/svg" xmlns:xlink="http://www.w3.org/1999/xlink">
<g id="graph0" class="graph" transform="scale(1 1) rotate(0) translate(4 97.25)">
<title>Graphical Class Hierarchy</title>
<!-- Node0 -->
<g id="Node000000" class="node">
<title>Node0</title>
<g id="a_Node000000"><a xlink:href="classprt_1_1_gui.html" target="_top" xlink:title=" ">
<polygon fill="white" stroke="#666666" points="48.25,-56.25 0,-56.25 0,-37 48.25,-37 48.25,-56.25"/>
<text text-anchor="middle" x="24.12" y="-42.75" font-family="Helvetica,sans-Serif" font-size="10.00">prt::Gui</text>
</a>
</g>
</g>
<!-- Node1 -->
<g id="Node000001" class="node">
<title>Node1</title>
<g id="a_Node000001"><a xlink:href="classprt_1_1_gui_camera.html" target="_top" xlink:title=" ">
<polygon fill="white" stroke="#666666" points="168.88,-93.25 86.12,-93.25 86.12,-74 168.88,-74 168.88,-93.25"/>
<text text-anchor="middle" x="127.5" y="-79.75" font-family="Helvetica,sans-Serif" font-size="10.00">prt::GuiCamera</text>
</a>
</g>
</g>
<!-- Node0&#45;&gt;Node1 -->
<g id="edge72_Node000000_Node000001" class="edge">
<title>Node0&#45;&gt;Node1</title>
<g id="a_edge72_Node000000_Node000001"><a xlink:title=" ">
<path fill="none" stroke="#63b8ff" d="M59.41,-59.14C72.24,-63.82 86.64,-69.08 98.8,-73.51"/>
<polygon fill="#63b8ff" stroke="#63b8ff" points="60.65,-55.87 50.06,-55.73 58.25,-62.44 60.65,-55.87"/>
</a>
</g>
</g>
<!-- Node2 -->
<g id="Node000002" class="node">
<title>Node2</title>
<g id="a_Node000002"><a xlink:href="classprt_1_1_gui_debug.html" target="_top" xlink:title=" ">
<polygon fill="white" stroke="#666666" points="165.88,-56.25 89.12,-56.25 89.12,-37 165.88,-37 165.88,-56.25"/>
<text text-anchor="middle" x="127.5" y="-42.75" font-family="Helvetica,sans-Serif" font-size="10.00">prt::GuiDebug</text>
</a>
</g>
</g>
<!-- Node0&#45;&gt;Node2 -->
<g id="edge73_Node000000_Node000002" class="edge">
<title>Node0&#45;&gt;Node2</title>
<g id="a_edge73_Node000000_Node000002"><a xlink:title=" ">
<path fill="none" stroke="#63b8ff" d="M59.91,-46.62C69.23,-46.62 79.35,-46.62 88.82,-46.62"/>
<polygon fill="#63b8ff" stroke="#63b8ff" points="60.15,-43.13 50.15,-46.63 60.15,-50.13 60.15,-43.13"/>
</a>
</g>
</g>
<!-- Node3 -->
<g id="Node000003" class="node">
<title>Node3</title>
<g id="a_Node000003"><a xlink:href="classprt_1_1_gui_viewport.html" target="_top" xlink:title=" ">
<polygon fill="white" stroke="#666666" points="170.75,-19.25 84.25,-19.25 84.25,0 170.75,0 170.75,-19.25"/>
<text text-anchor="middle" x="127.5" y="-5.75" font-family="Helvetica,sans-Serif" font-size="10.00">prt::GuiViewport</text>
</a>
</g>
</g>
<!-- Node0&#45;&gt;Node3 -->
<g id="edge74_Node000000_Node000003" class="edge">
<title>Node0&#45;&gt;Node3</title>
<g id="a_edge74_Node000000_Node000003"><a xlink:title=" ">
<path fill="none" stroke="#63b8ff" d="M59.41,-34.11C72.24,-29.43 86.64,-24.17 98.8,-19.74"/>
<polygon fill="#63b8ff" stroke="#63b8ff" points="58.25,-30.81 50.06,-37.52 60.65,-37.38 58.25,-30.81"/>
</a>
</g>
</g>
</g>
</svg>
