<?xml version="1.0" encoding="UTF-8" standalone="no"?>
<!DOCTYPE svg PUBLIC "-//W3C//DTD SVG 1.1//EN"
 "http://www.w3.org/Graphics/SVG/1.1/DTD/svg11.dtd">
<!-- Generated by graphviz version 12.2.1 (20241206.2353)
 -->
<!-- Title: /Users/tazz/Projects/prette/Sources/prette/merkle.cc Pages: 1 -->
<svg width="1167pt" height="381pt"
 viewBox="0.00 0.00 1167.38 381.25" xmlns="http://www.w3.org/2000/svg" xmlns:xlink="http://www.w3.org/1999/xlink">
<g id="graph0" class="graph" transform="scale(1 1) rotate(0) translate(4 377.25)">
<title>/Users/tazz/Projects/prette/Sources/prette/merkle.cc</title>
<!-- Node1 -->
<g id="Node000001" class="node">
<title>Node1</title>
<g id="a_Node000001"><a xlink:title=" ">
<polygon fill="#999999" stroke="#666666" points="686.12,-373.25 575.62,-373.25 575.62,-331.5 686.12,-331.5 686.12,-373.25"/>
<text text-anchor="start" x="583.62" y="-359.75" font-family="Helvetica,sans-Serif" font-size="10.00">/Users/tazz/Projects</text>
<text text-anchor="start" x="583.62" y="-348.5" font-family="Helvetica,sans-Serif" font-size="10.00">/prette/Sources/prette</text>
<text text-anchor="middle" x="630.88" y="-337.25" font-family="Helvetica,sans-Serif" font-size="10.00">/merkle.cc</text>
</a>
</g>
</g>
<!-- Node2 -->
<g id="Node000002" class="node">
<title>Node2</title>
<g id="a_Node000002"><a xlink:href="merkle_8h.html" target="_top" xlink:title=" ">
<polygon fill="white" stroke="#666666" points="671.5,-295.5 590.25,-295.5 590.25,-276.25 671.5,-276.25 671.5,-295.5"/>
<text text-anchor="middle" x="630.88" y="-282" font-family="Helvetica,sans-Serif" font-size="10.00">prette/merkle.h</text>
</a>
</g>
</g>
<!-- Node1&#45;&gt;Node2 -->
<g id="edge1_Node000001_Node000002" class="edge">
<title>Node1&#45;&gt;Node2</title>
<g id="a_edge1_Node000001_Node000002"><a xlink:title=" ">
<path fill="none" stroke="#63b8ff" d="M630.88,-331.32C630.88,-323.65 630.88,-314.89 630.88,-307.2"/>
<polygon fill="#63b8ff" stroke="#63b8ff" points="634.38,-307.46 630.88,-297.46 627.38,-307.46 634.38,-307.46"/>
</a>
</g>
</g>
<!-- Node3 -->
<g id="Node000003" class="node">
<title>Node3</title>
<g id="a_Node000003"><a xlink:title=" ">
<polygon fill="#e0e0e0" stroke="#999999" points="518.5,-240.25 467.25,-240.25 467.25,-221 518.5,-221 518.5,-240.25"/>
<text text-anchor="middle" x="492.88" y="-226.75" font-family="Helvetica,sans-Serif" font-size="10.00">ostream</text>
</a>
</g>
</g>
<!-- Node2&#45;&gt;Node3 -->
<g id="edge2_Node000002_Node000003" class="edge">
<title>Node2&#45;&gt;Node3</title>
<g id="a_edge2_Node000002_Node000003"><a xlink:title=" ">
<path fill="none" stroke="#63b8ff" d="M607.47,-275.84C585.36,-267.31 551.96,-254.42 526.91,-244.76"/>
<polygon fill="#63b8ff" stroke="#63b8ff" points="528.4,-241.58 517.81,-241.25 525.88,-248.11 528.4,-241.58"/>
</a>
</g>
</g>
<!-- Node4 -->
<g id="Node000004" class="node">
<title>Node4</title>
<g id="a_Node000004"><a xlink:title=" ">
<polygon fill="#e0e0e0" stroke="#999999" points="321.88,-74.5 281.88,-74.5 281.88,-55.25 321.88,-55.25 321.88,-74.5"/>
<text text-anchor="middle" x="301.88" y="-61" font-family="Helvetica,sans-Serif" font-size="10.00">string</text>
</a>
</g>
</g>
<!-- Node2&#45;&gt;Node4 -->
<g id="edge3_Node000002_Node000004" class="edge">
<title>Node2&#45;&gt;Node4</title>
<g id="a_edge3_Node000002_Node000004"><a xlink:title=" ">
<path fill="none" stroke="#63b8ff" d="M617.57,-276.02C567.35,-242.59 388.92,-123.82 324.93,-81.22"/>
<polygon fill="#63b8ff" stroke="#63b8ff" points="326.87,-78.31 316.61,-75.68 322.99,-84.13 326.87,-78.31"/>
</a>
</g>
</g>
<!-- Node5 -->
<g id="Node000005" class="node">
<title>Node5</title>
<g id="a_Node000005"><a xlink:title=" ">
<polygon fill="#e0e0e0" stroke="#999999" points="1159.38,-74.5 1116.38,-74.5 1116.38,-55.25 1159.38,-55.25 1159.38,-74.5"/>
<text text-anchor="middle" x="1137.88" y="-61" font-family="Helvetica,sans-Serif" font-size="10.00">vector</text>
</a>
</g>
</g>
<!-- Node2&#45;&gt;Node5 -->
<g id="edge4_Node000002_Node000005" class="edge">
<title>Node2&#45;&gt;Node5</title>
<g id="a_edge4_Node000002_Node000005"><a xlink:title=" ">
<path fill="none" stroke="#63b8ff" d="M671.97,-277.61C741.82,-264.43 887.39,-233.4 1002.88,-185 1047.57,-166.27 1061.94,-163.34 1096.88,-129.75 1110.38,-116.76 1121.53,-98.5 1128.78,-84.82"/>
<polygon fill="#63b8ff" stroke="#63b8ff" points="1131.86,-86.49 1133.23,-75.99 1125.61,-83.34 1131.86,-86.49"/>
</a>
</g>
</g>
<!-- Node6 -->
<g id="Node000006" class="node">
<title>Node6</title>
<g id="a_Node000006"><a xlink:href="sha256_8h.html" target="_top" xlink:title=" ">
<polygon fill="white" stroke="#666666" points="715.62,-240.25 632.12,-240.25 632.12,-221 715.62,-221 715.62,-240.25"/>
<text text-anchor="middle" x="673.88" y="-226.75" font-family="Helvetica,sans-Serif" font-size="10.00">prette/sha256.h</text>
</a>
</g>
</g>
<!-- Node2&#45;&gt;Node6 -->
<g id="edge5_Node000002_Node000006" class="edge">
<title>Node2&#45;&gt;Node6</title>
<g id="a_edge5_Node000002_Node000006"><a xlink:title=" ">
<path fill="none" stroke="#63b8ff" d="M637.98,-276.08C643.79,-268.88 652.21,-258.46 659.43,-249.51"/>
<polygon fill="#63b8ff" stroke="#63b8ff" points="662.11,-251.77 665.67,-241.79 656.66,-247.37 662.11,-251.77"/>
</a>
</g>
</g>
<!-- Node7 -->
<g id="Node000007" class="node">
<title>Node7</title>
<g id="a_Node000007"><a xlink:title=" ">
<polygon fill="#e0e0e0" stroke="#999999" points="307.5,-19.25 262.25,-19.25 262.25,0 307.5,0 307.5,-19.25"/>
<text text-anchor="middle" x="284.88" y="-5.75" font-family="Helvetica,sans-Serif" font-size="10.00">cstdint</text>
</a>
</g>
</g>
<!-- Node6&#45;&gt;Node7 -->
<g id="edge6_Node000006_Node000007" class="edge">
<title>Node6&#45;&gt;Node7</title>
<g id="a_edge6_Node000006_Node000007"><a xlink:title=" ">
<path fill="none" stroke="#63b8ff" d="M715.83,-226.06C837.92,-214.23 1177.62,-170.36 1068.88,-55.25 1042.78,-27.63 467.34,-14.27 319.34,-11.28"/>
<polygon fill="#63b8ff" stroke="#63b8ff" points="319.47,-7.78 309.4,-11.08 319.33,-14.78 319.47,-7.78"/>
</a>
</g>
</g>
<!-- Node8 -->
<g id="Node000008" class="node">
<title>Node8</title>
<g id="a_Node000008"><a xlink:title=" ">
<polygon fill="#e0e0e0" stroke="#999999" points="754.25,-185 677.5,-185 677.5,-165.75 754.25,-165.75 754.25,-185"/>
<text text-anchor="middle" x="715.88" y="-171.5" font-family="Helvetica,sans-Serif" font-size="10.00">openssl/sha.h</text>
</a>
</g>
</g>
<!-- Node6&#45;&gt;Node8 -->
<g id="edge7_Node000006_Node000008" class="edge">
<title>Node6&#45;&gt;Node8</title>
<g id="a_edge7_Node000006_Node000008"><a xlink:title=" ">
<path fill="none" stroke="#63b8ff" d="M680.81,-220.83C686.49,-213.63 694.71,-203.21 701.77,-194.26"/>
<polygon fill="#63b8ff" stroke="#63b8ff" points="704.41,-196.57 707.85,-186.55 698.91,-192.23 704.41,-196.57"/>
</a>
</g>
</g>
<!-- Node9 -->
<g id="Node000009" class="node">
<title>Node9</title>
<g id="a_Node000009"><a xlink:href="uint256_8h.html" target="_top" xlink:title=" ">
<polygon fill="white" stroke="#666666" points="659.62,-185 576.12,-185 576.12,-165.75 659.62,-165.75 659.62,-185"/>
<text text-anchor="middle" x="617.88" y="-171.5" font-family="Helvetica,sans-Serif" font-size="10.00">prette/uint256.h</text>
</a>
</g>
</g>
<!-- Node6&#45;&gt;Node9 -->
<g id="edge8_Node000006_Node000009" class="edge">
<title>Node6&#45;&gt;Node9</title>
<g id="a_edge8_Node000006_Node000009"><a xlink:title=" ">
<path fill="none" stroke="#63b8ff" d="M664.38,-220.59C656.44,-213.05 644.93,-202.1 635.34,-192.98"/>
<polygon fill="#63b8ff" stroke="#63b8ff" points="637.99,-190.67 628.33,-186.32 633.17,-195.74 637.99,-190.67"/>
</a>
</g>
</g>
<!-- Node10 -->
<g id="Node000010" class="node">
<title>Node10</title>
<g id="a_Node000010"><a xlink:href="big__number_8h.html" target="_top" xlink:title=" ">
<polygon fill="white" stroke="#666666" points="234.62,-129.75 133.12,-129.75 133.12,-110.5 234.62,-110.5 234.62,-129.75"/>
<text text-anchor="middle" x="183.88" y="-116.25" font-family="Helvetica,sans-Serif" font-size="10.00">prette/big_number.h</text>
</a>
</g>
</g>
<!-- Node9&#45;&gt;Node10 -->
<g id="edge9_Node000009_Node000010" class="edge">
<title>Node9&#45;&gt;Node10</title>
<g id="a_edge9_Node000009_Node000010"><a xlink:title=" ">
<path fill="none" stroke="#63b8ff" d="M575.87,-169.22C499.14,-159.81 335.98,-139.79 246.24,-128.78"/>
<polygon fill="#63b8ff" stroke="#63b8ff" points="246.73,-125.31 236.38,-127.57 245.88,-132.26 246.73,-125.31"/>
</a>
</g>
</g>
<!-- Node14 -->
<g id="Node000014" class="node">
<title>Node14</title>
<g id="a_Node000014"><a xlink:href="common_8h.html" target="_top" xlink:title=" ">
<polygon fill="white" stroke="#666666" points="664.62,-129.75 575.12,-129.75 575.12,-110.5 664.62,-110.5 664.62,-129.75"/>
<text text-anchor="middle" x="619.88" y="-116.25" font-family="Helvetica,sans-Serif" font-size="10.00">prette/common.h</text>
</a>
</g>
</g>
<!-- Node9&#45;&gt;Node14 -->
<g id="edge16_Node000009_Node000014" class="edge">
<title>Node9&#45;&gt;Node14</title>
<g id="a_edge16_Node000009_Node000014"><a xlink:title=" ">
<path fill="none" stroke="#63b8ff" d="M618.21,-165.58C618.45,-158.99 618.8,-149.71 619.12,-141.32"/>
<polygon fill="#63b8ff" stroke="#63b8ff" points="622.6,-141.75 619.48,-131.62 615.61,-141.48 622.6,-141.75"/>
</a>
</g>
</g>
<!-- Node10&#45;&gt;Node4 -->
<g id="edge13_Node000010_Node000004" class="edge">
<title>Node10&#45;&gt;Node4</title>
<g id="a_edge13_Node000010_Node000004"><a xlink:title=" ">
<path fill="none" stroke="#63b8ff" d="M203.89,-110.09C222.37,-101.75 250.08,-89.25 271.32,-79.66"/>
<polygon fill="#63b8ff" stroke="#63b8ff" points="272.7,-82.88 280.38,-75.58 269.83,-76.5 272.7,-82.88"/>
</a>
</g>
</g>
<!-- Node10&#45;&gt;Node7 -->
<g id="edge10_Node000010_Node000007" class="edge">
<title>Node10&#45;&gt;Node7</title>
<g id="a_edge10_Node000010_Node000007"><a xlink:title=" ">
<path fill="none" stroke="#63b8ff" d="M177.17,-110.07C168.31,-96.92 155.13,-72.24 166.88,-55.25 185.61,-28.13 223.1,-17.47 250.82,-13.3"/>
<polygon fill="#63b8ff" stroke="#63b8ff" points="251.03,-16.8 260.51,-12.07 250.15,-9.85 251.03,-16.8"/>
</a>
</g>
</g>
<!-- Node11 -->
<g id="Node000011" class="node">
<title>Node11</title>
<g id="a_Node000011"><a xlink:title=" ">
<polygon fill="#e0e0e0" stroke="#999999" points="49.75,-74.5 0,-74.5 0,-55.25 49.75,-55.25 49.75,-74.5"/>
<text text-anchor="middle" x="24.88" y="-61" font-family="Helvetica,sans-Serif" font-size="10.00">iomanip</text>
</a>
</g>
</g>
<!-- Node10&#45;&gt;Node11 -->
<g id="edge11_Node000010_Node000011" class="edge">
<title>Node10&#45;&gt;Node11</title>
<g id="a_edge11_Node000010_Node000011"><a xlink:title=" ">
<path fill="none" stroke="#63b8ff" d="M156.9,-110.09C130.43,-101.22 89.88,-87.65 60.71,-77.88"/>
<polygon fill="#63b8ff" stroke="#63b8ff" points="62.17,-74.67 51.57,-74.82 59.95,-81.31 62.17,-74.67"/>
</a>
</g>
</g>
<!-- Node12 -->
<g id="Node000012" class="node">
<title>Node12</title>
<g id="a_Node000012"><a xlink:title=" ">
<polygon fill="#e0e0e0" stroke="#999999" points="119.5,-74.5 68.25,-74.5 68.25,-55.25 119.5,-55.25 119.5,-74.5"/>
<text text-anchor="middle" x="93.88" y="-61" font-family="Helvetica,sans-Serif" font-size="10.00">sstream</text>
</a>
</g>
</g>
<!-- Node10&#45;&gt;Node12 -->
<g id="edge12_Node000010_Node000012" class="edge">
<title>Node10&#45;&gt;Node12</title>
<g id="a_edge12_Node000010_Node000012"><a xlink:title=" ">
<path fill="none" stroke="#63b8ff" d="M168.61,-110.09C155.03,-102.06 134.92,-90.16 118.98,-80.73"/>
<polygon fill="#63b8ff" stroke="#63b8ff" points="120.91,-77.8 110.52,-75.72 117.34,-83.83 120.91,-77.8"/>
</a>
</g>
</g>
<!-- Node13 -->
<g id="Node000013" class="node">
<title>Node13</title>
<g id="a_Node000013"><a xlink:href="platform_8h.html" target="_top" xlink:title=" ">
<polygon fill="white" stroke="#666666" points="263.5,-74.5 176.25,-74.5 176.25,-55.25 263.5,-55.25 263.5,-74.5"/>
<text text-anchor="middle" x="219.88" y="-61" font-family="Helvetica,sans-Serif" font-size="10.00">prette/platform.h</text>
</a>
</g>
</g>
<!-- Node10&#45;&gt;Node13 -->
<g id="edge14_Node000010_Node000013" class="edge">
<title>Node10&#45;&gt;Node13</title>
<g id="a_edge14_Node000010_Node000013"><a xlink:title=" ">
<path fill="none" stroke="#63b8ff" d="M189.82,-110.33C194.59,-103.28 201.44,-93.15 207.4,-84.33"/>
<polygon fill="#63b8ff" stroke="#63b8ff" points="210.25,-86.36 212.95,-76.11 204.45,-82.44 210.25,-86.36"/>
</a>
</g>
</g>
<!-- Node13&#45;&gt;Node7 -->
<g id="edge15_Node000013_Node000007" class="edge">
<title>Node13&#45;&gt;Node7</title>
<g id="a_edge15_Node000013_Node000007"><a xlink:title=" ">
<path fill="none" stroke="#63b8ff" d="M230.9,-54.84C240.3,-47.15 254.02,-35.9 265.28,-26.68"/>
<polygon fill="#63b8ff" stroke="#63b8ff" points="267.32,-29.53 272.84,-20.48 262.89,-24.11 267.32,-29.53"/>
</a>
</g>
</g>
<!-- Node14&#45;&gt;Node4 -->
<g id="edge28_Node000014_Node000004" class="edge">
<title>Node14&#45;&gt;Node4</title>
<g id="a_edge28_Node000014_Node000004"><a xlink:title=" ">
<path fill="none" stroke="#63b8ff" d="M574.68,-112.26C500.49,-100.95 358.79,-79.2 335.88,-74.5 335.05,-74.33 334.21,-74.15 333.36,-73.97"/>
<polygon fill="#63b8ff" stroke="#63b8ff" points="334.31,-70.6 323.77,-71.73 332.71,-77.41 334.31,-70.6"/>
</a>
</g>
</g>
<!-- Node14&#45;&gt;Node5 -->
<g id="edge29_Node000014_Node000005" class="edge">
<title>Node14&#45;&gt;Node5</title>
<g id="a_edge29_Node000014_Node000005"><a xlink:title=" ">
<path fill="none" stroke="#63b8ff" d="M664.84,-115.04C745.74,-107.59 921.16,-91.07 1068.88,-74.5 1080.63,-73.18 1093.49,-71.61 1104.89,-70.17"/>
<polygon fill="#63b8ff" stroke="#63b8ff" points="1105.16,-73.66 1114.64,-68.93 1104.27,-66.72 1105.16,-73.66"/>
</a>
</g>
</g>
<!-- Node14&#45;&gt;Node7 -->
<g id="edge22_Node000014_Node000007" class="edge">
<title>Node14&#45;&gt;Node7</title>
<g id="a_edge22_Node000014_Node000007"><a xlink:title=" ">
<path fill="none" stroke="#63b8ff" d="M574.81,-112.29C507.71,-101.94 387.42,-82.63 368.88,-74.5 343.07,-63.19 317.95,-42.41 302.01,-27.63"/>
<polygon fill="#63b8ff" stroke="#63b8ff" points="304.49,-25.15 294.84,-20.78 299.65,-30.22 304.49,-25.15"/>
</a>
</g>
</g>
<!-- Node14&#45;&gt;Node13 -->
<g id="edge30_Node000014_Node000013" class="edge">
<title>Node14&#45;&gt;Node13</title>
<g id="a_edge30_Node000014_Node000013"><a xlink:title=" ">
<path fill="none" stroke="#63b8ff" d="M574.89,-113.83C510.8,-106.17 389.22,-91.26 275.18,-74.79"/>
<polygon fill="#63b8ff" stroke="#63b8ff" points="275.71,-71.33 265.32,-73.36 274.71,-78.26 275.71,-71.33"/>
</a>
</g>
</g>
<!-- Node15 -->
<g id="Node000015" class="node">
<title>Node15</title>
<g id="a_Node000015"><a xlink:title=" ">
<polygon fill="#e0e0e0" stroke="#999999" points="995.88,-74.5 919.88,-74.5 919.88,-55.25 995.88,-55.25 995.88,-74.5"/>
<text text-anchor="middle" x="957.88" y="-61" font-family="Helvetica,sans-Serif" font-size="10.00">glog/logging.h</text>
</a>
</g>
</g>
<!-- Node14&#45;&gt;Node15 -->
<g id="edge17_Node000014_Node000015" class="edge">
<title>Node14&#45;&gt;Node15</title>
<g id="a_edge17_Node000014_Node000015"><a xlink:title=" ">
<path fill="none" stroke="#63b8ff" d="M664.81,-112.65C719.8,-104.64 816.04,-90.32 908.2,-74.91"/>
<polygon fill="#63b8ff" stroke="#63b8ff" points="908.64,-78.39 917.92,-73.28 907.48,-71.48 908.64,-78.39"/>
</a>
</g>
</g>
<!-- Node16 -->
<g id="Node000016" class="node">
<title>Node16</title>
<g id="a_Node000016"><a xlink:title=" ">
<polygon fill="#e0e0e0" stroke="#999999" points="1059.5,-74.5 1014.25,-74.5 1014.25,-55.25 1059.5,-55.25 1059.5,-74.5"/>
<text text-anchor="middle" x="1036.88" y="-61" font-family="Helvetica,sans-Serif" font-size="10.00">units.h</text>
</a>
</g>
</g>
<!-- Node14&#45;&gt;Node16 -->
<g id="edge18_Node000014_Node000016" class="edge">
<title>Node14&#45;&gt;Node16</title>
<g id="a_edge18_Node000014_Node000016"><a xlink:title=" ">
<path fill="none" stroke="#63b8ff" d="M664.96,-116.07C735.14,-110.85 874.91,-98.56 1002.75,-74.63"/>
<polygon fill="#63b8ff" stroke="#63b8ff" points="1003.24,-78.1 1012.41,-72.79 1001.93,-71.22 1003.24,-78.1"/>
</a>
</g>
</g>
<!-- Node17 -->
<g id="Node000017" class="node">
<title>Node17</title>
<g id="a_Node000017"><a xlink:title=" ">
<polygon fill="#e0e0e0" stroke="#999999" points="420,-74.5 377.75,-74.5 377.75,-55.25 420,-55.25 420,-74.5"/>
<text text-anchor="middle" x="398.88" y="-61" font-family="Helvetica,sans-Serif" font-size="10.00">uuid.h</text>
</a>
</g>
</g>
<!-- Node14&#45;&gt;Node17 -->
<g id="edge19_Node000014_Node000017" class="edge">
<title>Node14&#45;&gt;Node17</title>
<g id="a_edge19_Node000014_Node000017"><a xlink:title=" ">
<path fill="none" stroke="#63b8ff" d="M578.37,-110.06C541.93,-101.96 487.24,-89.47 431.3,-75.04"/>
<polygon fill="#63b8ff" stroke="#63b8ff" points="432.49,-71.73 421.93,-72.6 430.73,-78.51 432.49,-71.73"/>
</a>
</g>
</g>
<!-- Node18 -->
<g id="Node000018" class="node">
<title>Node18</title>
<g id="a_Node000018"><a xlink:title=" ">
<polygon fill="#e0e0e0" stroke="#999999" points="471.5,-74.5 438.25,-74.5 438.25,-55.25 471.5,-55.25 471.5,-74.5"/>
<text text-anchor="middle" x="454.88" y="-61" font-family="Helvetica,sans-Serif" font-size="10.00">uv.h</text>
</a>
</g>
</g>
<!-- Node14&#45;&gt;Node18 -->
<g id="edge20_Node000014_Node000018" class="edge">
<title>Node14&#45;&gt;Node18</title>
<g id="a_edge20_Node000014_Node000018"><a xlink:title=" ">
<path fill="none" stroke="#63b8ff" d="M591.36,-110.06C565.39,-101.78 525.7,-89.09 482.64,-75.06"/>
<polygon fill="#63b8ff" stroke="#63b8ff" points="483.96,-71.8 473.37,-72.03 481.79,-78.46 483.96,-71.8"/>
</a>
</g>
</g>
<!-- Node19 -->
<g id="Node000019" class="node">
<title>Node19</title>
<g id="a_Node000019"><a xlink:title=" ">
<polygon fill="#e0e0e0" stroke="#999999" points="545.75,-74.5 490,-74.5 490,-55.25 545.75,-55.25 545.75,-74.5"/>
<text text-anchor="middle" x="517.88" y="-61" font-family="Helvetica,sans-Serif" font-size="10.00">algorithm</text>
</a>
</g>
</g>
<!-- Node14&#45;&gt;Node19 -->
<g id="edge21_Node000014_Node000019" class="edge">
<title>Node14&#45;&gt;Node19</title>
<g id="a_edge21_Node000014_Node000019"><a xlink:title=" ">
<path fill="none" stroke="#63b8ff" d="M602.57,-110.09C586.89,-101.91 563.52,-89.71 545.3,-80.19"/>
<polygon fill="#63b8ff" stroke="#63b8ff" points="547.09,-77.18 536.6,-75.65 543.85,-83.38 547.09,-77.18"/>
</a>
</g>
</g>
<!-- Node20 -->
<g id="Node000020" class="node">
<title>Node20</title>
<g id="a_Node000020"><a xlink:title=" ">
<polygon fill="#e0e0e0" stroke="#999999" points="606,-74.5 563.75,-74.5 563.75,-55.25 606,-55.25 606,-74.5"/>
<text text-anchor="middle" x="584.88" y="-61" font-family="Helvetica,sans-Serif" font-size="10.00">cstdio</text>
</a>
</g>
</g>
<!-- Node14&#45;&gt;Node20 -->
<g id="edge23_Node000014_Node000020" class="edge">
<title>Node14&#45;&gt;Node20</title>
<g id="a_edge23_Node000014_Node000020"><a xlink:title=" ">
<path fill="none" stroke="#63b8ff" d="M614.1,-110.33C609.46,-103.28 602.8,-93.15 597.01,-84.33"/>
<polygon fill="#63b8ff" stroke="#63b8ff" points="600.03,-82.56 591.61,-76.12 594.18,-86.4 600.03,-82.56"/>
</a>
</g>
</g>
<!-- Node21 -->
<g id="Node000021" class="node">
<title>Node21</title>
<g id="a_Node000021"><a xlink:title=" ">
<polygon fill="#e0e0e0" stroke="#999999" points="685.38,-74.5 624.38,-74.5 624.38,-55.25 685.38,-55.25 685.38,-74.5"/>
<text text-anchor="middle" x="654.88" y="-61" font-family="Helvetica,sans-Serif" font-size="10.00">filesystem</text>
</a>
</g>
</g>
<!-- Node14&#45;&gt;Node21 -->
<g id="edge24_Node000014_Node000021" class="edge">
<title>Node14&#45;&gt;Node21</title>
<g id="a_edge24_Node000014_Node000021"><a xlink:title=" ">
<path fill="none" stroke="#63b8ff" d="M625.65,-110.33C630.29,-103.28 636.95,-93.15 642.74,-84.33"/>
<polygon fill="#63b8ff" stroke="#63b8ff" points="645.57,-86.4 648.14,-76.12 639.72,-82.56 645.57,-86.4"/>
</a>
</g>
</g>
<!-- Node22 -->
<g id="Node000022" class="node">
<title>Node22</title>
<g id="a_Node000022"><a xlink:title=" ">
<polygon fill="#e0e0e0" stroke="#999999" points="761.88,-74.5 703.88,-74.5 703.88,-55.25 761.88,-55.25 761.88,-74.5"/>
<text text-anchor="middle" x="732.88" y="-61" font-family="Helvetica,sans-Serif" font-size="10.00">functional</text>
</a>
</g>
</g>
<!-- Node14&#45;&gt;Node22 -->
<g id="edge25_Node000014_Node000022" class="edge">
<title>Node14&#45;&gt;Node22</title>
<g id="a_edge25_Node000014_Node000022"><a xlink:title=" ">
<path fill="none" stroke="#63b8ff" d="M639.04,-110.09C656.66,-101.79 683.03,-89.36 703.34,-79.79"/>
<polygon fill="#63b8ff" stroke="#63b8ff" points="704.69,-83.03 712.24,-75.6 701.7,-76.69 704.69,-83.03"/>
</a>
</g>
</g>
<!-- Node23 -->
<g id="Node000023" class="node">
<title>Node23</title>
<g id="a_Node000023"><a xlink:title=" ">
<polygon fill="#e0e0e0" stroke="#999999" points="833.62,-74.5 780.12,-74.5 780.12,-55.25 833.62,-55.25 833.62,-74.5"/>
<text text-anchor="middle" x="806.88" y="-61" font-family="Helvetica,sans-Serif" font-size="10.00">iostream</text>
</a>
</g>
</g>
<!-- Node14&#45;&gt;Node23 -->
<g id="edge26_Node000014_Node000023" class="edge">
<title>Node14&#45;&gt;Node23</title>
<g id="a_edge26_Node000014_Node000023"><a xlink:title=" ">
<path fill="none" stroke="#63b8ff" d="M651.6,-110.09C683.99,-100.87 734.29,-86.54 768.81,-76.71"/>
<polygon fill="#63b8ff" stroke="#63b8ff" points="769.75,-80.09 778.41,-73.98 767.83,-73.35 769.75,-80.09"/>
</a>
</g>
</g>
<!-- Node24 -->
<g id="Node000024" class="node">
<title>Node24</title>
<g id="a_Node000024"><a xlink:title=" ">
<polygon fill="#e0e0e0" stroke="#999999" points="901.75,-74.5 852,-74.5 852,-55.25 901.75,-55.25 901.75,-74.5"/>
<text text-anchor="middle" x="876.88" y="-61" font-family="Helvetica,sans-Serif" font-size="10.00">optional</text>
</a>
</g>
</g>
<!-- Node14&#45;&gt;Node24 -->
<g id="edge27_Node000014_Node000024" class="edge">
<title>Node14&#45;&gt;Node24</title>
<g id="a_edge27_Node000014_Node000024"><a xlink:title=" ">
<path fill="none" stroke="#63b8ff" d="M664.87,-110.82C707.63,-102.77 774,-89.88 840.55,-74.94"/>
<polygon fill="#63b8ff" stroke="#63b8ff" points="841.2,-78.38 850.18,-72.76 839.66,-71.55 841.2,-78.38"/>
</a>
</g>
</g>
</g>
</svg>
