<?xml version="1.0" encoding="UTF-8" standalone="no"?>
<!DOCTYPE svg PUBLIC "-//W3C//DTD SVG 1.1//EN"
 "http://www.w3.org/Graphics/SVG/1.1/DTD/svg11.dtd">
<!-- Generated by graphviz version 12.2.1 (20241206.2353)
 -->
<!-- Title: /Users/tazz/Projects/prette/Sources/prette/parser.h Pages: 1 -->
<svg width="972pt" height="216pt"
 viewBox="0.00 0.00 972.25 215.50" xmlns="http://www.w3.org/2000/svg" xmlns:xlink="http://www.w3.org/1999/xlink">
<g id="graph0" class="graph" transform="scale(1 1) rotate(0) translate(4 211.5)">
<title>/Users/tazz/Projects/prette/Sources/prette/parser.h</title>
<!-- Node1 -->
<g id="Node000001" class="node">
<title>Node1</title>
<g id="a_Node000001"><a xlink:title=" ">
<polygon fill="#999999" stroke="#666666" points="139.88,-207.5 29.38,-207.5 29.38,-165.75 139.88,-165.75 139.88,-207.5"/>
<text text-anchor="start" x="37.38" y="-194" font-family="Helvetica,sans-Serif" font-size="10.00">/Users/tazz/Projects</text>
<text text-anchor="start" x="37.38" y="-182.75" font-family="Helvetica,sans-Serif" font-size="10.00">/prette/Sources/prette</text>
<text text-anchor="middle" x="84.63" y="-171.5" font-family="Helvetica,sans-Serif" font-size="10.00">/parser.h</text>
</a>
</g>
</g>
<!-- Node2 -->
<g id="Node000002" class="node">
<title>Node2</title>
<g id="a_Node000002"><a xlink:title=" ">
<polygon fill="#e0e0e0" stroke="#999999" points="95.63,-74.5 19.63,-74.5 19.63,-55.25 95.63,-55.25 95.63,-74.5"/>
<text text-anchor="middle" x="57.63" y="-61" font-family="Helvetica,sans-Serif" font-size="10.00">glog/logging.h</text>
</a>
</g>
</g>
<!-- Node1&#45;&gt;Node2 -->
<g id="edge1_Node000001_Node000002" class="edge">
<title>Node1&#45;&gt;Node2</title>
<g id="a_edge1_Node000001_Node000002"><a xlink:title=" ">
<path fill="none" stroke="#63b8ff" d="M80.05,-165.31C75.04,-143.12 67.08,-107.8 62.11,-85.77"/>
<polygon fill="#63b8ff" stroke="#63b8ff" points="65.59,-85.27 59.97,-76.28 58.76,-86.81 65.59,-85.27"/>
</a>
</g>
</g>
<!-- Node3 -->
<g id="Node000003" class="node">
<title>Node3</title>
<g id="a_Node000003"><a xlink:title=" ">
<polygon fill="#e0e0e0" stroke="#999999" points="841.25,-19.25 796,-19.25 796,0 841.25,0 841.25,-19.25"/>
<text text-anchor="middle" x="818.63" y="-5.75" font-family="Helvetica,sans-Serif" font-size="10.00">cstdint</text>
</a>
</g>
</g>
<!-- Node1&#45;&gt;Node3 -->
<g id="edge2_Node000001_Node000003" class="edge">
<title>Node1&#45;&gt;Node3</title>
<g id="a_edge2_Node000001_Node000003"><a xlink:title=" ">
<path fill="none" stroke="#63b8ff" d="M58.51,-165.37C26.19,-137.95 -20.95,-88.62 10.63,-55.25 37.63,-26.72 634.37,-13.98 784.56,-11.21"/>
<polygon fill="#63b8ff" stroke="#63b8ff" points="784.31,-14.72 794.24,-11.04 784.18,-7.72 784.31,-14.72"/>
</a>
</g>
</g>
<!-- Node4 -->
<g id="Node000004" class="node">
<title>Node4</title>
<g id="a_Node000004"><a xlink:title=" ">
<polygon fill="#e0e0e0" stroke="#999999" points="137.25,-129.75 86,-129.75 86,-110.5 137.25,-110.5 137.25,-129.75"/>
<text text-anchor="middle" x="111.63" y="-116.25" font-family="Helvetica,sans-Serif" font-size="10.00">ostream</text>
</a>
</g>
</g>
<!-- Node1&#45;&gt;Node4 -->
<g id="edge3_Node000001_Node000004" class="edge">
<title>Node1&#45;&gt;Node4</title>
<g id="a_edge3_Node000001_Node000004"><a xlink:title=" ">
<path fill="none" stroke="#63b8ff" d="M93.02,-165.57C96.35,-157.62 100.16,-148.51 103.47,-140.61"/>
<polygon fill="#63b8ff" stroke="#63b8ff" points="106.61,-142.17 107.24,-131.59 100.15,-139.46 106.61,-142.17"/>
</a>
</g>
</g>
<!-- Node5 -->
<g id="Node000005" class="node">
<title>Node5</title>
<g id="a_Node000005"><a xlink:href="common_8h.html" target="_top" xlink:title=" ">
<polygon fill="white" stroke="#666666" points="513.38,-129.75 423.88,-129.75 423.88,-110.5 513.38,-110.5 513.38,-129.75"/>
<text text-anchor="middle" x="468.63" y="-116.25" font-family="Helvetica,sans-Serif" font-size="10.00">prette/common.h</text>
</a>
</g>
</g>
<!-- Node1&#45;&gt;Node5 -->
<g id="edge4_Node000001_Node000005" class="edge">
<title>Node1&#45;&gt;Node5</title>
<g id="a_edge4_Node000001_Node000005"><a xlink:title=" ">
<path fill="none" stroke="#63b8ff" d="M140.05,-176.32C212.6,-164.13 339.1,-142.88 412.16,-130.61"/>
<polygon fill="#63b8ff" stroke="#63b8ff" points="412.64,-134.08 421.92,-128.97 411.48,-127.18 412.64,-134.08"/>
</a>
</g>
</g>
<!-- Node5&#45;&gt;Node2 -->
<g id="edge5_Node000005_Node000002" class="edge">
<title>Node5&#45;&gt;Node2</title>
<g id="a_edge5_Node000005_Node000002"><a xlink:title=" ">
<path fill="none" stroke="#63b8ff" d="M423.39,-114.45C356.54,-107.36 227.15,-92.9 107.27,-74.83"/>
<polygon fill="#63b8ff" stroke="#63b8ff" points="107.98,-71.39 97.56,-73.35 106.92,-78.31 107.98,-71.39"/>
</a>
</g>
</g>
<!-- Node5&#45;&gt;Node3 -->
<g id="edge10_Node000005_Node000003" class="edge">
<title>Node5&#45;&gt;Node3</title>
<g id="a_edge10_Node000005_Node000003"><a xlink:title=" ">
<path fill="none" stroke="#63b8ff" d="M513.54,-117.46C613.63,-113.3 848.06,-100.82 871.63,-74.5 886.18,-58.24 864.98,-38.87 845.22,-25.76"/>
<polygon fill="#63b8ff" stroke="#63b8ff" points="847.13,-22.82 836.8,-20.49 843.42,-28.76 847.13,-22.82"/>
</a>
</g>
</g>
<!-- Node6 -->
<g id="Node000006" class="node">
<title>Node6</title>
<g id="a_Node000006"><a xlink:title=" ">
<polygon fill="#e0e0e0" stroke="#999999" points="964.25,-74.5 919,-74.5 919,-55.25 964.25,-55.25 964.25,-74.5"/>
<text text-anchor="middle" x="941.63" y="-61" font-family="Helvetica,sans-Serif" font-size="10.00">units.h</text>
</a>
</g>
</g>
<!-- Node5&#45;&gt;Node6 -->
<g id="edge6_Node000005_Node000006" class="edge">
<title>Node5&#45;&gt;Node6</title>
<g id="a_edge6_Node000005_Node000006"><a xlink:title=" ">
<path fill="none" stroke="#63b8ff" d="M513.75,-116.4C593.18,-111.19 762.97,-98.16 904.63,-74.5 905.62,-74.33 906.63,-74.16 907.65,-73.97"/>
<polygon fill="#63b8ff" stroke="#63b8ff" points="908.05,-77.46 917.14,-72.02 906.64,-70.6 908.05,-77.46"/>
</a>
</g>
</g>
<!-- Node7 -->
<g id="Node000007" class="node">
<title>Node7</title>
<g id="a_Node000007"><a xlink:title=" ">
<polygon fill="#e0e0e0" stroke="#999999" points="155.75,-74.5 113.5,-74.5 113.5,-55.25 155.75,-55.25 155.75,-74.5"/>
<text text-anchor="middle" x="134.63" y="-61" font-family="Helvetica,sans-Serif" font-size="10.00">uuid.h</text>
</a>
</g>
</g>
<!-- Node5&#45;&gt;Node7 -->
<g id="edge7_Node000005_Node000007" class="edge">
<title>Node5&#45;&gt;Node7</title>
<g id="a_edge7_Node000005_Node000007"><a xlink:title=" ">
<path fill="none" stroke="#63b8ff" d="M423.47,-114.42C366.02,-108 263.57,-95.16 167.27,-74.83"/>
<polygon fill="#63b8ff" stroke="#63b8ff" points="168.16,-71.44 157.65,-72.76 166.69,-78.28 168.16,-71.44"/>
</a>
</g>
</g>
<!-- Node8 -->
<g id="Node000008" class="node">
<title>Node8</title>
<g id="a_Node000008"><a xlink:title=" ">
<polygon fill="#e0e0e0" stroke="#999999" points="207.25,-74.5 174,-74.5 174,-55.25 207.25,-55.25 207.25,-74.5"/>
<text text-anchor="middle" x="190.63" y="-61" font-family="Helvetica,sans-Serif" font-size="10.00">uv.h</text>
</a>
</g>
</g>
<!-- Node5&#45;&gt;Node8 -->
<g id="edge8_Node000005_Node000008" class="edge">
<title>Node5&#45;&gt;Node8</title>
<g id="a_edge8_Node000005_Node000008"><a xlink:title=" ">
<path fill="none" stroke="#63b8ff" d="M423.6,-113.16C375.14,-106.31 295.67,-93.78 218.46,-74.64"/>
<polygon fill="#63b8ff" stroke="#63b8ff" points="219.6,-71.32 209.05,-72.26 217.89,-78.1 219.6,-71.32"/>
</a>
</g>
</g>
<!-- Node9 -->
<g id="Node000009" class="node">
<title>Node9</title>
<g id="a_Node000009"><a xlink:title=" ">
<polygon fill="#e0e0e0" stroke="#999999" points="281.5,-74.5 225.75,-74.5 225.75,-55.25 281.5,-55.25 281.5,-74.5"/>
<text text-anchor="middle" x="253.63" y="-61" font-family="Helvetica,sans-Serif" font-size="10.00">algorithm</text>
</a>
</g>
</g>
<!-- Node5&#45;&gt;Node9 -->
<g id="edge9_Node000005_Node000009" class="edge">
<title>Node5&#45;&gt;Node9</title>
<g id="a_edge9_Node000005_Node000009"><a xlink:title=" ">
<path fill="none" stroke="#63b8ff" d="M432.15,-110.09C393.44,-100.5 332.49,-85.41 292.79,-75.57"/>
<polygon fill="#63b8ff" stroke="#63b8ff" points="293.71,-72.2 283.16,-73.19 292.03,-78.99 293.71,-72.2"/>
</a>
</g>
</g>
<!-- Node10 -->
<g id="Node000010" class="node">
<title>Node10</title>
<g id="a_Node000010"><a xlink:title=" ">
<polygon fill="#e0e0e0" stroke="#999999" points="341.75,-74.5 299.5,-74.5 299.5,-55.25 341.75,-55.25 341.75,-74.5"/>
<text text-anchor="middle" x="320.63" y="-61" font-family="Helvetica,sans-Serif" font-size="10.00">cstdio</text>
</a>
</g>
</g>
<!-- Node5&#45;&gt;Node10 -->
<g id="edge11_Node000005_Node000010" class="edge">
<title>Node5&#45;&gt;Node10</title>
<g id="a_edge11_Node000005_Node000010"><a xlink:title=" ">
<path fill="none" stroke="#63b8ff" d="M443.52,-110.09C418.44,-101.07 379.8,-87.17 352.55,-77.36"/>
<polygon fill="#63b8ff" stroke="#63b8ff" points="354.02,-74.17 343.43,-74.08 351.65,-80.76 354.02,-74.17"/>
</a>
</g>
</g>
<!-- Node11 -->
<g id="Node000011" class="node">
<title>Node11</title>
<g id="a_Node000011"><a xlink:title=" ">
<polygon fill="#e0e0e0" stroke="#999999" points="421.13,-74.5 360.13,-74.5 360.13,-55.25 421.13,-55.25 421.13,-74.5"/>
<text text-anchor="middle" x="390.63" y="-61" font-family="Helvetica,sans-Serif" font-size="10.00">filesystem</text>
</a>
</g>
</g>
<!-- Node5&#45;&gt;Node11 -->
<g id="edge12_Node000005_Node000011" class="edge">
<title>Node5&#45;&gt;Node11</title>
<g id="a_edge12_Node000005_Node000011"><a xlink:title=" ">
<path fill="none" stroke="#63b8ff" d="M455.39,-110.09C443.85,-102.21 426.86,-90.61 413.18,-81.27"/>
<polygon fill="#63b8ff" stroke="#63b8ff" points="415.4,-78.55 405.17,-75.81 411.46,-84.33 415.4,-78.55"/>
</a>
</g>
</g>
<!-- Node12 -->
<g id="Node000012" class="node">
<title>Node12</title>
<g id="a_Node000012"><a xlink:title=" ">
<polygon fill="#e0e0e0" stroke="#999999" points="497.63,-74.5 439.63,-74.5 439.63,-55.25 497.63,-55.25 497.63,-74.5"/>
<text text-anchor="middle" x="468.63" y="-61" font-family="Helvetica,sans-Serif" font-size="10.00">functional</text>
</a>
</g>
</g>
<!-- Node5&#45;&gt;Node12 -->
<g id="edge13_Node000005_Node000012" class="edge">
<title>Node5&#45;&gt;Node12</title>
<g id="a_edge13_Node000005_Node000012"><a xlink:title=" ">
<path fill="none" stroke="#63b8ff" d="M468.63,-110.33C468.63,-103.82 468.63,-94.67 468.63,-86.37"/>
<polygon fill="#63b8ff" stroke="#63b8ff" points="472.13,-86.37 468.63,-76.37 465.13,-86.37 472.13,-86.37"/>
</a>
</g>
</g>
<!-- Node13 -->
<g id="Node000013" class="node">
<title>Node13</title>
<g id="a_Node000013"><a xlink:title=" ">
<polygon fill="#e0e0e0" stroke="#999999" points="569.38,-74.5 515.88,-74.5 515.88,-55.25 569.38,-55.25 569.38,-74.5"/>
<text text-anchor="middle" x="542.63" y="-61" font-family="Helvetica,sans-Serif" font-size="10.00">iostream</text>
</a>
</g>
</g>
<!-- Node5&#45;&gt;Node13 -->
<g id="edge14_Node000005_Node000013" class="edge">
<title>Node5&#45;&gt;Node13</title>
<g id="a_edge14_Node000005_Node000013"><a xlink:title=" ">
<path fill="none" stroke="#63b8ff" d="M481.18,-110.09C492.09,-102.24 508.13,-90.7 521.09,-81.37"/>
<polygon fill="#63b8ff" stroke="#63b8ff" points="522.96,-84.34 529.03,-75.66 518.87,-78.66 522.96,-84.34"/>
</a>
</g>
</g>
<!-- Node14 -->
<g id="Node000014" class="node">
<title>Node14</title>
<g id="a_Node000014"><a xlink:title=" ">
<polygon fill="#e0e0e0" stroke="#999999" points="637.5,-74.5 587.75,-74.5 587.75,-55.25 637.5,-55.25 637.5,-74.5"/>
<text text-anchor="middle" x="612.63" y="-61" font-family="Helvetica,sans-Serif" font-size="10.00">optional</text>
</a>
</g>
</g>
<!-- Node5&#45;&gt;Node14 -->
<g id="edge15_Node000005_Node000014" class="edge">
<title>Node5&#45;&gt;Node14</title>
<g id="a_edge15_Node000005_Node000014"><a xlink:title=" ">
<path fill="none" stroke="#63b8ff" d="M493.05,-110.09C516.22,-101.52 551.29,-88.56 577.46,-78.88"/>
<polygon fill="#63b8ff" stroke="#63b8ff" points="578.49,-82.23 586.66,-75.48 576.06,-75.66 578.49,-82.23"/>
</a>
</g>
</g>
<!-- Node15 -->
<g id="Node000015" class="node">
<title>Node15</title>
<g id="a_Node000015"><a xlink:title=" ">
<polygon fill="#e0e0e0" stroke="#999999" points="695.63,-74.5 655.63,-74.5 655.63,-55.25 695.63,-55.25 695.63,-74.5"/>
<text text-anchor="middle" x="675.63" y="-61" font-family="Helvetica,sans-Serif" font-size="10.00">string</text>
</a>
</g>
</g>
<!-- Node5&#45;&gt;Node15 -->
<g id="edge16_Node000005_Node000015" class="edge">
<title>Node5&#45;&gt;Node15</title>
<g id="a_edge16_Node000005_Node000015"><a xlink:title=" ">
<path fill="none" stroke="#63b8ff" d="M506.95,-110.03C540.75,-101.89 591.6,-89.38 644.43,-75.01"/>
<polygon fill="#63b8ff" stroke="#63b8ff" points="645.19,-78.43 653.92,-72.42 643.35,-71.68 645.19,-78.43"/>
</a>
</g>
</g>
<!-- Node16 -->
<g id="Node000016" class="node">
<title>Node16</title>
<g id="a_Node000016"><a xlink:title=" ">
<polygon fill="#e0e0e0" stroke="#999999" points="757.13,-74.5 714.13,-74.5 714.13,-55.25 757.13,-55.25 757.13,-74.5"/>
<text text-anchor="middle" x="735.63" y="-61" font-family="Helvetica,sans-Serif" font-size="10.00">vector</text>
</a>
</g>
</g>
<!-- Node5&#45;&gt;Node16 -->
<g id="edge17_Node000005_Node000016" class="edge">
<title>Node5&#45;&gt;Node16</title>
<g id="a_edge17_Node000005_Node000016"><a xlink:title=" ">
<path fill="none" stroke="#63b8ff" d="M513.67,-111.77C559,-104.12 631.16,-91.23 702.67,-74.79"/>
<polygon fill="#63b8ff" stroke="#63b8ff" points="703.25,-78.25 712.19,-72.57 701.66,-71.43 703.25,-78.25"/>
</a>
</g>
</g>
<!-- Node17 -->
<g id="Node000017" class="node">
<title>Node17</title>
<g id="a_Node000017"><a xlink:href="platform_8h.html" target="_top" xlink:title=" ">
<polygon fill="white" stroke="#666666" points="862.25,-74.5 775,-74.5 775,-55.25 862.25,-55.25 862.25,-74.5"/>
<text text-anchor="middle" x="818.63" y="-61" font-family="Helvetica,sans-Serif" font-size="10.00">prette/platform.h</text>
</a>
</g>
</g>
<!-- Node5&#45;&gt;Node17 -->
<g id="edge18_Node000005_Node000017" class="edge">
<title>Node5&#45;&gt;Node17</title>
<g id="a_edge18_Node000005_Node000017"><a xlink:title=" ">
<path fill="none" stroke="#63b8ff" d="M513.68,-112.53C569.68,-104.29 668.49,-89.64 763.42,-74.83"/>
<polygon fill="#63b8ff" stroke="#63b8ff" points="763.84,-78.31 773.18,-73.3 762.76,-71.39 763.84,-78.31"/>
</a>
</g>
</g>
<!-- Node17&#45;&gt;Node3 -->
<g id="edge19_Node000017_Node000003" class="edge">
<title>Node17&#45;&gt;Node3</title>
<g id="a_edge19_Node000017_Node000003"><a xlink:title=" ">
<path fill="none" stroke="#63b8ff" d="M818.63,-55.08C818.63,-48.57 818.63,-39.42 818.63,-31.12"/>
<polygon fill="#63b8ff" stroke="#63b8ff" points="822.13,-31.12 818.63,-21.12 815.13,-31.12 822.13,-31.12"/>
</a>
</g>
</g>
</g>
</svg>
