<?xml version="1.0" encoding="UTF-8" standalone="no"?>
<!DOCTYPE svg PUBLIC "-//W3C//DTD SVG 1.1//EN"
 "http://www.w3.org/Graphics/SVG/1.1/DTD/svg11.dtd">
<!-- Generated by graphviz version 12.2.1 (20241206.2353)
 -->
<!-- Title: /Users/tazz/Projects/prette/Sources/prette/settings_event.h Pages: 1 -->
<svg width="514pt" height="205pt"
 viewBox="0.00 0.00 513.50 205.25" xmlns="http://www.w3.org/2000/svg" xmlns:xlink="http://www.w3.org/1999/xlink">
<g id="graph0" class="graph" transform="scale(1 1) rotate(0) translate(4 201.25)">
<title>/Users/tazz/Projects/prette/Sources/prette/settings_event.h</title>
<!-- Node1 -->
<g id="Node000001" class="node">
<title>Node1</title>
<g id="a_Node000001"><a xlink:title=" ">
<polygon fill="#999999" stroke="#666666" points="243.5,-197.25 133,-197.25 133,-155.5 243.5,-155.5 243.5,-197.25"/>
<text text-anchor="start" x="141" y="-183.75" font-family="Helvetica,sans-Serif" font-size="10.00">/Users/tazz/Projects</text>
<text text-anchor="start" x="141" y="-172.5" font-family="Helvetica,sans-Serif" font-size="10.00">/prette/Sources/prette</text>
<text text-anchor="middle" x="188.25" y="-161.25" font-family="Helvetica,sans-Serif" font-size="10.00">/settings_event.h</text>
</a>
</g>
</g>
<!-- Node2 -->
<g id="Node000002" class="node">
<title>Node2</title>
<g id="a_Node000002"><a xlink:href="settings_8cc.html" target="_top" xlink:title=" ">
<polygon fill="white" stroke="#666666" points="110.5,-41.75 0,-41.75 0,0 110.5,0 110.5,-41.75"/>
<text text-anchor="start" x="8" y="-28.25" font-family="Helvetica,sans-Serif" font-size="10.00">/Users/tazz/Projects</text>
<text text-anchor="start" x="8" y="-17" font-family="Helvetica,sans-Serif" font-size="10.00">/prette/Sources/prette</text>
<text text-anchor="middle" x="55.25" y="-5.75" font-family="Helvetica,sans-Serif" font-size="10.00">/settings.cc</text>
</a>
</g>
</g>
<!-- Node1&#45;&gt;Node2 -->
<g id="edge1_Node000001_Node000002" class="edge">
<title>Node1&#45;&gt;Node2</title>
<g id="a_edge1_Node000001_Node000002"><a xlink:title=" ">
<path fill="none" stroke="#63b8ff" d="M153.8,-147.93C143.81,-139.29 133.19,-129.41 124.25,-119.5 101.86,-94.69 80.34,-62.48 67.45,-41.98"/>
<polygon fill="#63b8ff" stroke="#63b8ff" points="151.31,-150.41 161.21,-154.2 155.83,-145.07 151.31,-150.41"/>
</a>
</g>
</g>
<!-- Node3 -->
<g id="Node000003" class="node">
<title>Node3</title>
<g id="a_Node000003"><a xlink:href="settings_8h.html" target="_top" xlink:title=" ">
<polygon fill="white" stroke="#666666" points="243.5,-119.5 133,-119.5 133,-77.75 243.5,-77.75 243.5,-119.5"/>
<text text-anchor="start" x="141" y="-106" font-family="Helvetica,sans-Serif" font-size="10.00">/Users/tazz/Projects</text>
<text text-anchor="start" x="141" y="-94.75" font-family="Helvetica,sans-Serif" font-size="10.00">/prette/Sources/prette</text>
<text text-anchor="middle" x="188.25" y="-83.5" font-family="Helvetica,sans-Serif" font-size="10.00">/settings.h</text>
</a>
</g>
</g>
<!-- Node1&#45;&gt;Node3 -->
<g id="edge2_Node000001_Node000003" class="edge">
<title>Node1&#45;&gt;Node3</title>
<g id="a_edge2_Node000001_Node000003"><a xlink:title=" ">
<path fill="none" stroke="#63b8ff" d="M188.25,-143.75C188.25,-135.71 188.25,-127.29 188.25,-119.98"/>
<polygon fill="#63b8ff" stroke="#63b8ff" points="184.75,-143.56 188.25,-153.56 191.75,-143.56 184.75,-143.56"/>
</a>
</g>
</g>
<!-- Node7 -->
<g id="Node000007" class="node">
<title>Node7</title>
<g id="a_Node000007"><a xlink:href="settings__event_8cc.html" target="_top" xlink:title=" ">
<polygon fill="white" stroke="#666666" points="372.5,-119.5 262,-119.5 262,-77.75 372.5,-77.75 372.5,-119.5"/>
<text text-anchor="start" x="270" y="-106" font-family="Helvetica,sans-Serif" font-size="10.00">/Users/tazz/Projects</text>
<text text-anchor="start" x="270" y="-94.75" font-family="Helvetica,sans-Serif" font-size="10.00">/prette/Sources/prette</text>
<text text-anchor="middle" x="317.25" y="-83.5" font-family="Helvetica,sans-Serif" font-size="10.00">/settings_event.cc</text>
</a>
</g>
</g>
<!-- Node1&#45;&gt;Node7 -->
<g id="edge7_Node000001_Node000007" class="edge">
<title>Node1&#45;&gt;Node7</title>
<g id="a_edge7_Node000001_Node000007"><a xlink:title=" ">
<path fill="none" stroke="#63b8ff" d="M232.69,-149.28C249.02,-139.69 267.25,-128.99 282.58,-119.98"/>
<polygon fill="#63b8ff" stroke="#63b8ff" points="230.98,-146.23 224.12,-154.31 234.52,-152.26 230.98,-146.23"/>
</a>
</g>
</g>
<!-- Node3&#45;&gt;Node2 -->
<g id="edge6_Node000003_Node000002" class="edge">
<title>Node3&#45;&gt;Node2</title>
<g id="a_edge6_Node000003_Node000002"><a xlink:title=" ">
<path fill="none" stroke="#63b8ff" d="M142.9,-71.8C125.95,-62.14 106.95,-51.32 90.99,-42.23"/>
<polygon fill="#63b8ff" stroke="#63b8ff" points="140.87,-74.67 151.29,-76.58 144.34,-68.59 140.87,-74.67"/>
</a>
</g>
</g>
<!-- Node4 -->
<g id="Node000004" class="node">
<title>Node4</title>
<g id="a_Node000004"><a xlink:href="main_8cc.html" target="_top" xlink:title=" ">
<polygon fill="white" stroke="#666666" points="248.38,-36.12 128.12,-36.12 128.12,-5.62 248.38,-5.62 248.38,-36.12"/>
<text text-anchor="start" x="136.12" y="-22.62" font-family="Helvetica,sans-Serif" font-size="10.00">/Users/tazz/Projects</text>
<text text-anchor="middle" x="188.25" y="-11.38" font-family="Helvetica,sans-Serif" font-size="10.00">/prette/Sources/main.cc</text>
</a>
</g>
</g>
<!-- Node3&#45;&gt;Node4 -->
<g id="edge3_Node000003_Node000004" class="edge">
<title>Node3&#45;&gt;Node4</title>
<g id="a_edge3_Node000003_Node000004"><a xlink:title=" ">
<path fill="none" stroke="#63b8ff" d="M188.25,-66.06C188.25,-55.69 188.25,-44.67 188.25,-36.23"/>
<polygon fill="#63b8ff" stroke="#63b8ff" points="184.75,-65.81 188.25,-75.81 191.75,-65.81 184.75,-65.81"/>
</a>
</g>
</g>
<!-- Node5 -->
<g id="Node000005" class="node">
<title>Node5</title>
<g id="a_Node000005"><a xlink:href="camera_8cc.html" target="_top" xlink:title=" ">
<polygon fill="white" stroke="#666666" points="376.5,-41.75 266,-41.75 266,0 376.5,0 376.5,-41.75"/>
<text text-anchor="start" x="274" y="-28.25" font-family="Helvetica,sans-Serif" font-size="10.00">/Users/tazz/Projects</text>
<text text-anchor="start" x="274" y="-17" font-family="Helvetica,sans-Serif" font-size="10.00">/prette/Sources/prette</text>
<text text-anchor="middle" x="321.25" y="-5.75" font-family="Helvetica,sans-Serif" font-size="10.00">/camera.cc</text>
</a>
</g>
</g>
<!-- Node3&#45;&gt;Node5 -->
<g id="edge4_Node000003_Node000005" class="edge">
<title>Node3&#45;&gt;Node5</title>
<g id="a_edge4_Node000003_Node000005"><a xlink:title=" ">
<path fill="none" stroke="#63b8ff" d="M233.6,-71.8C250.55,-62.14 269.55,-51.32 285.51,-42.23"/>
<polygon fill="#63b8ff" stroke="#63b8ff" points="232.16,-68.59 225.21,-76.58 235.63,-74.67 232.16,-68.59"/>
</a>
</g>
</g>
<!-- Node6 -->
<g id="Node000006" class="node">
<title>Node6</title>
<g id="a_Node000006"><a xlink:href="lua_8cc.html" target="_top" xlink:title=" ">
<polygon fill="white" stroke="#666666" points="505.5,-41.75 395,-41.75 395,0 505.5,0 505.5,-41.75"/>
<text text-anchor="start" x="403" y="-28.25" font-family="Helvetica,sans-Serif" font-size="10.00">/Users/tazz/Projects</text>
<text text-anchor="start" x="403" y="-17" font-family="Helvetica,sans-Serif" font-size="10.00">/prette/Sources/prette</text>
<text text-anchor="middle" x="450.25" y="-5.75" font-family="Helvetica,sans-Serif" font-size="10.00">/lua.cc</text>
</a>
</g>
</g>
<!-- Node3&#45;&gt;Node6 -->
<g id="edge5_Node000003_Node000006" class="edge">
<title>Node3&#45;&gt;Node6</title>
<g id="a_edge5_Node000003_Node000006"><a xlink:title=" ">
<path fill="none" stroke="#63b8ff" d="M254.91,-77.32C313.52,-60.56 330.14,-57.69 385.25,-41.75 388.31,-40.86 391.45,-39.95 394.61,-39.01"/>
<polygon fill="#63b8ff" stroke="#63b8ff" points="253.98,-73.94 245.34,-80.07 255.92,-80.67 253.98,-73.94"/>
</a>
</g>
</g>
</g>
</svg>
