<?xml version="1.0" encoding="UTF-8" standalone="no"?>
<!DOCTYPE svg PUBLIC "-//W3C//DTD SVG 1.1//EN"
 "http://www.w3.org/Graphics/SVG/1.1/DTD/svg11.dtd">
<!-- Generated by graphviz version 12.2.1 (20241206.2353)
 -->
<!-- Title: /Users/tazz/Projects/prette/Sources/prette/sha256.cc Pages: 1 -->
<svg width="1258pt" height="326pt"
 viewBox="0.00 0.00 1257.73 326.00" xmlns="http://www.w3.org/2000/svg" xmlns:xlink="http://www.w3.org/1999/xlink">
<g id="graph0" class="graph" transform="scale(1 1) rotate(0) translate(4 322)">
<title>/Users/tazz/Projects/prette/Sources/prette/sha256.cc</title>
<!-- Node1 -->
<g id="Node000001" class="node">
<title>Node1</title>
<g id="a_Node000001"><a xlink:title=" ">
<polygon fill="#999999" stroke="#666666" points="1068.1,-318 957.6,-318 957.6,-276.25 1068.1,-276.25 1068.1,-318"/>
<text text-anchor="start" x="965.6" y="-304.5" font-family="Helvetica,sans-Serif" font-size="10.00">/Users/tazz/Projects</text>
<text text-anchor="start" x="965.6" y="-293.25" font-family="Helvetica,sans-Serif" font-size="10.00">/prette/Sources/prette</text>
<text text-anchor="middle" x="1012.85" y="-282" font-family="Helvetica,sans-Serif" font-size="10.00">/sha256.cc</text>
</a>
</g>
</g>
<!-- Node2 -->
<g id="Node000002" class="node">
<title>Node2</title>
<g id="a_Node000002"><a xlink:href="sha256_8h.html" target="_top" xlink:title=" ">
<polygon fill="white" stroke="#666666" points="548.6,-240.25 465.1,-240.25 465.1,-221 548.6,-221 548.6,-240.25"/>
<text text-anchor="middle" x="506.85" y="-226.75" font-family="Helvetica,sans-Serif" font-size="10.00">prette/sha256.h</text>
</a>
</g>
</g>
<!-- Node1&#45;&gt;Node2 -->
<g id="edge1_Node000001_Node000002" class="edge">
<title>Node1&#45;&gt;Node2</title>
<g id="a_edge1_Node000001_Node000002"><a xlink:title=" ">
<path fill="none" stroke="#63b8ff" d="M957.25,-289.04C859.19,-276.54 656.76,-250.73 560.27,-238.43"/>
<polygon fill="#63b8ff" stroke="#63b8ff" points="560.91,-234.99 550.54,-237.19 560.02,-241.93 560.91,-234.99"/>
</a>
</g>
</g>
<!-- Node12 -->
<g id="Node000012" class="node">
<title>Node12</title>
<g id="a_Node000012"><a xlink:title=" ">
<polygon fill="#e0e0e0" stroke="#999999" points="1007.85,-74.5 931.85,-74.5 931.85,-55.25 1007.85,-55.25 1007.85,-74.5"/>
<text text-anchor="middle" x="969.85" y="-61" font-family="Helvetica,sans-Serif" font-size="10.00">glog/logging.h</text>
</a>
</g>
</g>
<!-- Node1&#45;&gt;Node12 -->
<g id="edge30_Node000001_Node000012" class="edge">
<title>Node1&#45;&gt;Node12</title>
<g id="a_edge30_Node000001_Node000012"><a xlink:title=" ">
<path fill="none" stroke="#63b8ff" d="M1002.7,-275.87C992.37,-254.06 977.03,-218.05 970.85,-185 964.47,-150.87 966.03,-110.26 967.86,-86.36"/>
<polygon fill="#63b8ff" stroke="#63b8ff" points="971.34,-86.72 968.72,-76.45 964.37,-86.11 971.34,-86.72"/>
</a>
</g>
</g>
<!-- Node23 -->
<g id="Node000023" class="node">
<title>Node23</title>
<g id="a_Node000023"><a xlink:title=" ">
<polygon fill="#e0e0e0" stroke="#999999" points="1062.98,-240.25 1014.73,-240.25 1014.73,-221 1062.98,-221 1062.98,-240.25"/>
<text text-anchor="middle" x="1038.85" y="-226.75" font-family="Helvetica,sans-Serif" font-size="10.00">random</text>
</a>
</g>
</g>
<!-- Node1&#45;&gt;Node23 -->
<g id="edge27_Node000001_Node000023" class="edge">
<title>Node1&#45;&gt;Node23</title>
<g id="a_edge27_Node000001_Node000023"><a xlink:title=" ">
<path fill="none" stroke="#63b8ff" d="M1020.94,-276.07C1024.14,-268.12 1027.81,-259.01 1031,-251.11"/>
<polygon fill="#63b8ff" stroke="#63b8ff" points="1034.14,-252.68 1034.63,-242.1 1027.64,-250.07 1034.14,-252.68"/>
</a>
</g>
</g>
<!-- Node24 -->
<g id="Node000024" class="node">
<title>Node24</title>
<g id="a_Node000024"><a xlink:title=" ">
<polygon fill="#e0e0e0" stroke="#999999" points="1158.23,-240.25 1081.48,-240.25 1081.48,-221 1158.23,-221 1158.23,-240.25"/>
<text text-anchor="middle" x="1119.85" y="-226.75" font-family="Helvetica,sans-Serif" font-size="10.00">openssl/evp.h</text>
</a>
</g>
</g>
<!-- Node1&#45;&gt;Node24 -->
<g id="edge28_Node000001_Node000024" class="edge">
<title>Node1&#45;&gt;Node24</title>
<g id="a_edge28_Node000001_Node000024"><a xlink:title=" ">
<path fill="none" stroke="#63b8ff" d="M1046.41,-275.89C1062.2,-266.38 1080.68,-255.24 1095.15,-246.51"/>
<polygon fill="#63b8ff" stroke="#63b8ff" points="1096.84,-249.59 1103.59,-241.43 1093.22,-243.59 1096.84,-249.59"/>
</a>
</g>
</g>
<!-- Node25 -->
<g id="Node000025" class="node">
<title>Node25</title>
<g id="a_Node000025"><a xlink:title=" ">
<polygon fill="#e0e0e0" stroke="#999999" points="1249.73,-240.25 1175.98,-240.25 1175.98,-221 1249.73,-221 1249.73,-240.25"/>
<text text-anchor="middle" x="1212.85" y="-226.75" font-family="Helvetica,sans-Serif" font-size="10.00">openssl/bio.h</text>
</a>
</g>
</g>
<!-- Node1&#45;&gt;Node25 -->
<g id="edge29_Node000001_Node000025" class="edge">
<title>Node1&#45;&gt;Node25</title>
<g id="a_edge29_Node000001_Node000025"><a xlink:title=" ">
<path fill="none" stroke="#63b8ff" d="M1068.56,-278.16C1102.08,-267.35 1143.91,-253.86 1173.89,-244.19"/>
<polygon fill="#63b8ff" stroke="#63b8ff" points="1174.87,-247.55 1183.31,-241.15 1172.72,-240.89 1174.87,-247.55"/>
</a>
</g>
</g>
<!-- Node26 -->
<g id="Node000026" class="node">
<title>Node26</title>
<g id="a_Node000026"><a xlink:href="utils_8h.html" target="_top" xlink:title=" ">
<polygon fill="white" stroke="#666666" points="1063.6,-185 980.1,-185 980.1,-165.75 1063.6,-165.75 1063.6,-185"/>
<text text-anchor="middle" x="1021.85" y="-171.5" font-family="Helvetica,sans-Serif" font-size="10.00">prette/uv/utils.h</text>
</a>
</g>
</g>
<!-- Node1&#45;&gt;Node26 -->
<g id="edge31_Node000001_Node000026" class="edge">
<title>Node1&#45;&gt;Node26</title>
<g id="a_edge31_Node000001_Node000026"><a xlink:title=" ">
<path fill="none" stroke="#63b8ff" d="M1008.09,-275.92C1005.2,-260.73 1002.64,-239.45 1005.85,-221 1007.33,-212.49 1010.29,-203.46 1013.26,-195.77"/>
<polygon fill="#63b8ff" stroke="#63b8ff" points="1016.4,-197.33 1017.01,-186.75 1009.94,-194.64 1016.4,-197.33"/>
</a>
</g>
</g>
<!-- Node3 -->
<g id="Node000003" class="node">
<title>Node3</title>
<g id="a_Node000003"><a xlink:title=" ">
<polygon fill="#e0e0e0" stroke="#999999" points="222.48,-19.25 177.23,-19.25 177.23,0 222.48,0 222.48,-19.25"/>
<text text-anchor="middle" x="199.85" y="-5.75" font-family="Helvetica,sans-Serif" font-size="10.00">cstdint</text>
</a>
</g>
</g>
<!-- Node2&#45;&gt;Node3 -->
<g id="edge2_Node000002_Node000003" class="edge">
<title>Node2&#45;&gt;Node3</title>
<g id="a_edge2_Node000002_Node000003"><a xlink:title=" ">
<path fill="none" stroke="#63b8ff" d="M464.65,-223.35C353.75,-205.88 59.07,-152.74 6.85,-74.5 -31.33,-17.29 100.45,-10.17 165.56,-10.03"/>
<polygon fill="#63b8ff" stroke="#63b8ff" points="165.36,-13.53 175.37,-10.06 165.39,-6.53 165.36,-13.53"/>
</a>
</g>
</g>
<!-- Node4 -->
<g id="Node000004" class="node">
<title>Node4</title>
<g id="a_Node000004"><a xlink:title=" ">
<polygon fill="#e0e0e0" stroke="#999999" points="594.23,-185 517.48,-185 517.48,-165.75 594.23,-165.75 594.23,-185"/>
<text text-anchor="middle" x="555.85" y="-171.5" font-family="Helvetica,sans-Serif" font-size="10.00">openssl/sha.h</text>
</a>
</g>
</g>
<!-- Node2&#45;&gt;Node4 -->
<g id="edge3_Node000002_Node000004" class="edge">
<title>Node2&#45;&gt;Node4</title>
<g id="a_edge3_Node000002_Node000004"><a xlink:title=" ">
<path fill="none" stroke="#63b8ff" d="M514.94,-220.83C521.71,-213.48 531.57,-202.76 539.92,-193.69"/>
<polygon fill="#63b8ff" stroke="#63b8ff" points="542.36,-196.2 546.56,-186.47 537.21,-191.46 542.36,-196.2"/>
</a>
</g>
</g>
<!-- Node5 -->
<g id="Node000005" class="node">
<title>Node5</title>
<g id="a_Node000005"><a xlink:href="uint256_8h.html" target="_top" xlink:title=" ">
<polygon fill="white" stroke="#666666" points="499.6,-185 416.1,-185 416.1,-165.75 499.6,-165.75 499.6,-185"/>
<text text-anchor="middle" x="457.85" y="-171.5" font-family="Helvetica,sans-Serif" font-size="10.00">prette/uint256.h</text>
</a>
</g>
</g>
<!-- Node2&#45;&gt;Node5 -->
<g id="edge4_Node000002_Node000005" class="edge">
<title>Node2&#45;&gt;Node5</title>
<g id="a_edge4_Node000002_Node000005"><a xlink:title=" ">
<path fill="none" stroke="#63b8ff" d="M498.76,-220.83C491.99,-213.48 482.13,-202.76 473.79,-193.69"/>
<polygon fill="#63b8ff" stroke="#63b8ff" points="476.49,-191.46 467.14,-186.47 471.34,-196.2 476.49,-191.46"/>
</a>
</g>
</g>
<!-- Node6 -->
<g id="Node000006" class="node">
<title>Node6</title>
<g id="a_Node000006"><a xlink:href="big__number_8h.html" target="_top" xlink:title=" ">
<polygon fill="white" stroke="#666666" points="250.6,-129.75 149.1,-129.75 149.1,-110.5 250.6,-110.5 250.6,-129.75"/>
<text text-anchor="middle" x="199.85" y="-116.25" font-family="Helvetica,sans-Serif" font-size="10.00">prette/big_number.h</text>
</a>
</g>
</g>
<!-- Node5&#45;&gt;Node6 -->
<g id="edge5_Node000005_Node000006" class="edge">
<title>Node5&#45;&gt;Node6</title>
<g id="a_edge5_Node000005_Node000006"><a xlink:title=" ">
<path fill="none" stroke="#63b8ff" d="M415.83,-165.7C372.07,-156.67 303.33,-142.48 255.18,-132.54"/>
<polygon fill="#63b8ff" stroke="#63b8ff" points="256,-129.14 245.5,-130.55 254.59,-136 256,-129.14"/>
</a>
</g>
</g>
<!-- Node11 -->
<g id="Node000011" class="node">
<title>Node11</title>
<g id="a_Node000011"><a xlink:href="common_8h.html" target="_top" xlink:title=" ">
<polygon fill="white" stroke="#666666" points="692.6,-129.75 603.1,-129.75 603.1,-110.5 692.6,-110.5 692.6,-129.75"/>
<text text-anchor="middle" x="647.85" y="-116.25" font-family="Helvetica,sans-Serif" font-size="10.00">prette/common.h</text>
</a>
</g>
</g>
<!-- Node5&#45;&gt;Node11 -->
<g id="edge12_Node000005_Node000011" class="edge">
<title>Node5&#45;&gt;Node11</title>
<g id="a_edge12_Node000005_Node000011"><a xlink:title=" ">
<path fill="none" stroke="#63b8ff" d="M490.08,-165.34C521.61,-156.51 569.83,-142.99 604.66,-133.23"/>
<polygon fill="#63b8ff" stroke="#63b8ff" points="605.32,-136.68 614.01,-130.61 603.43,-129.94 605.32,-136.68"/>
</a>
</g>
</g>
<!-- Node6&#45;&gt;Node3 -->
<g id="edge6_Node000006_Node000003" class="edge">
<title>Node6&#45;&gt;Node3</title>
<g id="a_edge6_Node000006_Node000003"><a xlink:title=" ">
<path fill="none" stroke="#63b8ff" d="M194.84,-110.13C188.6,-97.86 179.2,-75.11 182.85,-55.25 184.43,-46.7 187.57,-37.66 190.72,-29.97"/>
<polygon fill="#63b8ff" stroke="#63b8ff" points="193.86,-31.52 194.71,-20.96 187.46,-28.68 193.86,-31.52"/>
</a>
</g>
</g>
<!-- Node7 -->
<g id="Node000007" class="node">
<title>Node7</title>
<g id="a_Node000007"><a xlink:title=" ">
<polygon fill="#e0e0e0" stroke="#999999" points="135.73,-74.5 85.98,-74.5 85.98,-55.25 135.73,-55.25 135.73,-74.5"/>
<text text-anchor="middle" x="110.85" y="-61" font-family="Helvetica,sans-Serif" font-size="10.00">iomanip</text>
</a>
</g>
</g>
<!-- Node6&#45;&gt;Node7 -->
<g id="edge7_Node000006_Node000007" class="edge">
<title>Node6&#45;&gt;Node7</title>
<g id="a_edge7_Node000006_Node000007"><a xlink:title=" ">
<path fill="none" stroke="#63b8ff" d="M184.75,-110.09C171.33,-102.06 151.44,-90.16 135.68,-80.73"/>
<polygon fill="#63b8ff" stroke="#63b8ff" points="137.7,-77.86 127.32,-75.73 134.11,-83.87 137.7,-77.86"/>
</a>
</g>
</g>
<!-- Node8 -->
<g id="Node000008" class="node">
<title>Node8</title>
<g id="a_Node000008"><a xlink:title=" ">
<polygon fill="#e0e0e0" stroke="#999999" points="67.48,-74.5 16.23,-74.5 16.23,-55.25 67.48,-55.25 67.48,-74.5"/>
<text text-anchor="middle" x="41.85" y="-61" font-family="Helvetica,sans-Serif" font-size="10.00">sstream</text>
</a>
</g>
</g>
<!-- Node6&#45;&gt;Node8 -->
<g id="edge8_Node000006_Node000008" class="edge">
<title>Node6&#45;&gt;Node8</title>
<g id="a_edge8_Node000006_Node000008"><a xlink:title=" ">
<path fill="none" stroke="#63b8ff" d="M173.05,-110.09C147.09,-101.34 107.52,-88.01 78.62,-78.27"/>
<polygon fill="#63b8ff" stroke="#63b8ff" points="79.76,-74.96 69.17,-75.08 77.53,-81.59 79.76,-74.96"/>
</a>
</g>
</g>
<!-- Node9 -->
<g id="Node000009" class="node">
<title>Node9</title>
<g id="a_Node000009"><a xlink:title=" ">
<polygon fill="#e0e0e0" stroke="#999999" points="337.85,-74.5 297.85,-74.5 297.85,-55.25 337.85,-55.25 337.85,-74.5"/>
<text text-anchor="middle" x="317.85" y="-61" font-family="Helvetica,sans-Serif" font-size="10.00">string</text>
</a>
</g>
</g>
<!-- Node6&#45;&gt;Node9 -->
<g id="edge9_Node000006_Node000009" class="edge">
<title>Node6&#45;&gt;Node9</title>
<g id="a_edge9_Node000006_Node000009"><a xlink:title=" ">
<path fill="none" stroke="#63b8ff" d="M219.87,-110.09C238.35,-101.75 266.06,-89.25 287.3,-79.66"/>
<polygon fill="#63b8ff" stroke="#63b8ff" points="288.68,-82.88 296.36,-75.58 285.8,-76.5 288.68,-82.88"/>
</a>
</g>
</g>
<!-- Node10 -->
<g id="Node000010" class="node">
<title>Node10</title>
<g id="a_Node000010"><a xlink:href="platform_8h.html" target="_top" xlink:title=" ">
<polygon fill="white" stroke="#666666" points="279.48,-74.5 192.23,-74.5 192.23,-55.25 279.48,-55.25 279.48,-74.5"/>
<text text-anchor="middle" x="235.85" y="-61" font-family="Helvetica,sans-Serif" font-size="10.00">prette/platform.h</text>
</a>
</g>
</g>
<!-- Node6&#45;&gt;Node10 -->
<g id="edge10_Node000006_Node000010" class="edge">
<title>Node6&#45;&gt;Node10</title>
<g id="a_edge10_Node000006_Node000010"><a xlink:title=" ">
<path fill="none" stroke="#63b8ff" d="M205.8,-110.33C210.56,-103.28 217.41,-93.15 223.37,-84.33"/>
<polygon fill="#63b8ff" stroke="#63b8ff" points="226.23,-86.36 228.93,-76.11 220.43,-82.44 226.23,-86.36"/>
</a>
</g>
</g>
<!-- Node10&#45;&gt;Node3 -->
<g id="edge11_Node000010_Node000003" class="edge">
<title>Node10&#45;&gt;Node3</title>
<g id="a_edge11_Node000010_Node000003"><a xlink:title=" ">
<path fill="none" stroke="#63b8ff" d="M229.91,-55.08C225.14,-48.03 218.29,-37.9 212.33,-29.08"/>
<polygon fill="#63b8ff" stroke="#63b8ff" points="215.27,-27.19 206.77,-20.86 209.47,-31.11 215.27,-27.19"/>
</a>
</g>
</g>
<!-- Node11&#45;&gt;Node3 -->
<g id="edge18_Node000011_Node000003" class="edge">
<title>Node11&#45;&gt;Node3</title>
<g id="a_edge18_Node000011_Node000003"><a xlink:title=" ">
<path fill="none" stroke="#63b8ff" d="M602.65,-115.61C549.45,-110.54 458.96,-98.94 384.85,-74.5 366.87,-68.57 364.42,-62.3 346.85,-55.25 308.99,-40.05 263.9,-27.08 233.73,-19.11"/>
<polygon fill="#63b8ff" stroke="#63b8ff" points="234.96,-15.81 224.4,-16.68 233.2,-22.59 234.96,-15.81"/>
</a>
</g>
</g>
<!-- Node11&#45;&gt;Node9 -->
<g id="edge24_Node000011_Node000009" class="edge">
<title>Node11&#45;&gt;Node9</title>
<g id="a_edge24_Node000011_Node000009"><a xlink:title=" ">
<path fill="none" stroke="#63b8ff" d="M602.73,-113.73C544.48,-106.45 440.11,-92.3 351.85,-74.5 351.02,-74.33 350.18,-74.16 349.34,-73.98"/>
<polygon fill="#63b8ff" stroke="#63b8ff" points="350.28,-70.6 339.75,-71.75 348.69,-77.42 350.28,-70.6"/>
</a>
</g>
</g>
<!-- Node11&#45;&gt;Node10 -->
<g id="edge26_Node000011_Node000010" class="edge">
<title>Node11&#45;&gt;Node10</title>
<g id="a_edge26_Node000011_Node000010"><a xlink:title=" ">
<path fill="none" stroke="#63b8ff" d="M602.72,-114.07C536.68,-106.55 409.53,-91.61 290.88,-74.74"/>
<polygon fill="#63b8ff" stroke="#63b8ff" points="291.68,-71.32 281.29,-73.37 290.69,-78.25 291.68,-71.32"/>
</a>
</g>
</g>
<!-- Node11&#45;&gt;Node12 -->
<g id="edge13_Node000011_Node000012" class="edge">
<title>Node11&#45;&gt;Node12</title>
<g id="a_edge13_Node000011_Node000012"><a xlink:title=" ">
<path fill="none" stroke="#63b8ff" d="M692.67,-112.14C744.86,-103.95 833.95,-89.76 920.08,-74.95"/>
<polygon fill="#63b8ff" stroke="#63b8ff" points="920.64,-78.41 929.9,-73.26 919.45,-71.51 920.64,-78.41"/>
</a>
</g>
</g>
<!-- Node13 -->
<g id="Node000013" class="node">
<title>Node13</title>
<g id="a_Node000013"><a xlink:title=" ">
<polygon fill="#e0e0e0" stroke="#999999" points="639.48,-74.5 594.23,-74.5 594.23,-55.25 639.48,-55.25 639.48,-74.5"/>
<text text-anchor="middle" x="616.85" y="-61" font-family="Helvetica,sans-Serif" font-size="10.00">units.h</text>
</a>
</g>
</g>
<!-- Node11&#45;&gt;Node13 -->
<g id="edge14_Node000011_Node000013" class="edge">
<title>Node11&#45;&gt;Node13</title>
<g id="a_edge14_Node000011_Node000013"><a xlink:title=" ">
<path fill="none" stroke="#63b8ff" d="M642.73,-110.33C638.67,-103.36 632.86,-93.37 627.77,-84.62"/>
<polygon fill="#63b8ff" stroke="#63b8ff" points="630.9,-83.05 622.84,-76.17 624.85,-86.57 630.9,-83.05"/>
</a>
</g>
</g>
<!-- Node14 -->
<g id="Node000014" class="node">
<title>Node14</title>
<g id="a_Node000014"><a xlink:title=" ">
<polygon fill="#e0e0e0" stroke="#999999" points="699.98,-74.5 657.73,-74.5 657.73,-55.25 699.98,-55.25 699.98,-74.5"/>
<text text-anchor="middle" x="678.85" y="-61" font-family="Helvetica,sans-Serif" font-size="10.00">uuid.h</text>
</a>
</g>
</g>
<!-- Node11&#45;&gt;Node14 -->
<g id="edge15_Node000011_Node000014" class="edge">
<title>Node11&#45;&gt;Node14</title>
<g id="a_edge15_Node000011_Node000014"><a xlink:title=" ">
<path fill="none" stroke="#63b8ff" d="M652.97,-110.33C657.03,-103.36 662.85,-93.37 667.94,-84.62"/>
<polygon fill="#63b8ff" stroke="#63b8ff" points="670.85,-86.57 672.86,-76.17 664.8,-83.05 670.85,-86.57"/>
</a>
</g>
</g>
<!-- Node15 -->
<g id="Node000015" class="node">
<title>Node15</title>
<g id="a_Node000015"><a xlink:title=" ">
<polygon fill="#e0e0e0" stroke="#999999" points="1059.48,-74.5 1026.23,-74.5 1026.23,-55.25 1059.48,-55.25 1059.48,-74.5"/>
<text text-anchor="middle" x="1042.85" y="-61" font-family="Helvetica,sans-Serif" font-size="10.00">uv.h</text>
</a>
</g>
</g>
<!-- Node11&#45;&gt;Node15 -->
<g id="edge16_Node000011_Node000015" class="edge">
<title>Node11&#45;&gt;Node15</title>
<g id="a_edge16_Node000011_Node000015"><a xlink:title=" ">
<path fill="none" stroke="#63b8ff" d="M692.93,-116.59C760.9,-112.12 893.7,-100.95 1014.98,-74.47"/>
<polygon fill="#63b8ff" stroke="#63b8ff" points="1015.45,-77.95 1024.45,-72.36 1013.93,-71.12 1015.45,-77.95"/>
</a>
</g>
</g>
<!-- Node16 -->
<g id="Node000016" class="node">
<title>Node16</title>
<g id="a_Node000016"><a xlink:title=" ">
<polygon fill="#e0e0e0" stroke="#999999" points="773.73,-74.5 717.98,-74.5 717.98,-55.25 773.73,-55.25 773.73,-74.5"/>
<text text-anchor="middle" x="745.85" y="-61" font-family="Helvetica,sans-Serif" font-size="10.00">algorithm</text>
</a>
</g>
</g>
<!-- Node11&#45;&gt;Node16 -->
<g id="edge17_Node000011_Node000016" class="edge">
<title>Node11&#45;&gt;Node16</title>
<g id="a_edge17_Node000011_Node000016"><a xlink:title=" ">
<path fill="none" stroke="#63b8ff" d="M664.48,-110.09C679.54,-101.91 701.99,-89.71 719.5,-80.19"/>
<polygon fill="#63b8ff" stroke="#63b8ff" points="720.7,-83.52 727.82,-75.68 717.36,-77.37 720.7,-83.52"/>
</a>
</g>
</g>
<!-- Node17 -->
<g id="Node000017" class="node">
<title>Node17</title>
<g id="a_Node000017"><a xlink:title=" ">
<polygon fill="#e0e0e0" stroke="#999999" points="833.98,-74.5 791.73,-74.5 791.73,-55.25 833.98,-55.25 833.98,-74.5"/>
<text text-anchor="middle" x="812.85" y="-61" font-family="Helvetica,sans-Serif" font-size="10.00">cstdio</text>
</a>
</g>
</g>
<!-- Node11&#45;&gt;Node17 -->
<g id="edge19_Node000011_Node000017" class="edge">
<title>Node11&#45;&gt;Node17</title>
<g id="a_edge19_Node000011_Node000017"><a xlink:title=" ">
<path fill="none" stroke="#63b8ff" d="M675.84,-110.09C704.78,-100.75 749.93,-86.18 780.41,-76.34"/>
<polygon fill="#63b8ff" stroke="#63b8ff" points="781.43,-79.69 789.87,-73.29 779.28,-73.03 781.43,-79.69"/>
</a>
</g>
</g>
<!-- Node18 -->
<g id="Node000018" class="node">
<title>Node18</title>
<g id="a_Node000018"><a xlink:title=" ">
<polygon fill="#e0e0e0" stroke="#999999" points="913.35,-74.5 852.35,-74.5 852.35,-55.25 913.35,-55.25 913.35,-74.5"/>
<text text-anchor="middle" x="882.85" y="-61" font-family="Helvetica,sans-Serif" font-size="10.00">filesystem</text>
</a>
</g>
</g>
<!-- Node11&#45;&gt;Node18 -->
<g id="edge20_Node000011_Node000018" class="edge">
<title>Node11&#45;&gt;Node18</title>
<g id="a_edge20_Node000011_Node000018"><a xlink:title=" ">
<path fill="none" stroke="#63b8ff" d="M687.98,-110.03C730.58,-100.38 797.61,-85.19 840.89,-75.38"/>
<polygon fill="#63b8ff" stroke="#63b8ff" points="841.44,-78.85 850.41,-73.23 839.89,-72.02 841.44,-78.85"/>
</a>
</g>
</g>
<!-- Node19 -->
<g id="Node000019" class="node">
<title>Node19</title>
<g id="a_Node000019"><a xlink:title=" ">
<polygon fill="#e0e0e0" stroke="#999999" points="1135.85,-74.5 1077.85,-74.5 1077.85,-55.25 1135.85,-55.25 1135.85,-74.5"/>
<text text-anchor="middle" x="1106.85" y="-61" font-family="Helvetica,sans-Serif" font-size="10.00">functional</text>
</a>
</g>
</g>
<!-- Node11&#45;&gt;Node19 -->
<g id="edge21_Node000011_Node000019" class="edge">
<title>Node11&#45;&gt;Node19</title>
<g id="a_edge21_Node000011_Node000019"><a xlink:title=" ">
<path fill="none" stroke="#63b8ff" d="M692.95,-116.09C768.29,-110.65 924.69,-97.73 1066.42,-74.72"/>
<polygon fill="#63b8ff" stroke="#63b8ff" points="1066.67,-78.23 1075.97,-73.15 1065.53,-71.32 1066.67,-78.23"/>
</a>
</g>
</g>
<!-- Node20 -->
<g id="Node000020" class="node">
<title>Node20</title>
<g id="a_Node000020"><a xlink:title=" ">
<polygon fill="#e0e0e0" stroke="#999999" points="447.6,-74.5 394.1,-74.5 394.1,-55.25 447.6,-55.25 447.6,-74.5"/>
<text text-anchor="middle" x="420.85" y="-61" font-family="Helvetica,sans-Serif" font-size="10.00">iostream</text>
</a>
</g>
</g>
<!-- Node11&#45;&gt;Node20 -->
<g id="edge22_Node000011_Node000020" class="edge">
<title>Node11&#45;&gt;Node20</title>
<g id="a_edge22_Node000011_Node000020"><a xlink:title=" ">
<path fill="none" stroke="#63b8ff" d="M608.7,-110.04C572.41,-101.62 516.64,-88.62 459.11,-75.03"/>
<polygon fill="#63b8ff" stroke="#63b8ff" points="459.98,-71.63 449.45,-72.74 458.37,-78.45 459.98,-71.63"/>
</a>
</g>
</g>
<!-- Node21 -->
<g id="Node000021" class="node">
<title>Node21</title>
<g id="a_Node000021"><a xlink:title=" ">
<polygon fill="#e0e0e0" stroke="#999999" points="515.73,-74.5 465.98,-74.5 465.98,-55.25 515.73,-55.25 515.73,-74.5"/>
<text text-anchor="middle" x="490.85" y="-61" font-family="Helvetica,sans-Serif" font-size="10.00">optional</text>
</a>
</g>
</g>
<!-- Node11&#45;&gt;Node21 -->
<g id="edge23_Node000011_Node000021" class="edge">
<title>Node11&#45;&gt;Node21</title>
<g id="a_edge23_Node000011_Node000021"><a xlink:title=" ">
<path fill="none" stroke="#63b8ff" d="M621.22,-110.09C595.27,-101.29 555.63,-87.85 526.87,-78.09"/>
<polygon fill="#63b8ff" stroke="#63b8ff" points="528.08,-74.81 517.49,-74.91 525.83,-81.44 528.08,-74.81"/>
</a>
</g>
</g>
<!-- Node22 -->
<g id="Node000022" class="node">
<title>Node22</title>
<g id="a_Node000022"><a xlink:title=" ">
<polygon fill="#e0e0e0" stroke="#999999" points="576.35,-74.5 533.35,-74.5 533.35,-55.25 576.35,-55.25 576.35,-74.5"/>
<text text-anchor="middle" x="554.85" y="-61" font-family="Helvetica,sans-Serif" font-size="10.00">vector</text>
</a>
</g>
</g>
<!-- Node11&#45;&gt;Node22 -->
<g id="edge25_Node000011_Node000022" class="edge">
<title>Node11&#45;&gt;Node22</title>
<g id="a_edge25_Node000011_Node000022"><a xlink:title=" ">
<path fill="none" stroke="#63b8ff" d="M632.08,-110.09C617.91,-101.98 596.87,-89.93 580.32,-80.46"/>
<polygon fill="#63b8ff" stroke="#63b8ff" points="582.44,-77.64 572.02,-75.7 578.96,-83.71 582.44,-77.64"/>
</a>
</g>
</g>
<!-- Node26&#45;&gt;Node11 -->
<g id="edge36_Node000026_Node000011" class="edge">
<title>Node26&#45;&gt;Node11</title>
<g id="a_edge36_Node000026_Node000011"><a xlink:title=" ">
<path fill="none" stroke="#63b8ff" d="M979.68,-168.37C912.17,-158.76 779.79,-139.91 704.24,-129.15"/>
<polygon fill="#63b8ff" stroke="#63b8ff" points="704.96,-125.72 694.57,-127.78 703.97,-132.65 704.96,-125.72"/>
</a>
</g>
</g>
<!-- Node26&#45;&gt;Node12 -->
<g id="edge32_Node000026_Node000012" class="edge">
<title>Node26&#45;&gt;Node12</title>
<g id="a_edge32_Node000026_Node000012"><a xlink:title=" ">
<path fill="none" stroke="#63b8ff" d="M1017.6,-165.5C1009.22,-148.01 990.41,-108.77 979.06,-85.09"/>
<polygon fill="#63b8ff" stroke="#63b8ff" points="982.3,-83.75 974.82,-76.24 975.99,-86.77 982.3,-83.75"/>
</a>
</g>
</g>
<!-- Node26&#45;&gt;Node15 -->
<g id="edge33_Node000026_Node000015" class="edge">
<title>Node26&#45;&gt;Node15</title>
<g id="a_edge33_Node000026_Node000015"><a xlink:title=" ">
<path fill="none" stroke="#63b8ff" d="M1023.57,-165.5C1026.91,-148.25 1034.34,-109.83 1038.94,-86.06"/>
<polygon fill="#63b8ff" stroke="#63b8ff" points="1042.36,-86.85 1040.82,-76.36 1035.49,-85.52 1042.36,-86.85"/>
</a>
</g>
</g>
<!-- Node26&#45;&gt;Node19 -->
<g id="edge34_Node000026_Node000019" class="edge">
<title>Node26&#45;&gt;Node19</title>
<g id="a_edge34_Node000026_Node000019"><a xlink:title=" ">
<path fill="none" stroke="#63b8ff" d="M1028.81,-165.5C1042.75,-147.69 1074.37,-107.33 1092.8,-83.81"/>
<polygon fill="#63b8ff" stroke="#63b8ff" points="1095.45,-86.1 1098.87,-76.07 1089.94,-81.78 1095.45,-86.1"/>
</a>
</g>
</g>
<!-- Node27 -->
<g id="Node000027" class="node">
<title>Node27</title>
<g id="a_Node000027"><a xlink:title=" ">
<polygon fill="#e0e0e0" stroke="#999999" points="1152.73,-129.75 1090.98,-129.75 1090.98,-110.5 1152.73,-110.5 1152.73,-129.75"/>
<text text-anchor="middle" x="1121.85" y="-116.25" font-family="Helvetica,sans-Serif" font-size="10.00">type_traits</text>
</a>
</g>
</g>
<!-- Node26&#45;&gt;Node27 -->
<g id="edge35_Node000026_Node000027" class="edge">
<title>Node26&#45;&gt;Node27</title>
<g id="a_edge35_Node000026_Node000027"><a xlink:title=" ">
<path fill="none" stroke="#63b8ff" d="M1038.82,-165.34C1054.12,-157.19 1076.89,-145.07 1094.71,-135.58"/>
<polygon fill="#63b8ff" stroke="#63b8ff" points="1096.29,-138.7 1103.47,-130.91 1093,-132.52 1096.29,-138.7"/>
</a>
</g>
</g>
</g>
</svg>
