<?xml version="1.0" encoding="UTF-8" standalone="no"?>
<!DOCTYPE svg PUBLIC "-//W3C//DTD SVG 1.1//EN"
 "http://www.w3.org/Graphics/SVG/1.1/DTD/svg11.dtd">
<!-- Generated by graphviz version 12.2.1 (20241206.2353)
 -->
<!-- Title: /Users/tazz/Projects/prette/Sources/prette/signals.h Pages: 1 -->
<svg width="124pt" height="105pt"
 viewBox="0.00 0.00 124.00 105.00" xmlns="http://www.w3.org/2000/svg" xmlns:xlink="http://www.w3.org/1999/xlink">
<g id="graph0" class="graph" transform="scale(1 1) rotate(0) translate(4 101)">
<title>/Users/tazz/Projects/prette/Sources/prette/signals.h</title>
<!-- Node1 -->
<g id="Node000001" class="node">
<title>Node1</title>
<g id="a_Node000001"><a xlink:title=" ">
<polygon fill="#999999" stroke="#666666" points="113.88,-97 3.38,-97 3.38,-55.25 113.88,-55.25 113.88,-97"/>
<text text-anchor="start" x="11.38" y="-83.5" font-family="Helvetica,sans-Serif" font-size="10.00">/Users/tazz/Projects</text>
<text text-anchor="start" x="11.38" y="-72.25" font-family="Helvetica,sans-Serif" font-size="10.00">/prette/Sources/prette</text>
<text text-anchor="middle" x="58.62" y="-61" font-family="Helvetica,sans-Serif" font-size="10.00">/signals.h</text>
</a>
</g>
</g>
<!-- Node2 -->
<g id="Node000002" class="node">
<title>Node2</title>
<g id="a_Node000002"><a xlink:title=" ">
<polygon fill="#e0e0e0" stroke="#999999" points="51.25,-19.25 0,-19.25 0,0 51.25,0 51.25,-19.25"/>
<text text-anchor="middle" x="25.62" y="-5.75" font-family="Helvetica,sans-Serif" font-size="10.00">ostream</text>
</a>
</g>
</g>
<!-- Node1&#45;&gt;Node2 -->
<g id="edge1_Node000001_Node000002" class="edge">
<title>Node1&#45;&gt;Node2</title>
<g id="a_edge1_Node000001_Node000002"><a xlink:title=" ">
<path fill="none" stroke="#63b8ff" d="M48.36,-55.07C44.25,-47.03 39.53,-37.8 35.46,-29.84"/>
<polygon fill="#63b8ff" stroke="#63b8ff" points="38.63,-28.35 30.96,-21.04 32.39,-31.54 38.63,-28.35"/>
</a>
</g>
</g>
<!-- Node3 -->
<g id="Node000003" class="node">
<title>Node3</title>
<g id="a_Node000003"><a xlink:title=" ">
<polygon fill="#e0e0e0" stroke="#999999" points="116,-19.25 69.25,-19.25 69.25,0 116,0 116,-19.25"/>
<text text-anchor="middle" x="92.62" y="-5.75" font-family="Helvetica,sans-Serif" font-size="10.00">csignal</text>
</a>
</g>
</g>
<!-- Node1&#45;&gt;Node3 -->
<g id="edge2_Node000001_Node000003" class="edge">
<title>Node1&#45;&gt;Node3</title>
<g id="a_edge2_Node000001_Node000003"><a xlink:title=" ">
<path fill="none" stroke="#63b8ff" d="M69.2,-55.07C73.44,-47.03 78.3,-37.8 82.5,-29.84"/>
<polygon fill="#63b8ff" stroke="#63b8ff" points="85.57,-31.51 87.14,-21.03 79.38,-28.25 85.57,-31.51"/>
</a>
</g>
</g>
</g>
</svg>
