<?xml version="1.0" encoding="UTF-8" standalone="no"?>
<!DOCTYPE svg PUBLIC "-//W3C//DTD SVG 1.1//EN"
 "http://www.w3.org/Graphics/SVG/1.1/DTD/svg11.dtd">
<!-- Generated by graphviz version 12.2.1 (20241206.2353)
 -->
<!-- Title: /Users/tazz/Projects/prette/Sources/prette/swapchain.h Pages: 1 -->
<svg width="2069pt" height="361pt"
 viewBox="0.00 0.00 2069.00 360.75" xmlns="http://www.w3.org/2000/svg" xmlns:xlink="http://www.w3.org/1999/xlink">
<g id="graph0" class="graph" transform="scale(1 1) rotate(0) translate(4 356.75)">
<title>/Users/tazz/Projects/prette/Sources/prette/swapchain.h</title>
<!-- Node1 -->
<g id="Node000001" class="node">
<title>Node1</title>
<g id="a_Node000001"><a xlink:title=" ">
<polygon fill="#999999" stroke="#666666" points="1125.5,-352.75 1015,-352.75 1015,-311 1125.5,-311 1125.5,-352.75"/>
<text text-anchor="start" x="1023" y="-339.25" font-family="Helvetica,sans-Serif" font-size="10.00">/Users/tazz/Projects</text>
<text text-anchor="start" x="1023" y="-328" font-family="Helvetica,sans-Serif" font-size="10.00">/prette/Sources/prette</text>
<text text-anchor="middle" x="1070.25" y="-316.75" font-family="Helvetica,sans-Serif" font-size="10.00">/swapchain.h</text>
</a>
</g>
</g>
<!-- Node2 -->
<g id="Node000002" class="node">
<title>Node2</title>
<g id="a_Node000002"><a xlink:href="main_8cc.html" target="_top" xlink:title=" ">
<polygon fill="white" stroke="#666666" points="203.38,-113.88 83.12,-113.88 83.12,-83.38 203.38,-83.38 203.38,-113.88"/>
<text text-anchor="start" x="91.12" y="-100.38" font-family="Helvetica,sans-Serif" font-size="10.00">/Users/tazz/Projects</text>
<text text-anchor="middle" x="143.25" y="-89.12" font-family="Helvetica,sans-Serif" font-size="10.00">/prette/Sources/main.cc</text>
</a>
</g>
</g>
<!-- Node1&#45;&gt;Node2 -->
<g id="edge1_Node000001_Node000002" class="edge">
<title>Node1&#45;&gt;Node2</title>
<g id="a_edge1_Node000001_Node000002"><a xlink:title=" ">
<path fill="none" stroke="#63b8ff" d="M1003.54,-331.07C863.45,-329.07 531.13,-311.56 283.25,-197.25 234.55,-174.79 184.73,-135.29 159.72,-114.07"/>
<polygon fill="#63b8ff" stroke="#63b8ff" points="1003.34,-334.57 1013.38,-331.19 1003.42,-327.57 1003.34,-334.57"/>
</a>
</g>
</g>
<!-- Node3 -->
<g id="Node000003" class="node">
<title>Node3</title>
<g id="a_Node000003"><a xlink:href="camera_8cc.html" target="_top" xlink:title=" ">
<polygon fill="white" stroke="#666666" points="1125.5,-275 1015,-275 1015,-233.25 1125.5,-233.25 1125.5,-275"/>
<text text-anchor="start" x="1023" y="-261.5" font-family="Helvetica,sans-Serif" font-size="10.00">/Users/tazz/Projects</text>
<text text-anchor="start" x="1023" y="-250.25" font-family="Helvetica,sans-Serif" font-size="10.00">/prette/Sources/prette</text>
<text text-anchor="middle" x="1070.25" y="-239" font-family="Helvetica,sans-Serif" font-size="10.00">/camera.cc</text>
</a>
</g>
</g>
<!-- Node1&#45;&gt;Node3 -->
<g id="edge2_Node000001_Node000003" class="edge">
<title>Node1&#45;&gt;Node3</title>
<g id="a_edge2_Node000001_Node000003"><a xlink:title=" ">
<path fill="none" stroke="#63b8ff" d="M1070.25,-299.25C1070.25,-291.21 1070.25,-282.79 1070.25,-275.48"/>
<polygon fill="#63b8ff" stroke="#63b8ff" points="1066.75,-299.06 1070.25,-309.06 1073.75,-299.06 1066.75,-299.06"/>
</a>
</g>
</g>
<!-- Node4 -->
<g id="Node000004" class="node">
<title>Node4</title>
<g id="a_Node000004"><a xlink:href="gfx__vk_8cc.html" target="_top" xlink:title=" ">
<polygon fill="white" stroke="#666666" points="1254.5,-275 1144,-275 1144,-233.25 1254.5,-233.25 1254.5,-275"/>
<text text-anchor="start" x="1152" y="-261.5" font-family="Helvetica,sans-Serif" font-size="10.00">/Users/tazz/Projects</text>
<text text-anchor="start" x="1152" y="-250.25" font-family="Helvetica,sans-Serif" font-size="10.00">/prette/Sources/prette</text>
<text text-anchor="middle" x="1199.25" y="-239" font-family="Helvetica,sans-Serif" font-size="10.00">/gfx_vk.cc</text>
</a>
</g>
</g>
<!-- Node1&#45;&gt;Node4 -->
<g id="edge3_Node000001_Node000004" class="edge">
<title>Node1&#45;&gt;Node4</title>
<g id="a_edge3_Node000001_Node000004"><a xlink:title=" ">
<path fill="none" stroke="#63b8ff" d="M1114.69,-304.78C1131.02,-295.19 1149.25,-284.49 1164.58,-275.48"/>
<polygon fill="#63b8ff" stroke="#63b8ff" points="1112.98,-301.73 1106.12,-309.81 1116.52,-307.76 1112.98,-301.73"/>
</a>
</g>
</g>
<!-- Node5 -->
<g id="Node000005" class="node">
<title>Node5</title>
<g id="a_Node000005"><a xlink:href="gui__debug_8cc.html" target="_top" xlink:title=" ">
<polygon fill="white" stroke="#666666" points="110.5,-41.75 0,-41.75 0,0 110.5,0 110.5,-41.75"/>
<text text-anchor="start" x="8" y="-28.25" font-family="Helvetica,sans-Serif" font-size="10.00">/Users/tazz/Projects</text>
<text text-anchor="start" x="8" y="-17" font-family="Helvetica,sans-Serif" font-size="10.00">/prette/Sources/prette</text>
<text text-anchor="middle" x="55.25" y="-5.75" font-family="Helvetica,sans-Serif" font-size="10.00">/gui_debug.cc</text>
</a>
</g>
</g>
<!-- Node1&#45;&gt;Node5 -->
<g id="edge4_Node000001_Node000005" class="edge">
<title>Node1&#45;&gt;Node5</title>
<g id="a_edge4_Node000001_Node000005"><a xlink:title=" ">
<path fill="none" stroke="#63b8ff" d="M1003.43,-330.33C879.32,-328.24 605.3,-318.6 379.25,-275 264.58,-252.88 227.9,-258.15 128.25,-197.25 87.02,-172.05 70.49,-164.25 52.25,-119.5 42.01,-94.38 45.74,-62.52 49.98,-42.16"/>
<polygon fill="#63b8ff" stroke="#63b8ff" points="1003.04,-333.82 1013.09,-330.48 1003.15,-326.82 1003.04,-333.82"/>
</a>
</g>
</g>
<!-- Node6 -->
<g id="Node000006" class="node">
<title>Node6</title>
<g id="a_Node000006"><a xlink:href="gui__renderer_8cc.html" target="_top" xlink:title=" ">
<polygon fill="white" stroke="#666666" points="883.5,-197.25 773,-197.25 773,-155.5 883.5,-155.5 883.5,-197.25"/>
<text text-anchor="start" x="781" y="-183.75" font-family="Helvetica,sans-Serif" font-size="10.00">/Users/tazz/Projects</text>
<text text-anchor="start" x="781" y="-172.5" font-family="Helvetica,sans-Serif" font-size="10.00">/prette/Sources/prette</text>
<text text-anchor="middle" x="828.25" y="-161.25" font-family="Helvetica,sans-Serif" font-size="10.00">/gui_renderer.cc</text>
</a>
</g>
</g>
<!-- Node1&#45;&gt;Node6 -->
<g id="edge5_Node000001_Node000006" class="edge">
<title>Node1&#45;&gt;Node6</title>
<g id="a_edge5_Node000001_Node000006"><a xlink:title=" ">
<path fill="none" stroke="#63b8ff" d="M1003.78,-319.87C969.5,-311.73 928.46,-297.94 897.25,-275 869.49,-254.59 848.72,-219.6 837.55,-197.52"/>
<polygon fill="#63b8ff" stroke="#63b8ff" points="1002.64,-323.2 1013.17,-321.98 1004.18,-316.37 1002.64,-323.2"/>
</a>
</g>
</g>
<!-- Node7 -->
<g id="Node000007" class="node">
<title>Node7</title>
<g id="a_Node000007"><a xlink:href="gui__renderer_8h.html" target="_top" xlink:title=" ">
<polygon fill="white" stroke="#666666" points="700.5,-275 590,-275 590,-233.25 700.5,-233.25 700.5,-275"/>
<text text-anchor="start" x="598" y="-261.5" font-family="Helvetica,sans-Serif" font-size="10.00">/Users/tazz/Projects</text>
<text text-anchor="start" x="598" y="-250.25" font-family="Helvetica,sans-Serif" font-size="10.00">/prette/Sources/prette</text>
<text text-anchor="middle" x="645.25" y="-239" font-family="Helvetica,sans-Serif" font-size="10.00">/gui_renderer.h</text>
</a>
</g>
</g>
<!-- Node1&#45;&gt;Node7 -->
<g id="edge6_Node000001_Node000007" class="edge">
<title>Node1&#45;&gt;Node7</title>
<g id="a_edge6_Node000001_Node000007"><a xlink:title=" ">
<path fill="none" stroke="#63b8ff" d="M1003.56,-318.99C920.1,-304.11 778.7,-278.91 700.82,-265.03"/>
<polygon fill="#63b8ff" stroke="#63b8ff" points="1002.74,-322.4 1013.2,-320.71 1003.97,-315.51 1002.74,-322.4"/>
</a>
</g>
</g>
<!-- Node14 -->
<g id="Node000014" class="node">
<title>Node14</title>
<g id="a_Node000014"><a xlink:href="gui__viewport_8cc.html" target="_top" xlink:title=" ">
<polygon fill="white" stroke="#666666" points="876.5,-41.75 766,-41.75 766,0 876.5,0 876.5,-41.75"/>
<text text-anchor="start" x="774" y="-28.25" font-family="Helvetica,sans-Serif" font-size="10.00">/Users/tazz/Projects</text>
<text text-anchor="start" x="774" y="-17" font-family="Helvetica,sans-Serif" font-size="10.00">/prette/Sources/prette</text>
<text text-anchor="middle" x="821.25" y="-5.75" font-family="Helvetica,sans-Serif" font-size="10.00">/gui_viewport.cc</text>
</a>
</g>
</g>
<!-- Node1&#45;&gt;Node14 -->
<g id="edge25_Node000001_Node000014" class="edge">
<title>Node1&#45;&gt;Node14</title>
<g id="a_edge25_Node000001_Node000014"><a xlink:title=" ">
<path fill="none" stroke="#63b8ff" d="M1030.3,-303.24C1021.14,-295.13 1012.32,-285.56 1006.25,-275 961.76,-197.6 1025.69,-146.1 968.25,-77.75 945.5,-50.68 908.15,-36.7 876.79,-29.49"/>
<polygon fill="#63b8ff" stroke="#63b8ff" points="1028.01,-305.89 1037.94,-309.58 1032.48,-300.5 1028.01,-305.89"/>
</a>
</g>
</g>
<!-- Node15 -->
<g id="Node000015" class="node">
<title>Node15</title>
<g id="a_Node000015"><a xlink:href="renderer_8cc.html" target="_top" xlink:title=" ">
<polygon fill="white" stroke="#666666" points="793.5,-119.5 683,-119.5 683,-77.75 793.5,-77.75 793.5,-119.5"/>
<text text-anchor="start" x="691" y="-106" font-family="Helvetica,sans-Serif" font-size="10.00">/Users/tazz/Projects</text>
<text text-anchor="start" x="691" y="-94.75" font-family="Helvetica,sans-Serif" font-size="10.00">/prette/Sources/prette</text>
<text text-anchor="middle" x="738.25" y="-83.5" font-family="Helvetica,sans-Serif" font-size="10.00">/renderer.cc</text>
</a>
</g>
</g>
<!-- Node1&#45;&gt;Node15 -->
<g id="edge28_Node000001_Node000015" class="edge">
<title>Node1&#45;&gt;Node15</title>
<g id="a_edge28_Node000001_Node000015"><a xlink:title=" ">
<path fill="none" stroke="#63b8ff" d="M1004.43,-308.53C986.3,-300.1 967.67,-289.05 953.25,-275 910.53,-233.4 936.95,-194.97 892.25,-155.5 864.64,-131.12 825.56,-117.11 793.67,-109.21"/>
<polygon fill="#63b8ff" stroke="#63b8ff" points="1002.77,-311.63 1013.34,-312.47 1005.6,-305.22 1002.77,-311.63"/>
</a>
</g>
</g>
<!-- Node16 -->
<g id="Node000016" class="node">
<title>Node16</title>
<g id="a_Node000016"><a xlink:href="scene__renderer_8cc.html" target="_top" xlink:title=" ">
<polygon fill="white" stroke="#666666" points="959.5,-119.5 849,-119.5 849,-77.75 959.5,-77.75 959.5,-119.5"/>
<text text-anchor="start" x="857" y="-106" font-family="Helvetica,sans-Serif" font-size="10.00">/Users/tazz/Projects</text>
<text text-anchor="start" x="857" y="-94.75" font-family="Helvetica,sans-Serif" font-size="10.00">/prette/Sources/prette</text>
<text text-anchor="middle" x="904.25" y="-83.5" font-family="Helvetica,sans-Serif" font-size="10.00">/scene_renderer.cc</text>
</a>
</g>
</g>
<!-- Node1&#45;&gt;Node16 -->
<g id="edge30_Node000001_Node000016" class="edge">
<title>Node1&#45;&gt;Node16</title>
<g id="a_edge30_Node000001_Node000016"><a xlink:title=" ">
<path fill="none" stroke="#63b8ff" d="M1010.79,-305.04C997.11,-296.96 983.56,-286.96 973.25,-275 970.56,-271.88 929.36,-165.02 911.93,-119.66"/>
<polygon fill="#63b8ff" stroke="#63b8ff" points="1008.97,-308.03 1019.41,-309.84 1012.38,-301.92 1008.97,-308.03"/>
</a>
</g>
</g>
<!-- Node17 -->
<g id="Node000017" class="node">
<title>Node17</title>
<g id="a_Node000017"><a xlink:href="picking_8cc.html" target="_top" xlink:title=" ">
<polygon fill="white" stroke="#666666" points="1383.5,-275 1273,-275 1273,-233.25 1383.5,-233.25 1383.5,-275"/>
<text text-anchor="start" x="1281" y="-261.5" font-family="Helvetica,sans-Serif" font-size="10.00">/Users/tazz/Projects</text>
<text text-anchor="start" x="1281" y="-250.25" font-family="Helvetica,sans-Serif" font-size="10.00">/prette/Sources/prette</text>
<text text-anchor="middle" x="1328.25" y="-239" font-family="Helvetica,sans-Serif" font-size="10.00">/picking.cc</text>
</a>
</g>
</g>
<!-- Node1&#45;&gt;Node17 -->
<g id="edge26_Node000001_Node000017" class="edge">
<title>Node1&#45;&gt;Node17</title>
<g id="a_edge26_Node000001_Node000017"><a xlink:title=" ">
<path fill="none" stroke="#63b8ff" d="M1136.37,-312C1173.67,-301.28 1221.1,-287.54 1263.25,-275 1266.3,-274.09 1269.44,-273.15 1272.6,-272.2"/>
<polygon fill="#63b8ff" stroke="#63b8ff" points="1135.74,-308.54 1127.09,-314.66 1137.67,-315.27 1135.74,-308.54"/>
</a>
</g>
</g>
<!-- Node18 -->
<g id="Node000018" class="node">
<title>Node18</title>
<g id="a_Node000018"><a xlink:href="pipeline_8cc.html" target="_top" xlink:title=" ">
<polygon fill="white" stroke="#666666" points="1512.5,-275 1402,-275 1402,-233.25 1512.5,-233.25 1512.5,-275"/>
<text text-anchor="start" x="1410" y="-261.5" font-family="Helvetica,sans-Serif" font-size="10.00">/Users/tazz/Projects</text>
<text text-anchor="start" x="1410" y="-250.25" font-family="Helvetica,sans-Serif" font-size="10.00">/prette/Sources/prette</text>
<text text-anchor="middle" x="1457.25" y="-239" font-family="Helvetica,sans-Serif" font-size="10.00">/pipeline.cc</text>
</a>
</g>
</g>
<!-- Node1&#45;&gt;Node18 -->
<g id="edge27_Node000001_Node000018" class="edge">
<title>Node1&#45;&gt;Node18</title>
<g id="a_edge27_Node000001_Node000018"><a xlink:title=" ">
<path fill="none" stroke="#63b8ff" d="M1137.33,-321.73C1202.82,-312.22 1305.05,-295.81 1392.25,-275 1395.35,-274.26 1398.52,-273.46 1401.71,-272.61"/>
<polygon fill="#63b8ff" stroke="#63b8ff" points="1136.85,-318.26 1127.45,-323.15 1137.84,-325.19 1136.85,-318.26"/>
</a>
</g>
</g>
<!-- Node19 -->
<g id="Node000019" class="node">
<title>Node19</title>
<g id="a_Node000019"><a xlink:href="scene__render__pass_8cc.html" target="_top" xlink:title=" ">
<polygon fill="white" stroke="#666666" points="1647.88,-275 1530.62,-275 1530.62,-233.25 1647.88,-233.25 1647.88,-275"/>
<text text-anchor="start" x="1538.62" y="-261.5" font-family="Helvetica,sans-Serif" font-size="10.00">/Users/tazz/Projects</text>
<text text-anchor="start" x="1538.62" y="-250.25" font-family="Helvetica,sans-Serif" font-size="10.00">/prette/Sources/prette</text>
<text text-anchor="middle" x="1589.25" y="-239" font-family="Helvetica,sans-Serif" font-size="10.00">/scene_render_pass.cc</text>
</a>
</g>
</g>
<!-- Node1&#45;&gt;Node19 -->
<g id="edge29_Node000001_Node000019" class="edge">
<title>Node1&#45;&gt;Node19</title>
<g id="a_edge29_Node000001_Node000019"><a xlink:title=" ">
<path fill="none" stroke="#63b8ff" d="M1137.13,-325.98C1225.68,-318.72 1386.35,-302.88 1521.25,-275 1524.26,-274.38 1527.33,-273.69 1530.42,-272.95"/>
<polygon fill="#63b8ff" stroke="#63b8ff" points="1137.11,-322.47 1127.42,-326.76 1137.67,-329.44 1137.11,-322.47"/>
</a>
</g>
</g>
<!-- Node20 -->
<g id="Node000020" class="node">
<title>Node20</title>
<g id="a_Node000020"><a xlink:href="swapchain_8cc.html" target="_top" xlink:title=" ">
<polygon fill="white" stroke="#666666" points="1776.5,-275 1666,-275 1666,-233.25 1776.5,-233.25 1776.5,-275"/>
<text text-anchor="start" x="1674" y="-261.5" font-family="Helvetica,sans-Serif" font-size="10.00">/Users/tazz/Projects</text>
<text text-anchor="start" x="1674" y="-250.25" font-family="Helvetica,sans-Serif" font-size="10.00">/prette/Sources/prette</text>
<text text-anchor="middle" x="1721.25" y="-239" font-family="Helvetica,sans-Serif" font-size="10.00">/swapchain.cc</text>
</a>
</g>
</g>
<!-- Node1&#45;&gt;Node20 -->
<g id="edge31_Node000001_Node000020" class="edge">
<title>Node1&#45;&gt;Node20</title>
<g id="a_edge31_Node000001_Node000020"><a xlink:title=" ">
<path fill="none" stroke="#63b8ff" d="M1137.03,-328.99C1246.64,-324.9 1471.13,-312.34 1657.25,-275 1659.99,-274.45 1662.77,-273.83 1665.58,-273.16"/>
<polygon fill="#63b8ff" stroke="#63b8ff" points="1137.22,-325.48 1127.35,-329.34 1137.47,-332.48 1137.22,-325.48"/>
</a>
</g>
</g>
<!-- Node21 -->
<g id="Node000021" class="node">
<title>Node21</title>
<g id="a_Node000021"><a xlink:href="swapchain__frame_8cc.html" target="_top" xlink:title=" ">
<polygon fill="white" stroke="#666666" points="1905.5,-275 1795,-275 1795,-233.25 1905.5,-233.25 1905.5,-275"/>
<text text-anchor="start" x="1803" y="-261.5" font-family="Helvetica,sans-Serif" font-size="10.00">/Users/tazz/Projects</text>
<text text-anchor="start" x="1803" y="-250.25" font-family="Helvetica,sans-Serif" font-size="10.00">/prette/Sources/prette</text>
<text text-anchor="middle" x="1850.25" y="-239" font-family="Helvetica,sans-Serif" font-size="10.00">/swapchain_frame.cc</text>
</a>
</g>
</g>
<!-- Node1&#45;&gt;Node21 -->
<g id="edge32_Node000001_Node000021" class="edge">
<title>Node1&#45;&gt;Node21</title>
<g id="a_edge32_Node000001_Node000021"><a xlink:title=" ">
<path fill="none" stroke="#63b8ff" d="M1137.43,-330.5C1264.89,-328.72 1550.07,-319.59 1785.25,-275 1788.38,-274.41 1791.57,-273.72 1794.78,-272.96"/>
<polygon fill="#63b8ff" stroke="#63b8ff" points="1137.43,-327 1127.48,-330.63 1137.52,-334 1137.43,-327"/>
</a>
</g>
</g>
<!-- Node22 -->
<g id="Node000022" class="node">
<title>Node22</title>
<g id="a_Node000022"><a xlink:href="swapchain__render__pass_8cc.html" target="_top" xlink:title=" ">
<polygon fill="white" stroke="#666666" points="2061,-275 1923.5,-275 1923.5,-233.25 2061,-233.25 2061,-275"/>
<text text-anchor="start" x="1931.5" y="-261.5" font-family="Helvetica,sans-Serif" font-size="10.00">/Users/tazz/Projects</text>
<text text-anchor="start" x="1931.5" y="-250.25" font-family="Helvetica,sans-Serif" font-size="10.00">/prette/Sources/prette</text>
<text text-anchor="middle" x="1992.25" y="-239" font-family="Helvetica,sans-Serif" font-size="10.00">/swapchain_render_pass.cc</text>
</a>
</g>
</g>
<!-- Node1&#45;&gt;Node22 -->
<g id="edge33_Node000001_Node000022" class="edge">
<title>Node1&#45;&gt;Node22</title>
<g id="a_edge33_Node000001_Node000022"><a xlink:title=" ">
<path fill="none" stroke="#63b8ff" d="M1137.14,-330.6C1280.49,-329.1 1627.61,-320.61 1914.25,-275 1917.15,-274.54 1920.1,-274.02 1923.07,-273.45"/>
<polygon fill="#63b8ff" stroke="#63b8ff" points="1137.42,-327.1 1127.46,-330.69 1137.49,-334.1 1137.42,-327.1"/>
</a>
</g>
</g>
<!-- Node7&#45;&gt;Node5 -->
<g id="edge22_Node000007_Node000005" class="edge">
<title>Node7&#45;&gt;Node5</title>
<g id="a_edge22_Node000007_Node000005"><a xlink:title=" ">
<path fill="none" stroke="#63b8ff" d="M578.5,-247.28C442.17,-233.87 139.1,-195.96 74.25,-119.5 55.82,-97.77 53.26,-63.5 53.76,-41.88"/>
<polygon fill="#63b8ff" stroke="#63b8ff" points="577.8,-250.73 588.09,-248.21 578.47,-243.76 577.8,-250.73"/>
</a>
</g>
</g>
<!-- Node7&#45;&gt;Node6 -->
<g id="edge23_Node000007_Node000006" class="edge">
<title>Node7&#45;&gt;Node6</title>
<g id="a_edge23_Node000007_Node000006"><a xlink:title=" ">
<path fill="none" stroke="#63b8ff" d="M704.72,-228.51C728.76,-218.56 756.18,-207.21 779.07,-197.73"/>
<polygon fill="#63b8ff" stroke="#63b8ff" points="703.59,-225.19 695.69,-232.25 706.27,-231.66 703.59,-225.19"/>
</a>
</g>
</g>
<!-- Node8 -->
<g id="Node000008" class="node">
<title>Node8</title>
<g id="a_Node000008"><a xlink:href="gui_8cc.html" target="_top" xlink:title=" ">
<polygon fill="white" stroke="#666666" points="429.5,-41.75 319,-41.75 319,0 429.5,0 429.5,-41.75"/>
<text text-anchor="start" x="327" y="-28.25" font-family="Helvetica,sans-Serif" font-size="10.00">/Users/tazz/Projects</text>
<text text-anchor="start" x="327" y="-17" font-family="Helvetica,sans-Serif" font-size="10.00">/prette/Sources/prette</text>
<text text-anchor="middle" x="374.25" y="-5.75" font-family="Helvetica,sans-Serif" font-size="10.00">/gui.cc</text>
</a>
</g>
</g>
<!-- Node7&#45;&gt;Node8 -->
<g id="edge7_Node000007_Node000008" class="edge">
<title>Node7&#45;&gt;Node8</title>
<g id="a_edge7_Node000007_Node000008"><a xlink:title=" ">
<path fill="none" stroke="#63b8ff" d="M578.47,-252.81C486.7,-248.31 324.56,-224.89 250.25,-119.5 239.56,-104.33 240.18,-93.33 250.25,-77.75 265.44,-54.25 293.13,-40.53 318.5,-32.58"/>
<polygon fill="#63b8ff" stroke="#63b8ff" points="578.2,-256.3 588.33,-253.22 578.49,-249.31 578.2,-256.3"/>
</a>
</g>
</g>
<!-- Node9 -->
<g id="Node000009" class="node">
<title>Node9</title>
<g id="a_Node000009"><a xlink:href="gui_8h.html" target="_top" xlink:title=" ">
<polygon fill="white" stroke="#666666" points="611.5,-191.62 477,-191.62 477,-161.12 611.5,-161.12 611.5,-191.62"/>
<text text-anchor="start" x="485" y="-178.12" font-family="Helvetica,sans-Serif" font-size="10.00">/Users/tazz/Projects</text>
<text text-anchor="middle" x="544.25" y="-166.88" font-family="Helvetica,sans-Serif" font-size="10.00">/prette/Sources/prette/gui.h</text>
</a>
</g>
</g>
<!-- Node7&#45;&gt;Node9 -->
<g id="edge8_Node000007_Node000009" class="edge">
<title>Node7&#45;&gt;Node9</title>
<g id="a_edge8_Node000007_Node000009"><a xlink:title=" ">
<path fill="none" stroke="#63b8ff" d="M609.4,-226.24C594.01,-214.7 576.64,-201.67 563.7,-191.96"/>
<polygon fill="#63b8ff" stroke="#63b8ff" points="606.87,-228.72 616.97,-231.92 611.07,-223.12 606.87,-228.72"/>
</a>
</g>
</g>
<!-- Node7&#45;&gt;Node14 -->
<g id="edge24_Node000007_Node000014" class="edge">
<title>Node7&#45;&gt;Node14</title>
<g id="a_edge24_Node000007_Node000014"><a xlink:title=" ">
<path fill="none" stroke="#63b8ff" d="M678.81,-225.52C723.71,-188.45 798.23,-126.38 802.25,-119.5 816.37,-95.35 820.22,-62.67 821.16,-41.93"/>
<polygon fill="#63b8ff" stroke="#63b8ff" points="676.63,-222.78 671.15,-231.84 681.09,-228.18 676.63,-222.78"/>
</a>
</g>
</g>
<!-- Node9&#45;&gt;Node2 -->
<g id="edge9_Node000009_Node000002" class="edge">
<title>Node9&#45;&gt;Node2</title>
<g id="a_edge9_Node000009_Node000002"><a xlink:title=" ">
<path fill="none" stroke="#63b8ff" d="M465.65,-160.53C388.91,-146.03 273.78,-124.28 203.87,-111.08"/>
<polygon fill="#63b8ff" stroke="#63b8ff" points="464.72,-163.91 475.19,-162.33 466.02,-157.03 464.72,-163.91"/>
</a>
</g>
</g>
<!-- Node9&#45;&gt;Node8 -->
<g id="edge10_Node000009_Node000008" class="edge">
<title>Node9&#45;&gt;Node8</title>
<g id="a_edge10_Node000009_Node000008"><a xlink:title=" ">
<path fill="none" stroke="#63b8ff" d="M476.43,-156.7C455.08,-148.15 432.78,-136.12 416.25,-119.5 394.78,-97.92 383.54,-63.6 378.26,-41.93"/>
<polygon fill="#63b8ff" stroke="#63b8ff" points="475.13,-159.95 485.72,-160.2 477.6,-153.4 475.13,-159.95"/>
</a>
</g>
</g>
<!-- Node10 -->
<g id="Node000010" class="node">
<title>Node10</title>
<g id="a_Node000010"><a xlink:href="gui__camera_8h.html" target="_top" xlink:title=" ">
<polygon fill="white" stroke="#666666" points="535.5,-119.5 425,-119.5 425,-77.75 535.5,-77.75 535.5,-119.5"/>
<text text-anchor="start" x="433" y="-106" font-family="Helvetica,sans-Serif" font-size="10.00">/Users/tazz/Projects</text>
<text text-anchor="start" x="433" y="-94.75" font-family="Helvetica,sans-Serif" font-size="10.00">/prette/Sources/prette</text>
<text text-anchor="middle" x="480.25" y="-83.5" font-family="Helvetica,sans-Serif" font-size="10.00">/gui_camera.h</text>
</a>
</g>
</g>
<!-- Node9&#45;&gt;Node10 -->
<g id="edge11_Node000009_Node000010" class="edge">
<title>Node9&#45;&gt;Node10</title>
<g id="a_edge11_Node000009_Node000010"><a xlink:title=" ">
<path fill="none" stroke="#63b8ff" d="M524.71,-152.24C515.99,-141.92 505.81,-129.87 497.39,-119.91"/>
<polygon fill="#63b8ff" stroke="#63b8ff" points="521.81,-154.23 530.93,-159.61 527.15,-149.72 521.81,-154.23"/>
</a>
</g>
</g>
<!-- Node12 -->
<g id="Node000012" class="node">
<title>Node12</title>
<g id="a_Node000012"><a xlink:href="gui__debug_8h.html" target="_top" xlink:title=" ">
<polygon fill="white" stroke="#666666" points="369.5,-119.5 259,-119.5 259,-77.75 369.5,-77.75 369.5,-119.5"/>
<text text-anchor="start" x="267" y="-106" font-family="Helvetica,sans-Serif" font-size="10.00">/Users/tazz/Projects</text>
<text text-anchor="start" x="267" y="-94.75" font-family="Helvetica,sans-Serif" font-size="10.00">/prette/Sources/prette</text>
<text text-anchor="middle" x="314.25" y="-83.5" font-family="Helvetica,sans-Serif" font-size="10.00">/gui_debug.h</text>
</a>
</g>
</g>
<!-- Node9&#45;&gt;Node12 -->
<g id="edge14_Node000009_Node000012" class="edge">
<title>Node9&#45;&gt;Node12</title>
<g id="a_edge14_Node000009_Node000012"><a xlink:title=" ">
<path fill="none" stroke="#63b8ff" d="M488.8,-157.11C452.71,-145.23 405.82,-129.78 369.72,-117.89"/>
<polygon fill="#63b8ff" stroke="#63b8ff" points="487.6,-160.4 498.19,-160.21 489.79,-153.75 487.6,-160.4"/>
</a>
</g>
</g>
<!-- Node13 -->
<g id="Node000013" class="node">
<title>Node13</title>
<g id="a_Node000013"><a xlink:href="gui__viewport_8h.html" target="_top" xlink:title=" ">
<polygon fill="white" stroke="#666666" points="664.5,-119.5 554,-119.5 554,-77.75 664.5,-77.75 664.5,-119.5"/>
<text text-anchor="start" x="562" y="-106" font-family="Helvetica,sans-Serif" font-size="10.00">/Users/tazz/Projects</text>
<text text-anchor="start" x="562" y="-94.75" font-family="Helvetica,sans-Serif" font-size="10.00">/prette/Sources/prette</text>
<text text-anchor="middle" x="609.25" y="-83.5" font-family="Helvetica,sans-Serif" font-size="10.00">/gui_viewport.h</text>
</a>
</g>
</g>
<!-- Node9&#45;&gt;Node13 -->
<g id="edge17_Node000009_Node000013" class="edge">
<title>Node9&#45;&gt;Node13</title>
<g id="a_edge17_Node000009_Node000013"><a xlink:title=" ">
<path fill="none" stroke="#63b8ff" d="M564.1,-152.24C572.95,-141.92 583.29,-129.87 591.84,-119.91"/>
<polygon fill="#63b8ff" stroke="#63b8ff" points="561.62,-149.75 557.77,-159.62 566.94,-154.31 561.62,-149.75"/>
</a>
</g>
</g>
<!-- Node9&#45;&gt;Node15 -->
<g id="edge20_Node000009_Node000015" class="edge">
<title>Node9&#45;&gt;Node15</title>
<g id="a_edge20_Node000009_Node000015"><a xlink:title=" ">
<path fill="none" stroke="#63b8ff" d="M592.2,-156.65C620.77,-145.5 657.04,-131.33 686.29,-119.91"/>
<polygon fill="#63b8ff" stroke="#63b8ff" points="591.11,-153.32 583.07,-160.22 593.65,-159.84 591.11,-153.32"/>
</a>
</g>
</g>
<!-- Node9&#45;&gt;Node16 -->
<g id="edge21_Node000009_Node000016" class="edge">
<title>Node9&#45;&gt;Node16</title>
<g id="a_edge21_Node000009_Node000016"><a xlink:title=" ">
<path fill="none" stroke="#63b8ff" d="M623.08,-158.79C691.31,-144.43 788.25,-124.03 848.64,-111.33"/>
<polygon fill="#63b8ff" stroke="#63b8ff" points="622.51,-155.33 613.44,-160.82 623.95,-162.18 622.51,-155.33"/>
</a>
</g>
</g>
<!-- Node10&#45;&gt;Node8 -->
<g id="edge12_Node000010_Node000008" class="edge">
<title>Node10&#45;&gt;Node8</title>
<g id="a_edge12_Node000010_Node000008"><a xlink:title=" ">
<path fill="none" stroke="#63b8ff" d="M442.59,-70.71C429.47,-61.34 414.98,-50.98 402.73,-42.23"/>
<polygon fill="#63b8ff" stroke="#63b8ff" points="440.44,-73.48 450.61,-76.45 444.51,-67.78 440.44,-73.48"/>
</a>
</g>
</g>
<!-- Node11 -->
<g id="Node000011" class="node">
<title>Node11</title>
<g id="a_Node000011"><a xlink:href="gui__camera_8cc.html" target="_top" xlink:title=" ">
<polygon fill="white" stroke="#666666" points="558.5,-41.75 448,-41.75 448,0 558.5,0 558.5,-41.75"/>
<text text-anchor="start" x="456" y="-28.25" font-family="Helvetica,sans-Serif" font-size="10.00">/Users/tazz/Projects</text>
<text text-anchor="start" x="456" y="-17" font-family="Helvetica,sans-Serif" font-size="10.00">/prette/Sources/prette</text>
<text text-anchor="middle" x="503.25" y="-5.75" font-family="Helvetica,sans-Serif" font-size="10.00">/gui_camera.cc</text>
</a>
</g>
</g>
<!-- Node10&#45;&gt;Node11 -->
<g id="edge13_Node000010_Node000011" class="edge">
<title>Node10&#45;&gt;Node11</title>
<g id="a_edge13_Node000010_Node000011"><a xlink:title=" ">
<path fill="none" stroke="#63b8ff" d="M489.68,-66.56C492.17,-58.36 494.8,-49.71 497.07,-42.23"/>
<polygon fill="#63b8ff" stroke="#63b8ff" points="486.41,-65.29 486.85,-75.88 493.11,-67.33 486.41,-65.29"/>
</a>
</g>
</g>
<!-- Node12&#45;&gt;Node5 -->
<g id="edge16_Node000012_Node000005" class="edge">
<title>Node12&#45;&gt;Node5</title>
<g id="a_edge16_Node000012_Node000005"><a xlink:title=" ">
<path fill="none" stroke="#63b8ff" d="M247.88,-78.21C205.39,-65.79 150.9,-49.85 110.72,-38.1"/>
<polygon fill="#63b8ff" stroke="#63b8ff" points="246.65,-81.5 257.24,-80.95 248.62,-74.78 246.65,-81.5"/>
</a>
</g>
</g>
<!-- Node12&#45;&gt;Node8 -->
<g id="edge15_Node000012_Node000008" class="edge">
<title>Node12&#45;&gt;Node8</title>
<g id="a_edge15_Node000012_Node000008"><a xlink:title=" ">
<path fill="none" stroke="#63b8ff" d="M337.31,-68.51C344.26,-59.74 351.73,-50.3 358.13,-42.23"/>
<polygon fill="#63b8ff" stroke="#63b8ff" points="334.73,-66.13 331.27,-76.14 340.22,-70.47 334.73,-66.13"/>
</a>
</g>
</g>
<!-- Node13&#45;&gt;Node8 -->
<g id="edge18_Node000013_Node000008" class="edge">
<title>Node13&#45;&gt;Node8</title>
<g id="a_edge18_Node000013_Node000008"><a xlink:title=" ">
<path fill="none" stroke="#63b8ff" d="M542.77,-76.2C507.16,-64.72 463.78,-50.73 429.95,-39.83"/>
<polygon fill="#63b8ff" stroke="#63b8ff" points="541.53,-79.47 552.12,-79.21 543.67,-72.81 541.53,-79.47"/>
</a>
</g>
</g>
<!-- Node13&#45;&gt;Node14 -->
<g id="edge19_Node000013_Node000014" class="edge">
<title>Node13&#45;&gt;Node14</title>
<g id="a_edge19_Node000013_Node000014"><a xlink:title=" ">
<path fill="none" stroke="#63b8ff" d="M675.77,-73.86C704.62,-63.55 738.03,-51.61 765.55,-41.78"/>
<polygon fill="#63b8ff" stroke="#63b8ff" points="674.62,-70.55 666.38,-77.21 676.97,-77.14 674.62,-70.55"/>
</a>
</g>
</g>
</g>
</svg>
