<?xml version="1.0" encoding="UTF-8" standalone="no"?>
<!DOCTYPE svg PUBLIC "-//W3C//DTD SVG 1.1//EN"
 "http://www.w3.org/Graphics/SVG/1.1/DTD/svg11.dtd">
<!-- Generated by graphviz version 12.2.1 (20241206.2353)
 -->
<!-- Title: /Users/tazz/Projects/prette/Sources/prette/uri_parser.cc Pages: 1 -->
<svg width="1093pt" height="326pt"
 viewBox="0.00 0.00 1093.29 326.00" xmlns="http://www.w3.org/2000/svg" xmlns:xlink="http://www.w3.org/1999/xlink">
<g id="graph0" class="graph" transform="scale(1 1) rotate(0) translate(4 322)">
<title>/Users/tazz/Projects/prette/Sources/prette/uri_parser.cc</title>
<!-- Node1 -->
<g id="Node000001" class="node">
<title>Node1</title>
<g id="a_Node000001"><a xlink:title=" ">
<polygon fill="#999999" stroke="#666666" points="798.66,-318 688.16,-318 688.16,-276.25 798.66,-276.25 798.66,-318"/>
<text text-anchor="start" x="696.16" y="-304.5" font-family="Helvetica,sans-Serif" font-size="10.00">/Users/tazz/Projects</text>
<text text-anchor="start" x="696.16" y="-293.25" font-family="Helvetica,sans-Serif" font-size="10.00">/prette/Sources/prette</text>
<text text-anchor="middle" x="743.41" y="-282" font-family="Helvetica,sans-Serif" font-size="10.00">/uri_parser.cc</text>
</a>
</g>
</g>
<!-- Node2 -->
<g id="Node000002" class="node">
<title>Node2</title>
<g id="a_Node000002"><a xlink:href="uri__parser_8h.html" target="_top" xlink:title=" ">
<polygon fill="white" stroke="#666666" points="790.41,-240.25 696.41,-240.25 696.41,-221 790.41,-221 790.41,-240.25"/>
<text text-anchor="middle" x="743.41" y="-226.75" font-family="Helvetica,sans-Serif" font-size="10.00">prette/uri_parser.h</text>
</a>
</g>
</g>
<!-- Node1&#45;&gt;Node2 -->
<g id="edge1_Node000001_Node000002" class="edge">
<title>Node1&#45;&gt;Node2</title>
<g id="a_edge1_Node000001_Node000002"><a xlink:title=" ">
<path fill="none" stroke="#63b8ff" d="M743.41,-276.07C743.41,-268.4 743.41,-259.64 743.41,-251.95"/>
<polygon fill="#63b8ff" stroke="#63b8ff" points="746.91,-252.21 743.41,-242.21 739.91,-252.21 746.91,-252.21"/>
</a>
</g>
</g>
<!-- Node3 -->
<g id="Node000003" class="node">
<title>Node3</title>
<g id="a_Node000003"><a xlink:title=" ">
<polygon fill="#e0e0e0" stroke="#999999" points="876.04,-19.25 830.79,-19.25 830.79,0 876.04,0 876.04,-19.25"/>
<text text-anchor="middle" x="853.41" y="-5.75" font-family="Helvetica,sans-Serif" font-size="10.00">cstdint</text>
</a>
</g>
</g>
<!-- Node2&#45;&gt;Node3 -->
<g id="edge2_Node000002_Node000003" class="edge">
<title>Node2&#45;&gt;Node3</title>
<g id="a_edge2_Node000002_Node000003"><a xlink:title=" ">
<path fill="none" stroke="#63b8ff" d="M695.97,-226.49C612.88,-220.66 435.77,-206.74 287.41,-185 159.15,-166.2 -33.8,-234.06 5.41,-110.5 14.51,-81.85 18.12,-69.81 44.41,-55.25 112.94,-17.31 674.65,-11.61 819.46,-10.77"/>
<polygon fill="#63b8ff" stroke="#63b8ff" points="819.17,-14.27 829.15,-10.72 819.13,-7.27 819.17,-14.27"/>
</a>
</g>
</g>
<!-- Node4 -->
<g id="Node000004" class="node">
<title>Node4</title>
<g id="a_Node000004"><a xlink:title=" ">
<polygon fill="#e0e0e0" stroke="#999999" points="967.04,-129.75 915.79,-129.75 915.79,-110.5 967.04,-110.5 967.04,-129.75"/>
<text text-anchor="middle" x="941.41" y="-116.25" font-family="Helvetica,sans-Serif" font-size="10.00">ostream</text>
</a>
</g>
</g>
<!-- Node2&#45;&gt;Node4 -->
<g id="edge3_Node000002_Node000004" class="edge">
<title>Node2&#45;&gt;Node4</title>
<g id="a_edge3_Node000002_Node000004"><a xlink:title=" ">
<path fill="none" stroke="#63b8ff" d="M790.85,-224.36C823.33,-218.84 866.03,-207.63 897.41,-185 913.27,-173.56 925.29,-154.55 932.73,-140.24"/>
<polygon fill="#63b8ff" stroke="#63b8ff" points="935.82,-141.89 937.04,-131.36 929.52,-138.83 935.82,-141.89"/>
</a>
</g>
</g>
<!-- Node5 -->
<g id="Node000005" class="node">
<title>Node5</title>
<g id="a_Node000005"><a xlink:title=" ">
<polygon fill="#e0e0e0" stroke="#999999" points="496.04,-129.75 456.79,-129.75 456.79,-110.5 496.04,-110.5 496.04,-129.75"/>
<text text-anchor="middle" x="476.41" y="-116.25" font-family="Helvetica,sans-Serif" font-size="10.00">utility</text>
</a>
</g>
</g>
<!-- Node2&#45;&gt;Node5 -->
<g id="edge4_Node000002_Node000005" class="edge">
<title>Node2&#45;&gt;Node5</title>
<g id="a_edge4_Node000002_Node000005"><a xlink:title=" ">
<path fill="none" stroke="#63b8ff" d="M721.11,-220.56C673.37,-201.16 561.23,-155.59 506.94,-133.53"/>
<polygon fill="#63b8ff" stroke="#63b8ff" points="508.26,-130.29 497.67,-129.76 505.62,-136.77 508.26,-130.29"/>
</a>
</g>
</g>
<!-- Node6 -->
<g id="Node000006" class="node">
<title>Node6</title>
<g id="a_Node000006"><a xlink:href="uri_8h.html" target="_top" xlink:title=" ">
<polygon fill="white" stroke="#666666" points="358.66,-185 296.16,-185 296.16,-165.75 358.66,-165.75 358.66,-185"/>
<text text-anchor="middle" x="327.41" y="-171.5" font-family="Helvetica,sans-Serif" font-size="10.00">prette/uri.h</text>
</a>
</g>
</g>
<!-- Node2&#45;&gt;Node6 -->
<g id="edge5_Node000002_Node000006" class="edge">
<title>Node2&#45;&gt;Node6</title>
<g id="a_edge5_Node000002_Node000006"><a xlink:title=" ">
<path fill="none" stroke="#63b8ff" d="M696.1,-223.57C614.57,-213.13 448.83,-191.92 370.4,-181.88"/>
<polygon fill="#63b8ff" stroke="#63b8ff" points="370.89,-178.41 360.53,-180.61 370.01,-185.36 370.89,-178.41"/>
</a>
</g>
</g>
<!-- Node25 -->
<g id="Node000025" class="node">
<title>Node25</title>
<g id="a_Node000025"><a xlink:href="parser_8h.html" target="_top" xlink:title=" ">
<polygon fill="white" stroke="#666666" points="888.54,-185 810.29,-185 810.29,-165.75 888.54,-165.75 888.54,-185"/>
<text text-anchor="middle" x="849.41" y="-171.5" font-family="Helvetica,sans-Serif" font-size="10.00">prette/parser.h</text>
</a>
</g>
</g>
<!-- Node2&#45;&gt;Node25 -->
<g id="edge30_Node000002_Node000025" class="edge">
<title>Node2&#45;&gt;Node25</title>
<g id="a_edge30_Node000002_Node000025"><a xlink:title=" ">
<path fill="none" stroke="#63b8ff" d="M761.4,-220.59C777.77,-212.37 802.2,-200.09 821.18,-190.56"/>
<polygon fill="#63b8ff" stroke="#63b8ff" points="822.63,-193.75 829.99,-186.13 819.49,-187.49 822.63,-193.75"/>
</a>
</g>
</g>
<!-- Node26 -->
<g id="Node000026" class="node">
<title>Node26</title>
<g id="a_Node000026"><a xlink:href="bitfield_8h.html" target="_top" xlink:title=" ">
<polygon fill="white" stroke="#666666" points="1035.66,-185 955.16,-185 955.16,-165.75 1035.66,-165.75 1035.66,-185"/>
<text text-anchor="middle" x="995.41" y="-171.5" font-family="Helvetica,sans-Serif" font-size="10.00">prette/bitfield.h</text>
</a>
</g>
</g>
<!-- Node2&#45;&gt;Node26 -->
<g id="edge35_Node000002_Node000026" class="edge">
<title>Node2&#45;&gt;Node26</title>
<g id="a_edge35_Node000002_Node000026"><a xlink:title=" ">
<path fill="none" stroke="#63b8ff" d="M786.45,-220.53C830.08,-211.31 897.62,-197.04 944.03,-187.23"/>
<polygon fill="#63b8ff" stroke="#63b8ff" points="944.52,-190.71 953.58,-185.22 943.07,-183.86 944.52,-190.71"/>
</a>
</g>
</g>
<!-- Node6&#45;&gt;Node5 -->
<g id="edge13_Node000006_Node000005" class="edge">
<title>Node6&#45;&gt;Node5</title>
<g id="a_edge13_Node000006_Node000005"><a xlink:title=" ">
<path fill="none" stroke="#63b8ff" d="M352.69,-165.34C378.52,-156.11 418.65,-141.77 446.16,-131.94"/>
<polygon fill="#63b8ff" stroke="#63b8ff" points="447.07,-135.33 455.31,-128.67 444.72,-128.74 447.07,-135.33"/>
</a>
</g>
</g>
<!-- Node7 -->
<g id="Node000007" class="node">
<title>Node7</title>
<g id="a_Node000007"><a xlink:title=" ">
<polygon fill="#e0e0e0" stroke="#999999" points="84.04,-129.75 14.79,-129.75 14.79,-110.5 84.04,-110.5 84.04,-129.75"/>
<text text-anchor="middle" x="49.41" y="-116.25" font-family="Helvetica,sans-Serif" font-size="10.00">fmt/format.h</text>
</a>
</g>
</g>
<!-- Node6&#45;&gt;Node7 -->
<g id="edge6_Node000006_Node000007" class="edge">
<title>Node6&#45;&gt;Node7</title>
<g id="a_edge6_Node000006_Node000007"><a xlink:title=" ">
<path fill="none" stroke="#63b8ff" d="M295.99,-168.44C253.08,-160.31 173.47,-145.2 95.47,-130.14"/>
<polygon fill="#63b8ff" stroke="#63b8ff" points="96.44,-126.76 85.96,-128.3 95.12,-133.64 96.44,-126.76"/>
</a>
</g>
</g>
<!-- Node8 -->
<g id="Node000008" class="node">
<title>Node8</title>
<g id="a_Node000008"><a xlink:title=" ">
<polygon fill="#e0e0e0" stroke="#999999" points="180.54,-129.75 102.29,-129.75 102.29,-110.5 180.54,-110.5 180.54,-129.75"/>
<text text-anchor="middle" x="141.41" y="-116.25" font-family="Helvetica,sans-Serif" font-size="10.00">leveldb/slice.h</text>
</a>
</g>
</g>
<!-- Node6&#45;&gt;Node8 -->
<g id="edge7_Node000006_Node000008" class="edge">
<title>Node6&#45;&gt;Node8</title>
<g id="a_edge7_Node000006_Node000008"><a xlink:title=" ">
<path fill="none" stroke="#63b8ff" d="M295.86,-165.34C265.13,-156.54 218.2,-143.11 184.14,-133.36"/>
<polygon fill="#63b8ff" stroke="#63b8ff" points="185.15,-130.01 174.58,-130.62 183.23,-136.74 185.15,-130.01"/>
</a>
</g>
</g>
<!-- Node9 -->
<g id="Node000009" class="node">
<title>Node9</title>
<g id="a_Node000009"><a xlink:title=" ">
<polygon fill="#e0e0e0" stroke="#999999" points="221.54,-74.5 179.29,-74.5 179.29,-55.25 221.54,-55.25 221.54,-74.5"/>
<text text-anchor="middle" x="200.41" y="-61" font-family="Helvetica,sans-Serif" font-size="10.00">cstdio</text>
</a>
</g>
</g>
<!-- Node6&#45;&gt;Node9 -->
<g id="edge8_Node000006_Node000009" class="edge">
<title>Node6&#45;&gt;Node9</title>
<g id="a_edge8_Node000006_Node000009"><a xlink:title=" ">
<path fill="none" stroke="#63b8ff" d="M356.36,-165.33C387.06,-154.25 428.68,-134.03 409.41,-110.5 360.21,-50.41 313.45,-89.97 233.03,-74.71"/>
<polygon fill="#63b8ff" stroke="#63b8ff" points="233.98,-71.33 223.47,-72.63 232.49,-78.17 233.98,-71.33"/>
</a>
</g>
</g>
<!-- Node10 -->
<g id="Node000010" class="node">
<title>Node10</title>
<g id="a_Node000010"><a xlink:title=" ">
<polygon fill="#e0e0e0" stroke="#999999" points="103.29,-74.5 53.54,-74.5 53.54,-55.25 103.29,-55.25 103.29,-74.5"/>
<text text-anchor="middle" x="78.41" y="-61" font-family="Helvetica,sans-Serif" font-size="10.00">optional</text>
</a>
</g>
</g>
<!-- Node6&#45;&gt;Node10 -->
<g id="edge9_Node000006_Node000010" class="edge">
<title>Node6&#45;&gt;Node10</title>
<g id="a_edge9_Node000006_Node000010"><a xlink:title=" ">
<path fill="none" stroke="#63b8ff" d="M306.21,-165.27C285.87,-156.46 254.36,-142.58 227.41,-129.75 210.32,-121.61 206.66,-118.32 189.41,-110.5 164.17,-99.06 135.08,-87.42 113.01,-78.9"/>
<polygon fill="#63b8ff" stroke="#63b8ff" points="114.49,-75.71 103.9,-75.4 111.98,-82.25 114.49,-75.71"/>
</a>
</g>
</g>
<!-- Node11 -->
<g id="Node000011" class="node">
<title>Node11</title>
<g id="a_Node000011"><a xlink:title=" ">
<polygon fill="#e0e0e0" stroke="#999999" points="266.16,-129.75 236.66,-129.75 236.66,-110.5 266.16,-110.5 266.16,-129.75"/>
<text text-anchor="middle" x="251.41" y="-116.25" font-family="Helvetica,sans-Serif" font-size="10.00">set</text>
</a>
</g>
</g>
<!-- Node6&#45;&gt;Node11 -->
<g id="edge10_Node000006_Node000011" class="edge">
<title>Node6&#45;&gt;Node11</title>
<g id="a_edge10_Node000006_Node000011"><a xlink:title=" ">
<path fill="none" stroke="#63b8ff" d="M314.52,-165.34C303.39,-157.54 287.04,-146.09 273.78,-136.79"/>
<polygon fill="#63b8ff" stroke="#63b8ff" points="275.81,-133.94 265.61,-131.07 271.79,-139.68 275.81,-133.94"/>
</a>
</g>
</g>
<!-- Node12 -->
<g id="Node000012" class="node">
<title>Node12</title>
<g id="a_Node000012"><a xlink:title=" ">
<polygon fill="#e0e0e0" stroke="#999999" points="161.41,-74.5 121.41,-74.5 121.41,-55.25 161.41,-55.25 161.41,-74.5"/>
<text text-anchor="middle" x="141.41" y="-61" font-family="Helvetica,sans-Serif" font-size="10.00">string</text>
</a>
</g>
</g>
<!-- Node6&#45;&gt;Node12 -->
<g id="edge11_Node000006_Node000012" class="edge">
<title>Node6&#45;&gt;Node12</title>
<g id="a_edge11_Node000006_Node000012"><a xlink:title=" ">
<path fill="none" stroke="#63b8ff" d="M322.53,-165.61C314.45,-151.91 297.06,-125.45 275.41,-110.5 266.75,-104.52 209.41,-86.48 172.6,-75.25"/>
<polygon fill="#63b8ff" stroke="#63b8ff" points="173.94,-72 163.36,-72.45 171.91,-78.7 173.94,-72"/>
</a>
</g>
</g>
<!-- Node13 -->
<g id="Node000013" class="node">
<title>Node13</title>
<g id="a_Node000013"><a xlink:title=" ">
<polygon fill="#e0e0e0" stroke="#999999" points="400.16,-129.75 322.66,-129.75 322.66,-110.5 400.16,-110.5 400.16,-129.75"/>
<text text-anchor="middle" x="361.41" y="-116.25" font-family="Helvetica,sans-Serif" font-size="10.00">unordered_set</text>
</a>
</g>
</g>
<!-- Node6&#45;&gt;Node13 -->
<g id="edge12_Node000006_Node000013" class="edge">
<title>Node6&#45;&gt;Node13</title>
<g id="a_edge12_Node000006_Node000013"><a xlink:title=" ">
<path fill="none" stroke="#63b8ff" d="M333.03,-165.58C337.53,-158.53 344,-148.4 349.63,-139.58"/>
<polygon fill="#63b8ff" stroke="#63b8ff" points="352.43,-141.7 354.86,-131.38 346.53,-137.93 352.43,-141.7"/>
</a>
</g>
</g>
<!-- Node14 -->
<g id="Node000014" class="node">
<title>Node14</title>
<g id="a_Node000014"><a xlink:href="common_8h.html" target="_top" xlink:title=" ">
<polygon fill="white" stroke="#666666" points="603.16,-129.75 513.66,-129.75 513.66,-110.5 603.16,-110.5 603.16,-129.75"/>
<text text-anchor="middle" x="558.41" y="-116.25" font-family="Helvetica,sans-Serif" font-size="10.00">prette/common.h</text>
</a>
</g>
</g>
<!-- Node6&#45;&gt;Node14 -->
<g id="edge14_Node000006_Node000014" class="edge">
<title>Node6&#45;&gt;Node14</title>
<g id="a_edge14_Node000006_Node000014"><a xlink:title=" ">
<path fill="none" stroke="#63b8ff" d="M359.05,-167.08C397.44,-158.23 462.64,-143.2 507.99,-132.75"/>
<polygon fill="#63b8ff" stroke="#63b8ff" points="508.62,-136.19 517.58,-130.54 507.05,-129.37 508.62,-136.19"/>
</a>
</g>
</g>
<!-- Node14&#45;&gt;Node3 -->
<g id="edge20_Node000014_Node000003" class="edge">
<title>Node14&#45;&gt;Node3</title>
<g id="a_edge20_Node000014_Node000003"><a xlink:title=" ">
<path fill="none" stroke="#63b8ff" d="M603.61,-115.23C647.38,-110.17 714.81,-98.88 768.41,-74.5 794.26,-62.74 819.73,-42.06 835.95,-27.41"/>
<polygon fill="#63b8ff" stroke="#63b8ff" points="838.31,-30 843.25,-20.63 833.54,-24.87 838.31,-30"/>
</a>
</g>
</g>
<!-- Node14&#45;&gt;Node9 -->
<g id="edge21_Node000014_Node000009" class="edge">
<title>Node14&#45;&gt;Node9</title>
<g id="a_edge21_Node000014_Node000009"><a xlink:title=" ">
<path fill="none" stroke="#63b8ff" d="M513.32,-111.69C510.65,-111.28 508,-110.88 505.41,-110.5 387.03,-93.12 353.07,-99.21 233.05,-74.78"/>
<polygon fill="#63b8ff" stroke="#63b8ff" points="233.93,-71.39 223.43,-72.79 232.51,-78.24 233.93,-71.39"/>
</a>
</g>
</g>
<!-- Node14&#45;&gt;Node10 -->
<g id="edge25_Node000014_Node000010" class="edge">
<title>Node14&#45;&gt;Node10</title>
<g id="a_edge25_Node000014_Node000010"><a xlink:title=" ">
<path fill="none" stroke="#63b8ff" d="M513.34,-111.57C510.66,-111.19 508,-110.83 505.41,-110.5 335.07,-88.86 287.28,-103.51 114.84,-74.64"/>
<polygon fill="#63b8ff" stroke="#63b8ff" points="115.51,-71.21 105.06,-72.98 114.33,-78.11 115.51,-71.21"/>
</a>
</g>
</g>
<!-- Node14&#45;&gt;Node12 -->
<g id="edge26_Node000014_Node000012" class="edge">
<title>Node14&#45;&gt;Node12</title>
<g id="a_edge26_Node000014_Node000012"><a xlink:title=" ">
<path fill="none" stroke="#63b8ff" d="M513.33,-111.62C510.66,-111.23 508,-110.85 505.41,-110.5 360.64,-90.96 319.24,-103.33 173.07,-74.7"/>
<polygon fill="#63b8ff" stroke="#63b8ff" points="173.87,-71.29 163.38,-72.76 172.5,-78.15 173.87,-71.29"/>
</a>
</g>
</g>
<!-- Node15 -->
<g id="Node000015" class="node">
<title>Node15</title>
<g id="a_Node000015"><a xlink:title=" ">
<polygon fill="#e0e0e0" stroke="#999999" points="891.41,-74.5 815.41,-74.5 815.41,-55.25 891.41,-55.25 891.41,-74.5"/>
<text text-anchor="middle" x="853.41" y="-61" font-family="Helvetica,sans-Serif" font-size="10.00">glog/logging.h</text>
</a>
</g>
</g>
<!-- Node14&#45;&gt;Node15 -->
<g id="edge15_Node000014_Node000015" class="edge">
<title>Node14&#45;&gt;Node15</title>
<g id="a_edge15_Node000014_Node000015"><a xlink:title=" ">
<path fill="none" stroke="#63b8ff" d="M603.54,-110.98C657.75,-101.19 748.36,-84.84 804.29,-74.74"/>
<polygon fill="#63b8ff" stroke="#63b8ff" points="804.62,-78.24 813.84,-73.02 803.38,-71.35 804.62,-78.24"/>
</a>
</g>
</g>
<!-- Node16 -->
<g id="Node000016" class="node">
<title>Node16</title>
<g id="a_Node000016"><a xlink:title=" ">
<polygon fill="#e0e0e0" stroke="#999999" points="285.04,-74.5 239.79,-74.5 239.79,-55.25 285.04,-55.25 285.04,-74.5"/>
<text text-anchor="middle" x="262.41" y="-61" font-family="Helvetica,sans-Serif" font-size="10.00">units.h</text>
</a>
</g>
</g>
<!-- Node14&#45;&gt;Node16 -->
<g id="edge16_Node000014_Node000016" class="edge">
<title>Node14&#45;&gt;Node16</title>
<g id="a_edge16_Node000014_Node000016"><a xlink:title=" ">
<path fill="none" stroke="#63b8ff" d="M513.32,-111.75C450.26,-101.39 339.39,-83.06 296.59,-74.67"/>
<polygon fill="#63b8ff" stroke="#63b8ff" points="297.41,-71.26 286.9,-72.67 295.99,-78.12 297.41,-71.26"/>
</a>
</g>
</g>
<!-- Node17 -->
<g id="Node000017" class="node">
<title>Node17</title>
<g id="a_Node000017"><a xlink:title=" ">
<polygon fill="#e0e0e0" stroke="#999999" points="345.54,-74.5 303.29,-74.5 303.29,-55.25 345.54,-55.25 345.54,-74.5"/>
<text text-anchor="middle" x="324.41" y="-61" font-family="Helvetica,sans-Serif" font-size="10.00">uuid.h</text>
</a>
</g>
</g>
<!-- Node14&#45;&gt;Node17 -->
<g id="edge17_Node000014_Node000017" class="edge">
<title>Node14&#45;&gt;Node17</title>
<g id="a_edge17_Node000014_Node000017"><a xlink:title=" ">
<path fill="none" stroke="#63b8ff" d="M513.25,-110.12C474.21,-102.14 416.03,-89.79 357.02,-75.04"/>
<polygon fill="#63b8ff" stroke="#63b8ff" points="358.02,-71.68 347.47,-72.63 356.31,-78.47 358.02,-71.68"/>
</a>
</g>
</g>
<!-- Node18 -->
<g id="Node000018" class="node">
<title>Node18</title>
<g id="a_Node000018"><a xlink:title=" ">
<polygon fill="#e0e0e0" stroke="#999999" points="397.04,-74.5 363.79,-74.5 363.79,-55.25 397.04,-55.25 397.04,-74.5"/>
<text text-anchor="middle" x="380.41" y="-61" font-family="Helvetica,sans-Serif" font-size="10.00">uv.h</text>
</a>
</g>
</g>
<!-- Node14&#45;&gt;Node18 -->
<g id="edge18_Node000014_Node000018" class="edge">
<title>Node14&#45;&gt;Node18</title>
<g id="a_edge18_Node000014_Node000018"><a xlink:title=" ">
<path fill="none" stroke="#63b8ff" d="M526.29,-110.04C497.69,-101.88 454.45,-89.36 408.29,-75.01"/>
<polygon fill="#63b8ff" stroke="#63b8ff" points="409.48,-71.71 398.89,-72.07 407.4,-78.39 409.48,-71.71"/>
</a>
</g>
</g>
<!-- Node19 -->
<g id="Node000019" class="node">
<title>Node19</title>
<g id="a_Node000019"><a xlink:title=" ">
<polygon fill="#e0e0e0" stroke="#999999" points="471.29,-74.5 415.54,-74.5 415.54,-55.25 471.29,-55.25 471.29,-74.5"/>
<text text-anchor="middle" x="443.41" y="-61" font-family="Helvetica,sans-Serif" font-size="10.00">algorithm</text>
</a>
</g>
</g>
<!-- Node14&#45;&gt;Node19 -->
<g id="edge19_Node000014_Node000019" class="edge">
<title>Node14&#45;&gt;Node19</title>
<g id="a_edge19_Node000014_Node000019"><a xlink:title=" ">
<path fill="none" stroke="#63b8ff" d="M538.91,-110.09C520.9,-101.75 493.89,-89.25 473.19,-79.66"/>
<polygon fill="#63b8ff" stroke="#63b8ff" points="474.94,-76.61 464.39,-75.59 472,-82.97 474.94,-76.61"/>
</a>
</g>
</g>
<!-- Node20 -->
<g id="Node000020" class="node">
<title>Node20</title>
<g id="a_Node000020"><a xlink:title=" ">
<polygon fill="#e0e0e0" stroke="#999999" points="549.91,-74.5 488.91,-74.5 488.91,-55.25 549.91,-55.25 549.91,-74.5"/>
<text text-anchor="middle" x="519.41" y="-61" font-family="Helvetica,sans-Serif" font-size="10.00">filesystem</text>
</a>
</g>
</g>
<!-- Node14&#45;&gt;Node20 -->
<g id="edge22_Node000014_Node000020" class="edge">
<title>Node14&#45;&gt;Node20</title>
<g id="a_edge22_Node000014_Node000020"><a xlink:title=" ">
<path fill="none" stroke="#63b8ff" d="M551.97,-110.33C546.76,-103.21 539.23,-92.93 532.72,-84.05"/>
<polygon fill="#63b8ff" stroke="#63b8ff" points="535.62,-82.08 526.89,-76.08 529.97,-86.22 535.62,-82.08"/>
</a>
</g>
</g>
<!-- Node21 -->
<g id="Node000021" class="node">
<title>Node21</title>
<g id="a_Node000021"><a xlink:title=" ">
<polygon fill="#e0e0e0" stroke="#999999" points="626.41,-74.5 568.41,-74.5 568.41,-55.25 626.41,-55.25 626.41,-74.5"/>
<text text-anchor="middle" x="597.41" y="-61" font-family="Helvetica,sans-Serif" font-size="10.00">functional</text>
</a>
</g>
</g>
<!-- Node14&#45;&gt;Node21 -->
<g id="edge23_Node000014_Node000021" class="edge">
<title>Node14&#45;&gt;Node21</title>
<g id="a_edge23_Node000014_Node000021"><a xlink:title=" ">
<path fill="none" stroke="#63b8ff" d="M564.85,-110.33C570.07,-103.21 577.6,-92.93 584.11,-84.05"/>
<polygon fill="#63b8ff" stroke="#63b8ff" points="586.86,-86.22 589.94,-76.08 581.21,-82.08 586.86,-86.22"/>
</a>
</g>
</g>
<!-- Node22 -->
<g id="Node000022" class="node">
<title>Node22</title>
<g id="a_Node000022"><a xlink:title=" ">
<polygon fill="#e0e0e0" stroke="#999999" points="698.16,-74.5 644.66,-74.5 644.66,-55.25 698.16,-55.25 698.16,-74.5"/>
<text text-anchor="middle" x="671.41" y="-61" font-family="Helvetica,sans-Serif" font-size="10.00">iostream</text>
</a>
</g>
</g>
<!-- Node14&#45;&gt;Node22 -->
<g id="edge24_Node000014_Node000022" class="edge">
<title>Node14&#45;&gt;Node22</title>
<g id="a_edge24_Node000014_Node000022"><a xlink:title=" ">
<path fill="none" stroke="#63b8ff" d="M577.58,-110.09C595.2,-101.79 621.57,-89.36 641.88,-79.79"/>
<polygon fill="#63b8ff" stroke="#63b8ff" points="643.23,-83.03 650.78,-75.6 640.24,-76.69 643.23,-83.03"/>
</a>
</g>
</g>
<!-- Node23 -->
<g id="Node000023" class="node">
<title>Node23</title>
<g id="a_Node000023"><a xlink:title=" ">
<polygon fill="#e0e0e0" stroke="#999999" points="758.91,-74.5 715.91,-74.5 715.91,-55.25 758.91,-55.25 758.91,-74.5"/>
<text text-anchor="middle" x="737.41" y="-61" font-family="Helvetica,sans-Serif" font-size="10.00">vector</text>
</a>
</g>
</g>
<!-- Node14&#45;&gt;Node23 -->
<g id="edge27_Node000014_Node000023" class="edge">
<title>Node14&#45;&gt;Node23</title>
<g id="a_edge27_Node000014_Node000023"><a xlink:title=" ">
<path fill="none" stroke="#63b8ff" d="M588.78,-110.09C620.99,-100.51 671.7,-85.43 704.75,-75.59"/>
<polygon fill="#63b8ff" stroke="#63b8ff" points="705.61,-78.99 714.2,-72.78 703.62,-72.28 705.61,-78.99"/>
</a>
</g>
</g>
<!-- Node24 -->
<g id="Node000024" class="node">
<title>Node24</title>
<g id="a_Node000024"><a xlink:href="platform_8h.html" target="_top" xlink:title=" ">
<polygon fill="white" stroke="#666666" points="1035.04,-74.5 947.79,-74.5 947.79,-55.25 1035.04,-55.25 1035.04,-74.5"/>
<text text-anchor="middle" x="991.41" y="-61" font-family="Helvetica,sans-Serif" font-size="10.00">prette/platform.h</text>
</a>
</g>
</g>
<!-- Node14&#45;&gt;Node24 -->
<g id="edge28_Node000014_Node000024" class="edge">
<title>Node14&#45;&gt;Node24</title>
<g id="a_edge28_Node000014_Node000024"><a xlink:title=" ">
<path fill="none" stroke="#63b8ff" d="M603.53,-113.58C683.44,-103.75 849.59,-83.32 936.2,-72.66"/>
<polygon fill="#63b8ff" stroke="#63b8ff" points="936.37,-76.17 945.87,-71.48 935.52,-69.22 936.37,-76.17"/>
</a>
</g>
</g>
<!-- Node24&#45;&gt;Node3 -->
<g id="edge29_Node000024_Node000003" class="edge">
<title>Node24&#45;&gt;Node3</title>
<g id="a_edge29_Node000024_Node000003"><a xlink:title=" ">
<path fill="none" stroke="#63b8ff" d="M968,-54.84C945.77,-46.26 912.09,-33.27 886.99,-23.58"/>
<polygon fill="#63b8ff" stroke="#63b8ff" points="888.48,-20.4 877.89,-20.07 885.96,-26.93 888.48,-20.4"/>
</a>
</g>
</g>
<!-- Node25&#45;&gt;Node3 -->
<g id="edge32_Node000025_Node000003" class="edge">
<title>Node25&#45;&gt;Node3</title>
<g id="a_edge32_Node000025_Node000003"><a xlink:title=" ">
<path fill="none" stroke="#63b8ff" d="M855.93,-165.32C867.61,-148.46 891.72,-110.65 900.41,-74.5 902.42,-66.18 903.79,-63.11 900.41,-55.25 895.49,-43.77 886,-33.86 876.82,-26.31"/>
<polygon fill="#63b8ff" stroke="#63b8ff" points="879.23,-23.74 869.15,-20.49 875.01,-29.32 879.23,-23.74"/>
</a>
</g>
</g>
<!-- Node25&#45;&gt;Node4 -->
<g id="edge33_Node000025_Node000004" class="edge">
<title>Node25&#45;&gt;Node4</title>
<g id="a_edge33_Node000025_Node000004"><a xlink:title=" ">
<path fill="none" stroke="#63b8ff" d="M865.02,-165.34C879.03,-157.23 899.85,-145.18 916.22,-135.71"/>
<polygon fill="#63b8ff" stroke="#63b8ff" points="917.52,-139 924.42,-130.96 914.01,-132.94 917.52,-139"/>
</a>
</g>
</g>
<!-- Node25&#45;&gt;Node14 -->
<g id="edge34_Node000025_Node000014" class="edge">
<title>Node25&#45;&gt;Node14</title>
<g id="a_edge34_Node000025_Node000014"><a xlink:title=" ">
<path fill="none" stroke="#63b8ff" d="M809.87,-167.14C759.46,-157.91 671.99,-141.91 614.66,-131.42"/>
<polygon fill="#63b8ff" stroke="#63b8ff" points="615.57,-128.03 605.1,-129.67 614.31,-134.91 615.57,-128.03"/>
</a>
</g>
</g>
<!-- Node25&#45;&gt;Node15 -->
<g id="edge31_Node000025_Node000015" class="edge">
<title>Node25&#45;&gt;Node15</title>
<g id="a_edge31_Node000025_Node000015"><a xlink:title=" ">
<path fill="none" stroke="#63b8ff" d="M849.74,-165.5C850.38,-148.25 851.79,-109.83 852.67,-86.06"/>
<polygon fill="#63b8ff" stroke="#63b8ff" points="856.16,-86.51 853.03,-76.39 849.16,-86.25 856.16,-86.51"/>
</a>
</g>
</g>
<!-- Node26&#45;&gt;Node24 -->
<g id="edge37_Node000026_Node000024" class="edge">
<title>Node26&#45;&gt;Node24</title>
<g id="a_edge37_Node000026_Node000024"><a xlink:title=" ">
<path fill="none" stroke="#63b8ff" d="M995.09,-165.5C994.45,-148.25 993.04,-109.83 992.16,-86.06"/>
<polygon fill="#63b8ff" stroke="#63b8ff" points="995.67,-86.25 991.8,-76.39 988.67,-86.51 995.67,-86.25"/>
</a>
</g>
</g>
<!-- Node27 -->
<g id="Node000027" class="node">
<title>Node27</title>
<g id="a_Node000027"><a xlink:title=" ">
<polygon fill="#e0e0e0" stroke="#999999" points="1085.29,-129.75 1023.54,-129.75 1023.54,-110.5 1085.29,-110.5 1085.29,-129.75"/>
<text text-anchor="middle" x="1054.41" y="-116.25" font-family="Helvetica,sans-Serif" font-size="10.00">type_traits</text>
</a>
</g>
</g>
<!-- Node26&#45;&gt;Node27 -->
<g id="edge36_Node000026_Node000027" class="edge">
<title>Node26&#45;&gt;Node27</title>
<g id="a_edge36_Node000026_Node000027"><a xlink:title=" ">
<path fill="none" stroke="#63b8ff" d="M1005.42,-165.34C1013.78,-157.8 1025.91,-146.85 1036.02,-137.73"/>
<polygon fill="#63b8ff" stroke="#63b8ff" points="1038.35,-140.34 1043.43,-131.04 1033.66,-135.14 1038.35,-140.34"/>
</a>
</g>
</g>
</g>
</svg>
