<?xml version="1.0" encoding="UTF-8" standalone="no"?>
<!DOCTYPE svg PUBLIC "-//W3C//DTD SVG 1.1//EN"
 "http://www.w3.org/Graphics/SVG/1.1/DTD/svg11.dtd">
<!-- Generated by graphviz version 12.2.1 (20241206.2353)
 -->
<!-- Title: /Users/tazz/Projects/prette/Sources/prette/window_event.h Pages: 1 -->
<svg width="1332pt" height="437pt"
 viewBox="0.00 0.00 1331.69 436.50" xmlns="http://www.w3.org/2000/svg" xmlns:xlink="http://www.w3.org/1999/xlink">
<g id="graph0" class="graph" transform="scale(1 1) rotate(0) translate(4 432.5)">
<title>/Users/tazz/Projects/prette/Sources/prette/window_event.h</title>
<!-- Node1 -->
<g id="Node000001" class="node">
<title>Node1</title>
<g id="a_Node000001"><a xlink:title=" ">
<polygon fill="#999999" stroke="#666666" points="688.32,-428.5 577.82,-428.5 577.82,-386.75 688.32,-386.75 688.32,-428.5"/>
<text text-anchor="start" x="585.82" y="-415" font-family="Helvetica,sans-Serif" font-size="10.00">/Users/tazz/Projects</text>
<text text-anchor="start" x="585.82" y="-403.75" font-family="Helvetica,sans-Serif" font-size="10.00">/prette/Sources/prette</text>
<text text-anchor="middle" x="633.07" y="-392.5" font-family="Helvetica,sans-Serif" font-size="10.00">/window_event.h</text>
</a>
</g>
</g>
<!-- Node2 -->
<g id="Node000002" class="node">
<title>Node2</title>
<g id="a_Node000002"><a xlink:href="dimension_8h.html" target="_top" xlink:title=" ">
<polygon fill="white" stroke="#666666" points="1084.19,-350.75 987.94,-350.75 987.94,-331.5 1084.19,-331.5 1084.19,-350.75"/>
<text text-anchor="middle" x="1036.07" y="-337.25" font-family="Helvetica,sans-Serif" font-size="10.00">prette/dimension.h</text>
</a>
</g>
</g>
<!-- Node1&#45;&gt;Node2 -->
<g id="edge1_Node000001_Node000002" class="edge">
<title>Node1&#45;&gt;Node2</title>
<g id="a_edge1_Node000001_Node000002"><a xlink:title=" ">
<path fill="none" stroke="#63b8ff" d="M688.68,-397.72C764.31,-385.62 899.05,-364.05 976.62,-351.64"/>
<polygon fill="#63b8ff" stroke="#63b8ff" points="976.82,-355.15 986.14,-350.12 975.72,-348.24 976.82,-355.15"/>
</a>
</g>
</g>
<!-- Node29 -->
<g id="Node000029" class="node">
<title>Node29</title>
<g id="a_Node000029"><a xlink:href="event_8h.html" target="_top" xlink:title=" ">
<polygon fill="white" stroke="#666666" points="307.07,-185 231.07,-185 231.07,-165.75 307.07,-165.75 307.07,-185"/>
<text text-anchor="middle" x="269.07" y="-171.5" font-family="Helvetica,sans-Serif" font-size="10.00">prette/event.h</text>
</a>
</g>
</g>
<!-- Node1&#45;&gt;Node29 -->
<g id="edge44_Node000001_Node000029" class="edge">
<title>Node1&#45;&gt;Node29</title>
<g id="a_edge44_Node000001_Node000029"><a xlink:title=" ">
<path fill="none" stroke="#63b8ff" d="M577.56,-400.49C437.32,-383.74 74.87,-332.22 4.07,-240.25 -1.15,-233.47 -1.46,-227.53 4.07,-221 31.09,-189.05 150.34,-179.96 219.32,-177.39"/>
<polygon fill="#63b8ff" stroke="#63b8ff" points="219.36,-180.89 229.24,-177.05 219.13,-173.89 219.36,-180.89"/>
</a>
</g>
</g>
<!-- Node36 -->
<g id="Node000036" class="node">
<title>Node36</title>
<g id="a_Node000036"><a xlink:href="shape_8h.html" target="_top" xlink:title=" ">
<polygon fill="white" stroke="#666666" points="693.94,-350.75 572.19,-350.75 572.19,-331.5 693.94,-331.5 693.94,-350.75"/>
<text text-anchor="middle" x="633.07" y="-337.25" font-family="Helvetica,sans-Serif" font-size="10.00">prette/geometry/shape.h</text>
</a>
</g>
</g>
<!-- Node1&#45;&gt;Node36 -->
<g id="edge45_Node000001_Node000036" class="edge">
<title>Node1&#45;&gt;Node36</title>
<g id="a_edge45_Node000001_Node000036"><a xlink:title=" ">
<path fill="none" stroke="#63b8ff" d="M633.07,-386.57C633.07,-378.9 633.07,-370.14 633.07,-362.45"/>
<polygon fill="#63b8ff" stroke="#63b8ff" points="636.57,-362.71 633.07,-352.71 629.57,-362.71 636.57,-362.71"/>
</a>
</g>
</g>
<!-- Node3 -->
<g id="Node000003" class="node">
<title>Node3</title>
<g id="a_Node000003"><a xlink:title=" ">
<polygon fill="#e0e0e0" stroke="#999999" points="1323.69,-295.5 1254.44,-295.5 1254.44,-276.25 1323.69,-276.25 1323.69,-295.5"/>
<text text-anchor="middle" x="1289.07" y="-282" font-family="Helvetica,sans-Serif" font-size="10.00">fmt/format.h</text>
</a>
</g>
</g>
<!-- Node2&#45;&gt;Node3 -->
<g id="edge2_Node000002_Node000003" class="edge">
<title>Node2&#45;&gt;Node3</title>
<g id="a_edge2_Node000002_Node000003"><a xlink:title=" ">
<path fill="none" stroke="#63b8ff" d="M1079.27,-331.03C1124.91,-321.43 1196.57,-306.34 1243.19,-296.53"/>
<polygon fill="#63b8ff" stroke="#63b8ff" points="1243.64,-300.01 1252.7,-294.53 1242.2,-293.16 1243.64,-300.01"/>
</a>
</g>
</g>
<!-- Node4 -->
<g id="Node000004" class="node">
<title>Node4</title>
<g id="a_Node000004"><a xlink:title=" ">
<polygon fill="#e0e0e0" stroke="#999999" points="1236.19,-295.5 1127.94,-295.5 1127.94,-276.25 1236.19,-276.25 1236.19,-295.5"/>
<text text-anchor="middle" x="1182.07" y="-282" font-family="Helvetica,sans-Serif" font-size="10.00">vulkan/vulkan_core.h</text>
</a>
</g>
</g>
<!-- Node2&#45;&gt;Node4 -->
<g id="edge3_Node000002_Node000004" class="edge">
<title>Node2&#45;&gt;Node4</title>
<g id="a_edge3_Node000002_Node000004"><a xlink:title=" ">
<path fill="none" stroke="#63b8ff" d="M1060.83,-331.09C1084.33,-322.52 1119.88,-309.56 1146.42,-299.88"/>
<polygon fill="#63b8ff" stroke="#63b8ff" points="1147.56,-303.19 1155.76,-296.47 1145.16,-296.61 1147.56,-303.19"/>
</a>
</g>
</g>
<!-- Node5 -->
<g id="Node000005" class="node">
<title>Node5</title>
<g id="a_Node000005"><a xlink:href="glm_8h.html" target="_top" xlink:title=" ">
<polygon fill="white" stroke="#666666" points="548.94,-295.5 481.19,-295.5 481.19,-276.25 548.94,-276.25 548.94,-295.5"/>
<text text-anchor="middle" x="515.07" y="-282" font-family="Helvetica,sans-Serif" font-size="10.00">prette/glm.h</text>
</a>
</g>
</g>
<!-- Node2&#45;&gt;Node5 -->
<g id="edge4_Node000002_Node000005" class="edge">
<title>Node2&#45;&gt;Node5</title>
<g id="a_edge4_Node000002_Node000005"><a xlink:title=" ">
<path fill="none" stroke="#63b8ff" d="M987.52,-335.16C887.14,-324.9 658.02,-301.49 560.43,-291.51"/>
<polygon fill="#63b8ff" stroke="#63b8ff" points="561.01,-288.05 550.7,-290.52 560.3,-295.02 561.01,-288.05"/>
</a>
</g>
</g>
<!-- Node12 -->
<g id="Node000012" class="node">
<title>Node12</title>
<g id="a_Node000012"><a xlink:href="lua_8h.html" target="_top" xlink:title=" ">
<polygon fill="white" stroke="#666666" points="1005.44,-295.5 940.69,-295.5 940.69,-276.25 1005.44,-276.25 1005.44,-295.5"/>
<text text-anchor="middle" x="973.07" y="-282" font-family="Helvetica,sans-Serif" font-size="10.00">prette/lua.h</text>
</a>
</g>
</g>
<!-- Node2&#45;&gt;Node12 -->
<g id="edge11_Node000002_Node000012" class="edge">
<title>Node2&#45;&gt;Node12</title>
<g id="a_edge11_Node000002_Node000012"><a xlink:title=" ">
<path fill="none" stroke="#63b8ff" d="M1025.38,-331.09C1016.37,-323.47 1003.23,-312.37 992.38,-303.2"/>
<polygon fill="#63b8ff" stroke="#63b8ff" points="994.65,-300.53 984.75,-296.75 990.13,-305.88 994.65,-300.53"/>
</a>
</g>
</g>
<!-- Node34 -->
<g id="Node000034" class="node">
<title>Node34</title>
<g id="a_Node000034"><a xlink:href="parser_8h.html" target="_top" xlink:title=" ">
<polygon fill="white" stroke="#666666" points="1194.19,-185 1115.94,-185 1115.94,-165.75 1194.19,-165.75 1194.19,-185"/>
<text text-anchor="middle" x="1155.07" y="-171.5" font-family="Helvetica,sans-Serif" font-size="10.00">prette/parser.h</text>
</a>
</g>
</g>
<!-- Node2&#45;&gt;Node34 -->
<g id="edge39_Node000002_Node000034" class="edge">
<title>Node2&#45;&gt;Node34</title>
<g id="a_edge39_Node000002_Node000034"><a xlink:title=" ">
<path fill="none" stroke="#63b8ff" d="M1042.47,-331.32C1061.27,-305.44 1116.64,-229.25 1142.05,-194.28"/>
<polygon fill="#63b8ff" stroke="#63b8ff" points="1144.7,-196.59 1147.75,-186.45 1139.04,-192.48 1144.7,-196.59"/>
</a>
</g>
</g>
<!-- Node6 -->
<g id="Node000006" class="node">
<title>Node6</title>
<g id="a_Node000006"><a xlink:title=" ">
<polygon fill="#e0e0e0" stroke="#999999" points="586.57,-240.25 543.57,-240.25 543.57,-221 586.57,-221 586.57,-240.25"/>
<text text-anchor="middle" x="565.07" y="-226.75" font-family="Helvetica,sans-Serif" font-size="10.00">cmath</text>
</a>
</g>
</g>
<!-- Node5&#45;&gt;Node6 -->
<g id="edge5_Node000005_Node000006" class="edge">
<title>Node5&#45;&gt;Node6</title>
<g id="a_edge5_Node000005_Node000006"><a xlink:title=" ">
<path fill="none" stroke="#63b8ff" d="M523.32,-276.08C530.23,-268.73 540.29,-258.01 548.81,-248.94"/>
<polygon fill="#63b8ff" stroke="#63b8ff" points="551.3,-251.4 555.6,-241.71 546.2,-246.61 551.3,-251.4"/>
</a>
</g>
</g>
<!-- Node7 -->
<g id="Node000007" class="node">
<title>Node7</title>
<g id="a_Node000007"><a xlink:title=" ">
<polygon fill="#e0e0e0" stroke="#999999" points="673.69,-240.25 604.44,-240.25 604.44,-221 673.69,-221 673.69,-240.25"/>
<text text-anchor="middle" x="639.07" y="-226.75" font-family="Helvetica,sans-Serif" font-size="10.00">glm/glm.hpp</text>
</a>
</g>
</g>
<!-- Node5&#45;&gt;Node7 -->
<g id="edge6_Node000005_Node000007" class="edge">
<title>Node5&#45;&gt;Node7</title>
<g id="a_edge6_Node000005_Node000007"><a xlink:title=" ">
<path fill="none" stroke="#63b8ff" d="M536.1,-275.84C555.7,-267.43 585.17,-254.77 607.58,-245.15"/>
<polygon fill="#63b8ff" stroke="#63b8ff" points="608.73,-248.46 616.54,-241.3 605.97,-242.03 608.73,-248.46"/>
</a>
</g>
</g>
<!-- Node8 -->
<g id="Node000008" class="node">
<title>Node8</title>
<g id="a_Node000008"><a xlink:title=" ">
<polygon fill="#e0e0e0" stroke="#999999" points="156.82,-240.25 13.32,-240.25 13.32,-221 156.82,-221 156.82,-240.25"/>
<text text-anchor="middle" x="85.07" y="-226.75" font-family="Helvetica,sans-Serif" font-size="10.00">glm/gtc/matrix_transform.hpp</text>
</a>
</g>
</g>
<!-- Node5&#45;&gt;Node8 -->
<g id="edge7_Node000005_Node000008" class="edge">
<title>Node5&#45;&gt;Node8</title>
<g id="a_edge7_Node000005_Node000008"><a xlink:title=" ">
<path fill="none" stroke="#63b8ff" d="M480.97,-280.65C413.97,-272.36 263.43,-253.71 168.5,-241.96"/>
<polygon fill="#63b8ff" stroke="#63b8ff" points="169.06,-238.5 158.71,-240.74 168.2,-245.45 169.06,-238.5"/>
</a>
</g>
</g>
<!-- Node9 -->
<g id="Node000009" class="node">
<title>Node9</title>
<g id="a_Node000009"><a xlink:title=" ">
<polygon fill="#e0e0e0" stroke="#999999" points="279.32,-240.25 174.82,-240.25 174.82,-221 279.32,-221 279.32,-240.25"/>
<text text-anchor="middle" x="227.07" y="-226.75" font-family="Helvetica,sans-Serif" font-size="10.00">glm/gtc/type_ptr.hpp</text>
</a>
</g>
</g>
<!-- Node5&#45;&gt;Node9 -->
<g id="edge8_Node000005_Node000009" class="edge">
<title>Node5&#45;&gt;Node9</title>
<g id="a_edge8_Node000005_Node000009"><a xlink:title=" ">
<path fill="none" stroke="#63b8ff" d="M480.9,-278.56C433.24,-269.74 346.05,-253.62 287.33,-242.77"/>
<polygon fill="#63b8ff" stroke="#63b8ff" points="288.31,-239.39 277.84,-241.01 287.03,-246.27 288.31,-239.39"/>
</a>
</g>
</g>
<!-- Node10 -->
<g id="Node000010" class="node">
<title>Node10</title>
<g id="a_Node000010"><a xlink:title=" ">
<polygon fill="#e0e0e0" stroke="#999999" points="388.57,-240.25 297.57,-240.25 297.57,-221 388.57,-221 388.57,-240.25"/>
<text text-anchor="middle" x="343.07" y="-226.75" font-family="Helvetica,sans-Serif" font-size="10.00">glm/gtx/hash.hpp</text>
</a>
</g>
</g>
<!-- Node5&#45;&gt;Node10 -->
<g id="edge9_Node000005_Node000010" class="edge">
<title>Node5&#45;&gt;Node10</title>
<g id="a_edge9_Node000005_Node000010"><a xlink:title=" ">
<path fill="none" stroke="#63b8ff" d="M485.89,-275.84C457.6,-267.08 414.45,-253.73 382.99,-243.98"/>
<polygon fill="#63b8ff" stroke="#63b8ff" points="384.42,-240.76 373.83,-241.15 382.35,-247.45 384.42,-240.76"/>
</a>
</g>
</g>
<!-- Node11 -->
<g id="Node000011" class="node">
<title>Node11</title>
<g id="a_Node000011"><a xlink:title=" ">
<polygon fill="#e0e0e0" stroke="#999999" points="525.07,-240.25 407.07,-240.25 407.07,-221 525.07,-221 525.07,-240.25"/>
<text text-anchor="middle" x="466.07" y="-226.75" font-family="Helvetica,sans-Serif" font-size="10.00">glm/gtx/string_cast.hpp</text>
</a>
</g>
</g>
<!-- Node5&#45;&gt;Node11 -->
<g id="edge10_Node000005_Node000011" class="edge">
<title>Node5&#45;&gt;Node11</title>
<g id="a_edge10_Node000005_Node000011"><a xlink:title=" ">
<path fill="none" stroke="#63b8ff" d="M506.98,-276.08C500.21,-268.73 490.35,-258.01 482,-248.94"/>
<polygon fill="#63b8ff" stroke="#63b8ff" points="484.71,-246.71 475.36,-241.72 479.55,-251.45 484.71,-246.71"/>
</a>
</g>
</g>
<!-- Node12&#45;&gt;Node12 -->
<g id="edge37_Node000012_Node000012" class="edge">
<title>Node12&#45;&gt;Node12</title>
<g id="a_edge37_Node000012_Node000012"><a xlink:title=" ">
<path fill="none" stroke="#63b8ff" d="M999.5,-295.98C1012.22,-297.23 1023.44,-293.86 1023.44,-285.88 1023.44,-280.39 1018.14,-277.08 1010.69,-275.95"/>
<polygon fill="#63b8ff" stroke="#63b8ff" points="1011.07,-272.46 1001.02,-275.79 1010.96,-279.46 1011.07,-272.46"/>
</a>
</g>
</g>
<!-- Node13 -->
<g id="Node000013" class="node">
<title>Node13</title>
<g id="a_Node000013"><a xlink:title=" ">
<polygon fill="#e0e0e0" stroke="#999999" points="1098.57,-74.5 1037.57,-74.5 1037.57,-55.25 1098.57,-55.25 1098.57,-74.5"/>
<text text-anchor="middle" x="1068.07" y="-61" font-family="Helvetica,sans-Serif" font-size="10.00">filesystem</text>
</a>
</g>
</g>
<!-- Node12&#45;&gt;Node13 -->
<g id="edge12_Node000012_Node000013" class="edge">
<title>Node12&#45;&gt;Node13</title>
<g id="a_edge12_Node000012_Node000013"><a xlink:title=" ">
<path fill="none" stroke="#63b8ff" d="M986.41,-275.78C997.29,-267.68 1012.25,-254.87 1021.07,-240.25 1051.36,-190.01 1062.48,-120.07 1066.27,-86.05"/>
<polygon fill="#63b8ff" stroke="#63b8ff" points="1069.72,-86.7 1067.24,-76.4 1062.76,-86 1069.72,-86.7"/>
</a>
</g>
</g>
<!-- Node14 -->
<g id="Node000014" class="node">
<title>Node14</title>
<g id="a_Node000014"><a xlink:title=" ">
<polygon fill="#e0e0e0" stroke="#999999" points="289.07,-74.5 249.07,-74.5 249.07,-55.25 289.07,-55.25 289.07,-74.5"/>
<text text-anchor="middle" x="269.07" y="-61" font-family="Helvetica,sans-Serif" font-size="10.00">string</text>
</a>
</g>
</g>
<!-- Node12&#45;&gt;Node14 -->
<g id="edge13_Node000012_Node000014" class="edge">
<title>Node12&#45;&gt;Node14</title>
<g id="a_edge13_Node000012_Node000014"><a xlink:title=" ">
<path fill="none" stroke="#63b8ff" d="M951.42,-275.82C930.66,-267.05 898.51,-253.19 871.07,-240.25 853.94,-232.17 850.73,-227.81 833.07,-221 606.53,-133.63 537.21,-141.92 300.37,-75.1"/>
<polygon fill="#63b8ff" stroke="#63b8ff" points="301.36,-71.74 290.79,-72.38 299.45,-78.48 301.36,-71.74"/>
</a>
</g>
</g>
<!-- Node15 -->
<g id="Node000015" class="node">
<title>Node15</title>
<g id="a_Node000015"><a xlink:href="common_8h.html" target="_top" xlink:title=" ">
<polygon fill="white" stroke="#666666" points="781.82,-129.75 692.32,-129.75 692.32,-110.5 781.82,-110.5 781.82,-129.75"/>
<text text-anchor="middle" x="737.07" y="-116.25" font-family="Helvetica,sans-Serif" font-size="10.00">prette/common.h</text>
</a>
</g>
</g>
<!-- Node12&#45;&gt;Node15 -->
<g id="edge14_Node000012_Node000015" class="edge">
<title>Node12&#45;&gt;Node15</title>
<g id="a_edge14_Node000012_Node000015"><a xlink:title=" ">
<path fill="none" stroke="#63b8ff" d="M983.22,-276.18C996.81,-263.47 1017.8,-239.34 1005.07,-221 957.54,-152.56 857.17,-130.93 793.65,-124.15"/>
<polygon fill="#63b8ff" stroke="#63b8ff" points="794.04,-120.67 783.75,-123.2 793.37,-127.64 794.04,-120.67"/>
</a>
</g>
</g>
<!-- Node28 -->
<g id="Node000028" class="node">
<title>Node28</title>
<g id="a_Node000028"><a xlink:href="lua__event_8h.html" target="_top" xlink:title=" ">
<polygon fill="white" stroke="#666666" points="824.07,-240.25 730.07,-240.25 730.07,-221 824.07,-221 824.07,-240.25"/>
<text text-anchor="middle" x="777.07" y="-226.75" font-family="Helvetica,sans-Serif" font-size="10.00">prette/lua_event.h</text>
</a>
</g>
</g>
<!-- Node12&#45;&gt;Node28 -->
<g id="edge30_Node000012_Node000028" class="edge">
<title>Node12&#45;&gt;Node28</title>
<g id="a_edge30_Node000012_Node000028"><a xlink:title=" ">
<path fill="none" stroke="#63b8ff" d="M940.26,-275.96C907.67,-267.11 857.47,-253.47 821.36,-243.66"/>
<polygon fill="#63b8ff" stroke="#63b8ff" points="822.67,-240.39 812.1,-241.14 820.83,-247.14 822.67,-240.39"/>
</a>
</g>
</g>
<!-- Node32 -->
<g id="Node000032" class="node">
<title>Node32</title>
<g id="a_Node000032"><a xlink:title=" ">
<polygon fill="#e0e0e0" stroke="#999999" points="932.07,-240.25 880.07,-240.25 880.07,-221 932.07,-221 932.07,-240.25"/>
<text text-anchor="middle" x="906.07" y="-226.75" font-family="Helvetica,sans-Serif" font-size="10.00">lauxlib.h</text>
</a>
</g>
</g>
<!-- Node12&#45;&gt;Node32 -->
<g id="edge36_Node000012_Node000032" class="edge">
<title>Node12&#45;&gt;Node32</title>
<g id="a_edge36_Node000012_Node000032"><a xlink:title=" ">
<path fill="none" stroke="#63b8ff" d="M961.7,-275.84C952.02,-268.15 937.87,-256.9 926.26,-247.68"/>
<polygon fill="#63b8ff" stroke="#63b8ff" points="928.46,-244.95 918.45,-241.47 924.1,-250.43 928.46,-244.95"/>
</a>
</g>
</g>
<!-- Node33 -->
<g id="Node000033" class="node">
<title>Node33</title>
<g id="a_Node000033"><a xlink:title=" ">
<polygon fill="#e0e0e0" stroke="#999999" points="996.44,-240.25 949.69,-240.25 949.69,-221 996.44,-221 996.44,-240.25"/>
<text text-anchor="middle" x="973.07" y="-226.75" font-family="Helvetica,sans-Serif" font-size="10.00">lualib.h</text>
</a>
</g>
</g>
<!-- Node12&#45;&gt;Node33 -->
<g id="edge38_Node000012_Node000033" class="edge">
<title>Node12&#45;&gt;Node33</title>
<g id="a_edge38_Node000012_Node000033"><a xlink:title=" ">
<path fill="none" stroke="#63b8ff" d="M973.07,-276.08C973.07,-269.57 973.07,-260.42 973.07,-252.12"/>
<polygon fill="#63b8ff" stroke="#63b8ff" points="976.57,-252.12 973.07,-242.12 969.57,-252.12 976.57,-252.12"/>
</a>
</g>
</g>
<!-- Node15&#45;&gt;Node13 -->
<g id="edge22_Node000015_Node000013" class="edge">
<title>Node15&#45;&gt;Node13</title>
<g id="a_edge22_Node000015_Node000013"><a xlink:title=" ">
<path fill="none" stroke="#63b8ff" d="M782.22,-112.57C838.66,-104.27 938.16,-89.26 1023.07,-74.5 1024.06,-74.33 1025.07,-74.15 1026.08,-73.97"/>
<polygon fill="#63b8ff" stroke="#63b8ff" points="1026.41,-77.47 1035.62,-72.23 1025.15,-70.58 1026.41,-77.47"/>
</a>
</g>
</g>
<!-- Node15&#45;&gt;Node14 -->
<g id="edge26_Node000015_Node000014" class="edge">
<title>Node15&#45;&gt;Node14</title>
<g id="a_edge26_Node000015_Node000014"><a xlink:title=" ">
<path fill="none" stroke="#63b8ff" d="M692,-112.3C687.3,-111.66 682.59,-111.04 678.07,-110.5 513.26,-90.66 466.59,-106.14 300.65,-74.64"/>
<polygon fill="#63b8ff" stroke="#63b8ff" points="301.51,-71.25 291.03,-72.79 300.18,-78.12 301.51,-71.25"/>
</a>
</g>
</g>
<!-- Node16 -->
<g id="Node000016" class="node">
<title>Node16</title>
<g id="a_Node000016"><a xlink:title=" ">
<polygon fill="#e0e0e0" stroke="#999999" points="1193.07,-74.5 1117.07,-74.5 1117.07,-55.25 1193.07,-55.25 1193.07,-74.5"/>
<text text-anchor="middle" x="1155.07" y="-61" font-family="Helvetica,sans-Serif" font-size="10.00">glog/logging.h</text>
</a>
</g>
</g>
<!-- Node15&#45;&gt;Node16 -->
<g id="edge15_Node000015_Node000016" class="edge">
<title>Node15&#45;&gt;Node16</title>
<g id="a_edge15_Node000015_Node000016"><a xlink:title=" ">
<path fill="none" stroke="#63b8ff" d="M782.31,-114.59C850.25,-107.59 982.94,-93.14 1105.55,-74.8"/>
<polygon fill="#63b8ff" stroke="#63b8ff" points="1105.76,-78.31 1115.13,-73.36 1104.72,-71.39 1105.76,-78.31"/>
</a>
</g>
</g>
<!-- Node17 -->
<g id="Node000017" class="node">
<title>Node17</title>
<g id="a_Node000017"><a xlink:title=" ">
<polygon fill="#e0e0e0" stroke="#999999" points="352.69,-74.5 307.44,-74.5 307.44,-55.25 352.69,-55.25 352.69,-74.5"/>
<text text-anchor="middle" x="330.07" y="-61" font-family="Helvetica,sans-Serif" font-size="10.00">units.h</text>
</a>
</g>
</g>
<!-- Node15&#45;&gt;Node17 -->
<g id="edge16_Node000015_Node000017" class="edge">
<title>Node15&#45;&gt;Node17</title>
<g id="a_edge16_Node000015_Node000017"><a xlink:title=" ">
<path fill="none" stroke="#63b8ff" d="M691.99,-112.39C687.29,-111.73 682.58,-111.09 678.07,-110.5 541.45,-92.74 502.86,-100.54 364.1,-74.61"/>
<polygon fill="#63b8ff" stroke="#63b8ff" points="365.01,-71.22 354.53,-72.79 363.7,-78.09 365.01,-71.22"/>
</a>
</g>
</g>
<!-- Node18 -->
<g id="Node000018" class="node">
<title>Node18</title>
<g id="a_Node000018"><a xlink:title=" ">
<polygon fill="#e0e0e0" stroke="#999999" points="413.19,-74.5 370.94,-74.5 370.94,-55.25 413.19,-55.25 413.19,-74.5"/>
<text text-anchor="middle" x="392.07" y="-61" font-family="Helvetica,sans-Serif" font-size="10.00">uuid.h</text>
</a>
</g>
</g>
<!-- Node15&#45;&gt;Node18 -->
<g id="edge17_Node000015_Node000018" class="edge">
<title>Node15&#45;&gt;Node18</title>
<g id="a_edge17_Node000015_Node000018"><a xlink:title=" ">
<path fill="none" stroke="#63b8ff" d="M691.97,-112.51C687.28,-111.83 682.58,-111.15 678.07,-110.5 567.89,-94.7 536.39,-98.19 424.67,-74.81"/>
<polygon fill="#63b8ff" stroke="#63b8ff" points="425.6,-71.42 415.09,-72.77 424.14,-78.27 425.6,-71.42"/>
</a>
</g>
</g>
<!-- Node19 -->
<g id="Node000019" class="node">
<title>Node19</title>
<g id="a_Node000019"><a xlink:title=" ">
<polygon fill="#e0e0e0" stroke="#999999" points="464.69,-74.5 431.44,-74.5 431.44,-55.25 464.69,-55.25 464.69,-74.5"/>
<text text-anchor="middle" x="448.07" y="-61" font-family="Helvetica,sans-Serif" font-size="10.00">uv.h</text>
</a>
</g>
</g>
<!-- Node15&#45;&gt;Node19 -->
<g id="edge18_Node000015_Node000019" class="edge">
<title>Node15&#45;&gt;Node19</title>
<g id="a_edge18_Node000015_Node000019"><a xlink:title=" ">
<path fill="none" stroke="#63b8ff" d="M691.99,-112.33C632.47,-103.21 529.81,-87 476.03,-74.58"/>
<polygon fill="#63b8ff" stroke="#63b8ff" points="477.03,-71.22 466.49,-72.27 475.39,-78.02 477.03,-71.22"/>
</a>
</g>
</g>
<!-- Node20 -->
<g id="Node000020" class="node">
<title>Node20</title>
<g id="a_Node000020"><a xlink:title=" ">
<polygon fill="#e0e0e0" stroke="#999999" points="538.94,-74.5 483.19,-74.5 483.19,-55.25 538.94,-55.25 538.94,-74.5"/>
<text text-anchor="middle" x="511.07" y="-61" font-family="Helvetica,sans-Serif" font-size="10.00">algorithm</text>
</a>
</g>
</g>
<!-- Node15&#45;&gt;Node20 -->
<g id="edge19_Node000015_Node000020" class="edge">
<title>Node15&#45;&gt;Node20</title>
<g id="a_edge19_Node000015_Node000020"><a xlink:title=" ">
<path fill="none" stroke="#63b8ff" d="M698.47,-110.03C657.1,-100.28 591.78,-84.89 550.2,-75.1"/>
<polygon fill="#63b8ff" stroke="#63b8ff" points="551.16,-71.72 540.62,-72.84 549.55,-78.54 551.16,-71.72"/>
</a>
</g>
</g>
<!-- Node21 -->
<g id="Node000021" class="node">
<title>Node21</title>
<g id="a_Node000021"><a xlink:title=" ">
<polygon fill="#e0e0e0" stroke="#999999" points="1031.69,-19.25 986.44,-19.25 986.44,0 1031.69,0 1031.69,-19.25"/>
<text text-anchor="middle" x="1009.07" y="-5.75" font-family="Helvetica,sans-Serif" font-size="10.00">cstdint</text>
</a>
</g>
</g>
<!-- Node15&#45;&gt;Node21 -->
<g id="edge20_Node000015_Node000021" class="edge">
<title>Node15&#45;&gt;Node21</title>
<g id="a_edge20_Node000015_Node000021"><a xlink:title=" ">
<path fill="none" stroke="#63b8ff" d="M782.26,-116.76C846.57,-112.49 960.02,-101.29 990.07,-74.5 1002.36,-63.54 1006.85,-45.03 1008.43,-30.75"/>
<polygon fill="#63b8ff" stroke="#63b8ff" points="1011.9,-31.3 1009.07,-21.09 1004.91,-30.83 1011.9,-31.3"/>
</a>
</g>
</g>
<!-- Node22 -->
<g id="Node000022" class="node">
<title>Node22</title>
<g id="a_Node000022"><a xlink:title=" ">
<polygon fill="#e0e0e0" stroke="#999999" points="599.19,-74.5 556.94,-74.5 556.94,-55.25 599.19,-55.25 599.19,-74.5"/>
<text text-anchor="middle" x="578.07" y="-61" font-family="Helvetica,sans-Serif" font-size="10.00">cstdio</text>
</a>
</g>
</g>
<!-- Node15&#45;&gt;Node22 -->
<g id="edge21_Node000015_Node000022" class="edge">
<title>Node15&#45;&gt;Node22</title>
<g id="a_edge21_Node000015_Node000022"><a xlink:title=" ">
<path fill="none" stroke="#63b8ff" d="M710.09,-110.09C682.56,-100.87 639.82,-86.55 610.47,-76.73"/>
<polygon fill="#63b8ff" stroke="#63b8ff" points="611.58,-73.41 600.99,-73.55 609.36,-80.05 611.58,-73.41"/>
</a>
</g>
</g>
<!-- Node23 -->
<g id="Node000023" class="node">
<title>Node23</title>
<g id="a_Node000023"><a xlink:title=" ">
<polygon fill="#e0e0e0" stroke="#999999" points="675.07,-74.5 617.07,-74.5 617.07,-55.25 675.07,-55.25 675.07,-74.5"/>
<text text-anchor="middle" x="646.07" y="-61" font-family="Helvetica,sans-Serif" font-size="10.00">functional</text>
</a>
</g>
</g>
<!-- Node15&#45;&gt;Node23 -->
<g id="edge23_Node000015_Node000023" class="edge">
<title>Node15&#45;&gt;Node23</title>
<g id="a_edge23_Node000015_Node000023"><a xlink:title=" ">
<path fill="none" stroke="#63b8ff" d="M721.63,-110.09C707.9,-102.06 687.57,-90.16 671.45,-80.73"/>
<polygon fill="#63b8ff" stroke="#63b8ff" points="673.28,-77.75 662.89,-75.72 669.75,-83.79 673.28,-77.75"/>
</a>
</g>
</g>
<!-- Node24 -->
<g id="Node000024" class="node">
<title>Node24</title>
<g id="a_Node000024"><a xlink:title=" ">
<polygon fill="#e0e0e0" stroke="#999999" points="851.82,-74.5 798.32,-74.5 798.32,-55.25 851.82,-55.25 851.82,-74.5"/>
<text text-anchor="middle" x="825.07" y="-61" font-family="Helvetica,sans-Serif" font-size="10.00">iostream</text>
</a>
</g>
</g>
<!-- Node15&#45;&gt;Node24 -->
<g id="edge24_Node000015_Node000024" class="edge">
<title>Node15&#45;&gt;Node24</title>
<g id="a_edge24_Node000015_Node000024"><a xlink:title=" ">
<path fill="none" stroke="#63b8ff" d="M752,-110.09C765.27,-102.06 784.93,-90.16 800.52,-80.73"/>
<polygon fill="#63b8ff" stroke="#63b8ff" points="802.03,-83.91 808.77,-75.74 798.4,-77.92 802.03,-83.91"/>
</a>
</g>
</g>
<!-- Node25 -->
<g id="Node000025" class="node">
<title>Node25</title>
<g id="a_Node000025"><a xlink:title=" ">
<polygon fill="#e0e0e0" stroke="#999999" points="919.94,-74.5 870.19,-74.5 870.19,-55.25 919.94,-55.25 919.94,-74.5"/>
<text text-anchor="middle" x="895.07" y="-61" font-family="Helvetica,sans-Serif" font-size="10.00">optional</text>
</a>
</g>
</g>
<!-- Node15&#45;&gt;Node25 -->
<g id="edge25_Node000015_Node000025" class="edge">
<title>Node15&#45;&gt;Node25</title>
<g id="a_edge25_Node000015_Node000025"><a xlink:title=" ">
<path fill="none" stroke="#63b8ff" d="M763.87,-110.09C789.99,-101.29 829.88,-87.85 858.82,-78.09"/>
<polygon fill="#63b8ff" stroke="#63b8ff" points="859.91,-81.42 868.27,-74.91 857.68,-74.78 859.91,-81.42"/>
</a>
</g>
</g>
<!-- Node26 -->
<g id="Node000026" class="node">
<title>Node26</title>
<g id="a_Node000026"><a xlink:title=" ">
<polygon fill="#e0e0e0" stroke="#999999" points="980.57,-74.5 937.57,-74.5 937.57,-55.25 980.57,-55.25 980.57,-74.5"/>
<text text-anchor="middle" x="959.07" y="-61" font-family="Helvetica,sans-Serif" font-size="10.00">vector</text>
</a>
</g>
</g>
<!-- Node15&#45;&gt;Node26 -->
<g id="edge27_Node000015_Node000026" class="edge">
<title>Node15&#45;&gt;Node26</title>
<g id="a_edge27_Node000015_Node000026"><a xlink:title=" ">
<path fill="none" stroke="#63b8ff" d="M778.79,-110.08C815.43,-101.99 870.4,-89.51 926.33,-75.12"/>
<polygon fill="#63b8ff" stroke="#63b8ff" points="926.88,-78.59 935.68,-72.7 925.12,-71.82 926.88,-78.59"/>
</a>
</g>
</g>
<!-- Node27 -->
<g id="Node000027" class="node">
<title>Node27</title>
<g id="a_Node000027"><a xlink:href="platform_8h.html" target="_top" xlink:title=" ">
<polygon fill="white" stroke="#666666" points="780.69,-74.5 693.44,-74.5 693.44,-55.25 780.69,-55.25 780.69,-74.5"/>
<text text-anchor="middle" x="737.07" y="-61" font-family="Helvetica,sans-Serif" font-size="10.00">prette/platform.h</text>
</a>
</g>
</g>
<!-- Node15&#45;&gt;Node27 -->
<g id="edge28_Node000015_Node000027" class="edge">
<title>Node15&#45;&gt;Node27</title>
<g id="a_edge28_Node000015_Node000027"><a xlink:title=" ">
<path fill="none" stroke="#63b8ff" d="M737.07,-110.33C737.07,-103.82 737.07,-94.67 737.07,-86.37"/>
<polygon fill="#63b8ff" stroke="#63b8ff" points="740.57,-86.37 737.07,-76.37 733.57,-86.37 740.57,-86.37"/>
</a>
</g>
</g>
<!-- Node27&#45;&gt;Node21 -->
<g id="edge29_Node000027_Node000021" class="edge">
<title>Node27&#45;&gt;Node21</title>
<g id="a_edge29_Node000027_Node000021"><a xlink:title=" ">
<path fill="none" stroke="#63b8ff" d="M781.07,-55.26C835.1,-44.68 925.61,-26.96 974.77,-17.34"/>
<polygon fill="#63b8ff" stroke="#63b8ff" points="975.41,-20.78 984.56,-15.42 974.07,-13.91 975.41,-20.78"/>
</a>
</g>
</g>
<!-- Node28&#45;&gt;Node29 -->
<g id="edge31_Node000028_Node000029" class="edge">
<title>Node28&#45;&gt;Node29</title>
<g id="a_edge31_Node000028_Node000029"><a xlink:title=" ">
<path fill="none" stroke="#63b8ff" d="M729.73,-224.66C633.64,-214.59 416.51,-191.83 318.6,-181.57"/>
<polygon fill="#63b8ff" stroke="#63b8ff" points="319.08,-178.1 308.77,-180.54 318.35,-185.06 319.08,-178.1"/>
</a>
</g>
</g>
<!-- Node29&#45;&gt;Node14 -->
<g id="edge32_Node000029_Node000014" class="edge">
<title>Node29&#45;&gt;Node14</title>
<g id="a_edge32_Node000029_Node000014"><a xlink:title=" ">
<path fill="none" stroke="#63b8ff" d="M269.07,-165.5C269.07,-148.25 269.07,-109.83 269.07,-86.06"/>
<polygon fill="#63b8ff" stroke="#63b8ff" points="272.57,-86.39 269.07,-76.39 265.57,-86.39 272.57,-86.39"/>
</a>
</g>
</g>
<!-- Node29&#45;&gt;Node15 -->
<g id="edge33_Node000029_Node000015" class="edge">
<title>Node29&#45;&gt;Node15</title>
<g id="a_edge33_Node000029_Node000015"><a xlink:title=" ">
<path fill="none" stroke="#63b8ff" d="M307.37,-170.02C389.81,-160.64 584.41,-138.49 680.86,-127.52"/>
<polygon fill="#63b8ff" stroke="#63b8ff" points="681.08,-131.02 690.62,-126.41 680.29,-124.06 681.08,-131.02"/>
</a>
</g>
</g>
<!-- Node30 -->
<g id="Node000030" class="node">
<title>Node30</title>
<g id="a_Node000030"><a xlink:href="rx_8h.html" target="_top" xlink:title=" ">
<polygon fill="white" stroke="#666666" points="233.19,-129.75 172.94,-129.75 172.94,-110.5 233.19,-110.5 233.19,-129.75"/>
<text text-anchor="middle" x="203.07" y="-116.25" font-family="Helvetica,sans-Serif" font-size="10.00">prette/rx.h</text>
</a>
</g>
</g>
<!-- Node29&#45;&gt;Node30 -->
<g id="edge34_Node000029_Node000030" class="edge">
<title>Node29&#45;&gt;Node30</title>
<g id="a_edge34_Node000029_Node000030"><a xlink:title=" ">
<path fill="none" stroke="#63b8ff" d="M257.87,-165.34C248.33,-157.65 234.39,-146.4 222.96,-137.18"/>
<polygon fill="#63b8ff" stroke="#63b8ff" points="225.26,-134.53 215.28,-130.98 220.86,-139.98 225.26,-134.53"/>
</a>
</g>
</g>
<!-- Node31 -->
<g id="Node000031" class="node">
<title>Node31</title>
<g id="a_Node000031"><a xlink:title=" ">
<polygon fill="#e0e0e0" stroke="#999999" points="231.07,-74.5 161.07,-74.5 161.07,-55.25 231.07,-55.25 231.07,-74.5"/>
<text text-anchor="middle" x="196.07" y="-61" font-family="Helvetica,sans-Serif" font-size="10.00">rxcpp/rx.hpp</text>
</a>
</g>
</g>
<!-- Node30&#45;&gt;Node31 -->
<g id="edge35_Node000030_Node000031" class="edge">
<title>Node30&#45;&gt;Node31</title>
<g id="a_edge35_Node000030_Node000031"><a xlink:title=" ">
<path fill="none" stroke="#63b8ff" d="M201.91,-110.33C201.04,-103.74 199.82,-94.46 198.72,-86.07"/>
<polygon fill="#63b8ff" stroke="#63b8ff" points="202.22,-85.82 197.45,-76.36 195.28,-86.73 202.22,-85.82"/>
</a>
</g>
</g>
<!-- Node34&#45;&gt;Node15 -->
<g id="edge43_Node000034_Node000015" class="edge">
<title>Node34&#45;&gt;Node15</title>
<g id="a_edge43_Node000034_Node000015"><a xlink:title=" ">
<path fill="none" stroke="#63b8ff" d="M1115.74,-169.37C1041.33,-159.89 879.67,-139.29 793.62,-128.33"/>
<polygon fill="#63b8ff" stroke="#63b8ff" points="794.11,-124.86 783.75,-127.07 793.22,-131.81 794.11,-124.86"/>
</a>
</g>
</g>
<!-- Node34&#45;&gt;Node16 -->
<g id="edge40_Node000034_Node000016" class="edge">
<title>Node34&#45;&gt;Node16</title>
<g id="a_edge40_Node000034_Node000016"><a xlink:title=" ">
<path fill="none" stroke="#63b8ff" d="M1155.07,-165.5C1155.07,-148.25 1155.07,-109.83 1155.07,-86.06"/>
<polygon fill="#63b8ff" stroke="#63b8ff" points="1158.57,-86.39 1155.07,-76.39 1151.57,-86.39 1158.57,-86.39"/>
</a>
</g>
</g>
<!-- Node34&#45;&gt;Node21 -->
<g id="edge41_Node000034_Node000021" class="edge">
<title>Node34&#45;&gt;Node21</title>
<g id="a_edge41_Node000034_Node000021"><a xlink:title=" ">
<path fill="none" stroke="#63b8ff" d="M1164.19,-165.4C1184.6,-144.25 1230.02,-90.4 1202.07,-55.25 1182.6,-30.77 1093.34,-18.54 1043.31,-13.52"/>
<polygon fill="#63b8ff" stroke="#63b8ff" points="1043.88,-10.06 1033.6,-12.59 1043.22,-17.03 1043.88,-10.06"/>
</a>
</g>
</g>
<!-- Node35 -->
<g id="Node000035" class="node">
<title>Node35</title>
<g id="a_Node000035"><a xlink:title=" ">
<polygon fill="#e0e0e0" stroke="#999999" points="1300.69,-129.75 1249.44,-129.75 1249.44,-110.5 1300.69,-110.5 1300.69,-129.75"/>
<text text-anchor="middle" x="1275.07" y="-116.25" font-family="Helvetica,sans-Serif" font-size="10.00">ostream</text>
</a>
</g>
</g>
<!-- Node34&#45;&gt;Node35 -->
<g id="edge42_Node000034_Node000035" class="edge">
<title>Node34&#45;&gt;Node35</title>
<g id="a_edge42_Node000034_Node000035"><a xlink:title=" ">
<path fill="none" stroke="#63b8ff" d="M1175.42,-165.34C1194.3,-156.97 1222.65,-144.38 1244.3,-134.78"/>
<polygon fill="#63b8ff" stroke="#63b8ff" points="1245.51,-138.07 1253.23,-130.82 1242.67,-131.67 1245.51,-138.07"/>
</a>
</g>
</g>
<!-- Node36&#45;&gt;Node5 -->
<g id="edge46_Node000036_Node000005" class="edge">
<title>Node36&#45;&gt;Node5</title>
<g id="a_edge46_Node000036_Node000005"><a xlink:title=" ">
<path fill="none" stroke="#63b8ff" d="M613.05,-331.09C594.57,-322.75 566.86,-310.25 545.62,-300.66"/>
<polygon fill="#63b8ff" stroke="#63b8ff" points="547.12,-297.5 536.56,-296.58 544.24,-303.88 547.12,-297.5"/>
</a>
</g>
</g>
<!-- Node36&#45;&gt;Node15 -->
<g id="edge47_Node000036_Node000015" class="edge">
<title>Node36&#45;&gt;Node15</title>
<g id="a_edge47_Node000036_Node000015"><a xlink:title=" ">
<path fill="none" stroke="#63b8ff" d="M637.73,-331.09C646.72,-313.64 666.96,-274.03 683.07,-240.25 699.7,-205.36 718.09,-164.19 728.55,-140.53"/>
<polygon fill="#63b8ff" stroke="#63b8ff" points="731.68,-142.09 732.51,-131.53 725.28,-139.27 731.68,-142.09"/>
</a>
</g>
</g>
</g>
</svg>
